<?xml version="1.0" standalone="no"?>
<!DOCTYPE svg PUBLIC "-//W3C//DTD SVG 1.1//EN" "http://www.w3.org/Graphics/SVG/1.1/DTD/svg11.dtd" >
<svg xmlns="http://www.w3.org/2000/svg">
<metadata></metadata>
<defs>
<font id="berninosansbold" horiz-adv-x="1386" >
<font-face units-per-em="2048" ascent="1643" descent="-405" />
<missing-glyph horiz-adv-x="512" />
<glyph horiz-adv-x="2048" />
<glyph horiz-adv-x="2048" />
<glyph unicode="&#xd;" horiz-adv-x="682" />
<glyph unicode=" "  horiz-adv-x="512" />
<glyph unicode="&#x09;" horiz-adv-x="512" />
<glyph unicode="&#xa0;" horiz-adv-x="512" />
<glyph unicode="!" horiz-adv-x="697" d="M185 1437h346l-34 -1011h-277zM199 0v285h319v-285h-319z" />
<glyph unicode="&#x22;" horiz-adv-x="932" d="M162 951v539h268l-82 -539h-186zM522 951v539h267l-82 -539h-185z" />
<glyph unicode="#" horiz-adv-x="1574" d="M151 262l21 221h204l35 348h-203l21 222h205l26 261h260l-27 -261h266l27 261h262l-27 -261h202l-21 -222h-204l-35 -348h203l-21 -221h-204l-27 -262h-260l25 262h-266l-25 -262h-261l26 262h-202zM636 483h266l34 348h-265z" />
<glyph unicode="$" horiz-adv-x="1237" d="M107 927q0 157 126 248q125 91 361 103l14 159h217l-25 -165q148 -14 279 -42v-229h-15q-135 40 -294 55l-34 -294q57 -14 85 -22t81 -27q39 -14 78 -37q27 -16 65 -47q32 -26 52 -60q18 -30 32 -76q13 -42 13 -96q0 -171 -128 -260t-359 -101l-11 -158h-218l23 162 q-171 12 -302 52v233h15q131 -47 318 -67l36 307q-63 17 -121 37q-41 14 -107 48q-62 32 -95 65q-35 35 -61 90q-25 53 -25 122zM388 949q0 -51 41 -84q37 -30 121 -57l25 254q-94 -6 -141 -33q-46 -27 -46 -80zM674 250q99 6 144 34q44 27 44 77q0 53 -41 88 q-38 33 -120 61z" />
<glyph unicode="%" horiz-adv-x="1755" d="M99 1001q0 151 103 246q101 94 255 94q152 0 254 -93q101 -92 101 -245q0 -151 -102 -246q-101 -94 -255 -94q-153 0 -254 94q-102 95 -102 244zM183 0v13l619 702l482 599h288v-13l-619 -701l-481 -600h-289zM325 1003q0 -71 36 -113t96 -42q57 0 93 42q37 43 37 113 q0 68 -37 111q-36 42 -95 42q-58 0 -94 -42t-36 -111zM944 311q0 151 102 246q101 94 255 94q153 0 254 -94t101 -244q0 -151 -102 -245q-103 -95 -255 -95q-151 0 -254 95q-101 94 -101 243zM1169 313q0 -70 36 -112t96 -42q58 0 94 42t36 112q0 69 -36 111t-96 42 q-58 0 -94 -42t-36 -111z" />
<glyph unicode="&#x26;" horiz-adv-x="1547" d="M75 357q0 137 75 227t224 161q-94 93 -143 176q-46 79 -46 178q0 163 120 264q119 100 331 100q204 0 318 -93t114 -239q0 -65 -24 -122q-24 -58 -70 -105q-46 -48 -94 -85q-47 -37 -118 -80l275 -263q54 118 75 296h288q-29 -261 -172 -455l312 -302v-15h-371l-139 138 q-161 -161 -453 -161q-243 0 -372 101q-130 102 -130 279zM401 382q0 -84 64 -135q63 -50 167 -50q134 0 239 90l-330 309q-66 -48 -104 -101q-36 -51 -36 -113zM489 1110q0 -57 33 -114t103 -127q83 61 130 117q45 54 45 124q0 68 -44 106q-45 39 -114 39t-111 -39 t-42 -106z" />
<glyph unicode="'" horiz-adv-x="599" d="M162 951v539h295l-81 -539h-214z" />
<glyph unicode="(" horiz-adv-x="706" d="M97 600q0 136 28 279q26 135 74 250q50 120 98 203q49 85 110 158h227q-96 -145 -166 -377q-71 -234 -71 -513q0 -277 71 -511q70 -232 166 -377h-227q-61 72 -114 165q-50 88 -98 205q-46 112 -72 247q-26 136 -26 271z" />
<glyph unicode=")" horiz-adv-x="706" d="M73 -288q96 145 166 377q70 231 70 511q0 282 -70 513q-70 232 -166 377h227q61 -73 110 -158q48 -83 98 -203q48 -115 74 -250q27 -138 27 -279q0 -140 -25 -271q-26 -135 -72 -247q-48 -117 -98 -205q-52 -93 -114 -165h-227z" />
<glyph unicode="*" horiz-adv-x="1096" d="M113 1162l68 212l262 -92l-7 277h223l-6 -277l260 92l71 -212l-268 -81l169 -219l-180 -132l-157 227l-158 -227l-178 132l166 219z" />
<glyph unicode="+" horiz-adv-x="1299" d="M130 422v231h380v411h277v-411h382v-231h-382v-409h-277v409h-380z" />
<glyph unicode="," horiz-adv-x="578" d="M76 -260l81 569h317l-155 -569h-243z" />
<glyph unicode="-" horiz-adv-x="846" d="M111 480v242h625v-242h-625z" />
<glyph unicode="." horiz-adv-x="573" d="M130 0v309h321v-309h-321z" />
<glyph unicode="/" horiz-adv-x="909" d="M29 -53l588 1543h264l-589 -1543h-263z" />
<glyph unicode="0" horiz-adv-x="1306" d="M124 653q0 686 531 686q528 0 528 -678q0 -686 -532 -686q-527 0 -527 678zM459 657q0 -247 44 -348q46 -105 150 -105q105 0 149 104q46 104 46 349t-45 349t-150 104t-150 -104q-44 -101 -44 -349z" />
<glyph unicode="1" horiz-adv-x="821" d="M61 951v239l388 124h208v-1314h-315v1039l-267 -88h-14z" />
<glyph unicode="2" horiz-adv-x="1083" d="M103 0v214q263 266 281 285q169 178 218 288q28 63 28 128q0 85 -54 131q-55 47 -163 47q-113 0 -279 -48h-14v241q169 42 340 42q250 0 379 -100q128 -99 128 -273q0 -52 -14 -105q-15 -58 -32 -95q-19 -43 -53 -92q-31 -45 -65 -84q-35 -40 -79 -84q-36 -36 -84 -80 q-9 -8 -40 -36.5t-52 -47.5q-16 -14 -46 -43t-43 -40h519v-248h-875z" />
<glyph unicode="3" horiz-adv-x="1085" d="M103 31v238h14q157 -47 294 -47q118 0 179 43t61 121q0 91 -76 137q-28 16 -66 23q-39 7 -65 9q-17 1 -71 1h-149v239h150q51 0 66 1q28 2 55 8q30 7 59 23q69 42 69 122q0 144 -203 144q-126 0 -288 -48h-15v239q161 44 340 44q241 0 368 -88q128 -89 128 -248 q0 -118 -69 -196q-68 -76 -189 -104q131 -21 209 -104q78 -82 78 -214q0 -181 -151 -284t-411 -103q-180 0 -317 44z" />
<glyph unicode="4" horiz-adv-x="1216" d="M78 256v225l512 833h356v-817h183v-241h-183v-256h-287v256h-581zM353 497h306v500z" />
<glyph unicode="5" horiz-adv-x="1109" d="M124 34v243h14q175 -55 317 -55q233 0 233 179q0 90 -66 135t-217 45q-82 0 -241 -14h-15l38 747h753v-244h-503l-15 -260q54 6 134 6q215 0 335 -108t120 -295q0 -205 -146 -316q-144 -110 -406 -110q-191 0 -335 47z" />
<glyph unicode="6" horiz-adv-x="1245" d="M124 590q0 384 162 561t482 177q154 0 285 -33v-242h-14q-139 40 -263 40q-178 0 -254 -102q-77 -103 -77 -315q34 88 112 130t186 42q186 0 295 -112q110 -113 110 -304q0 -208 -135 -333q-134 -124 -375 -124q-283 0 -411 178q-103 143 -103 437zM453 413 q0 -95 47 -154q46 -58 140 -58q93 0 139 56t46 154t-47 154q-49 58 -140 58q-92 0 -138 -57q-47 -58 -47 -153z" />
<glyph unicode="7" horiz-adv-x="1046" d="M53 1070v244h916v-181l-426 -1133h-344l439 1070h-585z" />
<glyph unicode="8" horiz-adv-x="1236" d="M97 329q0 118 74 201t203 123q-117 43 -178 127q-60 82 -60 198q0 168 125 264q123 95 360 95q231 0 354 -89q125 -90 125 -243q0 -112 -65 -188q-65 -75 -175 -108q131 -42 205 -134t74 -218q0 -172 -139 -276t-392 -104q-244 0 -377 96q-134 96 -134 256zM422 373 q0 -84 53 -132t144 -48q89 0 142 45t53 119q0 43 -20 80t-58 63q-42 28 -77 44q-43 19 -92 35q-70 -30 -107 -84q-38 -55 -38 -122zM457 982q0 -136 204 -204q50 27 84 73t34 116q0 73 -42 113q-43 41 -120 41q-75 0 -118 -38q-42 -37 -42 -101z" />
<glyph unicode="9" horiz-adv-x="1245" d="M97 883q0 210 134 333t377 123q282 0 410 -177q103 -143 103 -436q0 -386 -162 -563q-161 -176 -481 -176q-158 0 -285 32v243h13q139 -40 264 -40q175 0 253 102q77 101 77 314q-34 -88 -112 -130t-187 -42q-184 0 -294 113t-110 304zM420 902q0 -95 47 -153 q47 -57 139 -57t139 56q48 57 48 154q0 95 -47 154q-46 58 -140 58q-92 0 -139 -57q-47 -58 -47 -155z" />
<glyph unicode=":" horiz-adv-x="649" d="M164 0v298h321v-298h-321zM164 751v298h321v-298h-321z" />
<glyph unicode=";" horiz-adv-x="649" d="M88 -260l80 569h317l-154 -569h-243zM164 751v298h321v-298h-321z" />
<glyph unicode="&#x3c;" horiz-adv-x="1299" d="M178 411v256l873 338v-245l-625 -217l625 -226v-244z" />
<glyph unicode="=" horiz-adv-x="1299" d="M185 222v217h929v-217h-929zM185 638v218h929v-218h-929z" />
<glyph unicode="&#x3e;" horiz-adv-x="1299" d="M248 73v244l625 218l-625 225v245l873 -338v-256z" />
<glyph unicode="?" horiz-adv-x="1088" d="M111 1154v244q165 54 372 54q255 0 391 -95q135 -95 135 -272q0 -55 -15 -105q-16 -52 -35 -85q-22 -37 -53 -70q-29 -30 -59 -55q-31 -25 -61 -48q-33 -25 -52 -42q-34 -32 -49 -52q-22 -29 -30 -46q-9 -20 -14 -51q-4 -29 -6 -50q-1 -13 -1 -55h-282q0 80 1 104 q1 29 15 84q12 48 40 90q29 43 73 83q10 10 52 45q36 30 56 50q23 23 44 48q25 29 37 60q12 30 12 66q0 74 -59 115q-58 40 -172 40q-149 0 -325 -57h-15zM334 0v285h319v-285h-319z" />
<glyph unicode="@" horiz-adv-x="1929" d="M172 560q0 169 61 312q62 146 169 248t262 161q153 58 329 58q171 0 315 -54q141 -53 241 -148q97 -92 153 -220q56 -127 56 -269q0 -208 -109 -341t-289 -133q-97 0 -155 40q-59 41 -72 109q-22 -64 -82 -107q-59 -42 -149 -42q-142 0 -230 106q-87 105 -87 285 q0 183 89 291q90 109 237 109q157 0 212 -132l52 113h139v-463v-37q0 -5 2 -31q1 -17 7 -28q2 -4 12 -20q6 -10 20 -15q11 -4 30 -4q69 0 112 71t43 202q0 237 -144 385t-403 148q-270 0 -437 -161q-166 -160 -166 -424t175 -420q177 -157 501 -157q142 0 282 29 q139 29 245 69h16v-201q-285 -82 -558 -82q-209 0 -373 56q-167 57 -277 157q-111 101 -170 239q-59 139 -59 301zM823 567q0 -100 32 -152t104 -52t104 52t32 152q0 103 -32 156t-104 53q-73 0 -104 -54q-32 -55 -32 -155z" />
<glyph unicode="A" d="M13 0l503 1437h363l495 -1437h-348l-103 325h-512l-105 -325h-293zM487 558h363l-178 563z" />
<glyph unicode="B" horiz-adv-x="1344" d="M164 0v1437h522q86 0 134 -4q59 -5 110 -17q56 -13 107 -44q151 -91 151 -285q0 -143 -74 -221q-75 -80 -186 -96q71 -5 128 -28q59 -24 109 -65t79 -109q28 -66 28 -155q0 -225 -185 -335q-45 -28 -95 -44q-53 -17 -102 -23q-67 -8 -95 -9q-62 -2 -117 -2h-514zM474 225 h210q27 0 63 2q22 1 55 10q27 7 58 25q86 51 86 162t-94 163q-27 14 -60 22q-31 7 -55 9q-15 1 -68 1h-195v-394zM474 864h166q40 0 57 1q23 1 46 8q25 7 42 17q77 47 77 147t-77 147q-21 12 -43 18q-20 5 -46 7q-32 2 -56 2h-166v-347z" />
<glyph unicode="C" horiz-adv-x="1226" d="M97 718q0 124 27 232q28 112 83 202q58 95 141 160t204 103q118 37 268 37q168 0 309 -42v-247h-15q-126 48 -256 48q-106 0 -188 -38t-130 -107q-49 -71 -73 -155q-24 -85 -24 -191q0 -105 24 -192q23 -83 73 -155q47 -68 130 -108t188 -40q130 0 256 48h15v-246 q-141 -42 -309 -42q-150 0 -268 37q-121 38 -204 103t-141 160q-55 90 -83 201q-27 108 -27 232z" />
<glyph unicode="D" horiz-adv-x="1507" d="M164 0v1437h438q61 0 121 -2q41 -1 118 -11q80 -10 140 -30q67 -22 131 -59q298 -175 298 -617q0 -232 -80 -386q-79 -153 -222 -233q-58 -33 -130 -56q-66 -22 -134 -31q-60 -8 -113 -10q-64 -2 -110 -2h-457zM487 241h134q46 0 92 2q38 2 83 13q51 13 89 34 q181 102 181 428q0 333 -187 430q-44 24 -94 34q-51 10 -82 12q-40 2 -82 2h-134v-955z" />
<glyph unicode="E" horiz-adv-x="1205" d="M164 0v1437h915v-245h-594v-328h503v-245h-503v-374h625v-245h-946z" />
<glyph unicode="F" horiz-adv-x="1127" d="M164 0v1437h898v-251h-571v-403h508v-250h-508v-533h-327z" />
<glyph unicode="G" horiz-adv-x="1453" d="M97 705q0 186 59 331q58 144 165 234q106 89 255 136q147 46 333 46q201 0 369 -44v-250h-15q-165 53 -340 53q-480 0 -480 -491q0 -243 113 -374q112 -130 311 -130q73 0 147 17v300h-231v241h545v-719q-210 -76 -464 -76q-173 0 -314 44q-139 43 -241 132 q-104 91 -157 228q-55 144 -55 322z" />
<glyph unicode="H" horiz-adv-x="1536" d="M164 0v1437h327v-573h554v573h327v-1437h-327v619h-554v-619h-327z" />
<glyph unicode="I" horiz-adv-x="655" d="M164 0v1437h327v-1437h-327z" />
<glyph unicode="J" horiz-adv-x="899" d="M34 11v245h16q90 -25 162 -25q114 0 162 71q16 27 23 55q9 35 10 59q2 36 2 81v940h327v-914q0 -84 -4 -133q-5 -58 -22 -116q-17 -57 -55 -114q-122 -171 -416 -171q-118 0 -205 22z" />
<glyph unicode="K" horiz-adv-x="1392" d="M164 0v1437h321v-610l518 610h338l-500 -583l512 -854h-371l-361 623l-136 -143v-480h-321z" />
<glyph unicode="L" horiz-adv-x="1054" d="M164 0v1437h327v-1185h539v-252h-866z" />
<glyph unicode="M" horiz-adv-x="1967" d="M164 0v1437h430l401 -1003l388 1003h420v-1437h-309v1089l-388 -1018h-269l-388 1018v-1089h-285z" />
<glyph unicode="N" horiz-adv-x="1545" d="M164 0v1437h319l614 -915v915h284v-1437h-284l-648 944v-944h-285z" />
<glyph unicode="O" horiz-adv-x="1585" d="M99 715q0 348 183 549t515 201q222 0 378 -93q155 -93 234 -259q77 -163 77 -391q0 -349 -182 -549q-184 -202 -515 -202q-220 0 -378 94q-155 93 -234 259q-78 165 -78 391zM445 718q0 -253 88 -380q89 -126 260 -126q172 0 260 127t88 379q0 253 -88 380t-260 127 t-260 -127t-88 -380z" />
<glyph unicode="P" horiz-adv-x="1320" d="M164 0v1437h438q87 0 142 -4q65 -5 140 -22q74 -17 144 -56q105 -61 159 -167q55 -107 55 -240q0 -148 -63 -258q-62 -108 -172 -170q-63 -35 -141 -53q-80 -18 -132 -21q-54 -3 -136 -3h-107v-443h-327zM491 684h117q30 0 74 2q30 1 65 11q31 8 61 29q94 65 94 214 t-94 214q-30 20 -69 29q-44 10 -65 11q-34 2 -66 2h-117v-512z" />
<glyph unicode="Q" horiz-adv-x="1585" d="M99 715q0 348 183 549t515 201q222 0 378 -93q155 -93 234 -259q77 -163 77 -391q0 -223 -76 -387q-77 -166 -222 -259l214 -296h-363l-132 199q-82 -8 -118 -8q-220 0 -378 94q-155 93 -234 259q-78 165 -78 391zM445 718q0 -253 88 -380q89 -126 260 -126 q172 0 260 127t88 379q0 253 -88 380t-260 127t-260 -127t-88 -380z" />
<glyph unicode="R" horiz-adv-x="1369" d="M164 0v1437h516q46 0 106 -2q37 -1 98 -10q47 -7 106 -28q56 -20 105 -52q164 -112 164 -350q0 -305 -267 -412l334 -583h-361l-279 533h-205v-533h-317zM481 774h199q120 0 174 36q33 22 56 69q22 45 22 105q0 122 -78 176q-56 36 -174 36h-199v-422z" />
<glyph unicode="S" horiz-adv-x="1178" d="M109 1043q0 196 142 302q143 107 397 107q194 0 366 -55v-243h-15q-198 69 -344 69q-101 0 -153 -37q-51 -36 -51 -99q0 -50 34 -90q33 -38 91 -69q64 -34 124 -59q63 -27 135 -65q62 -33 122 -85q54 -47 91 -125q35 -74 35 -174q0 -212 -154 -324q-152 -111 -421 -111 q-222 0 -393 65v248h15q225 -84 384 -84q108 0 167 43q60 43 60 117q0 43 -21 79q-21 37 -58 63q-33 23 -84 50q-50 26 -100 48q-54 24 -105 51q-59 31 -100 62q-51 38 -84 78q-36 43 -58 104q-22 60 -22 134z" />
<glyph unicode="T" horiz-adv-x="1167" d="M40 1186v251h1087v-251h-380v-1186h-327v1186h-380z" />
<glyph unicode="U" horiz-adv-x="1493" d="M164 579v858h327v-910q0 -72 12 -126q12 -52 41 -97q29 -44 85 -68q57 -24 139 -24t139 24q56 24 85 68q29 45 41 97q12 54 12 126v910h285v-858q0 -53 -2 -103q-1 -25 -12 -102q-9 -64 -34 -118q-26 -57 -67 -105q-149 -180 -470 -180q-317 0 -466 180q-42 49 -66 104 q-23 52 -34 110q-12 62 -13 107q-2 68 -2 107z" />
<glyph unicode="V" horiz-adv-x="1404" d="M29 1437h353l342 -1089l361 1089h291l-516 -1437h-329z" />
<glyph unicode="W" horiz-adv-x="2063" d="M44 1437h338l252 -1059l264 1030h330l260 -1030l256 1059h275l-384 -1437h-340l-265 1035l-266 -1035h-340z" />
<glyph unicode="X" horiz-adv-x="1415" d="M38 0l463 736l-444 701h392l292 -493l296 493h316l-440 -690l470 -747h-393l-316 537l-322 -537h-314z" />
<glyph unicode="Y" horiz-adv-x="1318" d="M13 1437h381l303 -591l302 591h306l-482 -877v-560h-326v554z" />
<glyph unicode="Z" horiz-adv-x="1255" d="M96 0v237l662 953h-643v247h1027v-226l-668 -965h684v-246h-1062z" />
<glyph unicode="[" horiz-adv-x="823" d="M164 -288v1778h562v-229h-277v-1320h277v-229h-562z" />
<glyph unicode="\" horiz-adv-x="909" d="M29 1490h263l589 -1543h-264z" />
<glyph unicode="]" horiz-adv-x="825" d="M99 -59h277v1320h-277v229h562v-1778h-562v229z" />
<glyph unicode="^" horiz-adv-x="1029" d="M65 749l292 688h315l291 -688h-294l-163 434l-168 -434h-273z" />
<glyph unicode="_" horiz-adv-x="706" d="M-8 -44h723v-212h-723v212z" />
<glyph unicode="`" horiz-adv-x="1146" d="M203 1490h341l146 -277h-251z" />
<glyph unicode="a" horiz-adv-x="1161" d="M71 304q0 196 166 281q59 30 138 45q86 16 152 19q48 2 188 2q0 44 -1 58q-2 23 -7 43q-6 22 -19 41q-46 63 -191 63q-139 0 -310 -56h-15v235q178 44 369 44q321 0 424 -151q28 -41 43 -98q14 -52 17 -103q3 -46 3 -116v-611h-243l-53 172q-22 -86 -101 -141 q-78 -54 -203 -54q-158 0 -258 86q-99 85 -99 241zM394 327q0 -56 34 -86q36 -31 99 -31q55 0 99 23q43 22 64 63q25 49 25 151v25q-89 0 -157 -7q-56 -6 -99 -28q-65 -35 -65 -110z" />
<glyph unicode="b" horiz-adv-x="1304" d="M143 0v1490h316v-594q30 92 109 141q80 50 202 50q209 0 329 -145q120 -146 120 -403q0 -264 -128 -413t-354 -149q-244 0 -319 176l-72 -153h-203zM457 527q0 -319 212 -319q214 0 214 319t-212 319q-214 0 -214 -319z" />
<glyph unicode="c" horiz-adv-x="962" d="M86 529q0 260 140 404q141 146 410 146q132 0 237 -30v-245h-15q-97 35 -187 35q-249 0 -249 -306q0 -308 249 -308q90 0 187 35h15v-245q-99 -30 -235 -30q-272 0 -412 143t-140 401z" />
<glyph unicode="d" horiz-adv-x="1304" d="M86 523q0 118 29 222q29 102 85 178q57 77 147 120q91 44 207 44q229 0 292 -168v571h316v-1490h-255l-55 168q-29 -94 -114 -143q-82 -48 -203 -48q-110 0 -198 41q-86 40 -141 116q-56 78 -82 173q-28 103 -28 216zM422 533q0 -317 212 -317q214 0 214 317t-212 317 q-214 0 -214 -317z" />
<glyph unicode="e" horiz-adv-x="1182" d="M86 531q0 259 135 411q135 151 381 151q134 0 238 -48t165 -139q29 -48 47 -101q18 -54 24 -110q5 -49 7 -108q2 -70 2 -142h-674q0 -112 71 -174q72 -63 208 -63t315 56h15v-233q-166 -46 -357 -46q-283 0 -426 130q-151 139 -151 416zM409 640h357q0 116 -39 177 q-39 62 -129 62q-175 0 -189 -239z" />
<glyph unicode="f" horiz-adv-x="901" d="M38 816v233h201v50q0 44 2 84q1 29 12 73q11 45 35 85q46 75 131 115q84 40 244 40q101 0 181 -15v-239h-15q-77 19 -139 19q-90 0 -119 -57q-17 -37 -17 -102v-53h290v-233h-290v-816h-315v816h-201z" />
<glyph unicode="g" horiz-adv-x="1306" d="M86 548q0 251 131 396q130 143 358 143q113 0 192 -41q77 -40 121 -131l77 149h198v-892v-90q-2 -38 -7 -79q-6 -49 -22 -93q-18 -50 -41 -84q-71 -106 -215 -157q-142 -51 -320 -51q-209 0 -392 59v260h15q192 -82 371 -82q100 0 167 27q69 27 101 76q15 23 23 52 q7 28 9 59q2 40 2 72v71q-64 -168 -311 -168q-218 0 -338 135q-119 134 -119 369zM422 560q0 -61 10 -114q10 -51 31 -91q23 -42 65 -67q41 -24 108 -24q66 0 107 24q43 26 66 66q23 42 32 92q9 51 9 114q0 62 -9 112q-9 48 -32 93q-22 43 -66 67q-43 24 -107 24t-107 -24 q-44 -24 -66 -67q-22 -42 -31 -93q-10 -55 -10 -112z" />
<glyph unicode="h" horiz-adv-x="1266" d="M143 0v1490h316v-588q63 185 307 185q214 0 306 -136q28 -41 43 -97q14 -54 16 -98q2 -58 2 -131v-625h-321v627q0 40 -1 52q-1 15 -8 44q-6 25 -20 47q-43 61 -145 61q-179 0 -179 -193v-638h-316z" />
<glyph unicode="i" horiz-adv-x="601" d="M141 1213v277h319v-277h-319zM143 0v1064h316v-1064h-316z" />
<glyph unicode="j" horiz-adv-x="607" d="M-90 -130h15q50 -8 86 -8q89 0 119 54q19 35 19 116v1032h315v-1014q0 -49 -2 -97q-2 -36 -13 -78q-12 -43 -34 -83q-96 -159 -377 -159q-75 0 -128 10v227zM147 1213v277h319v-277h-319z" />
<glyph unicode="k" horiz-adv-x="1211" d="M143 0v1490h316v-831l357 405h336l-382 -422l393 -642h-361l-244 432l-99 -98v-334h-316z" />
<glyph unicode="l" horiz-adv-x="601" d="M143 0v1490h316v-1490h-316z" />
<glyph unicode="m" horiz-adv-x="1893" d="M143 0v1064h249l57 -183q57 206 313 206q258 0 325 -210q37 105 112 158q73 52 203 52q206 0 298 -136q39 -59 49 -128q11 -74 11 -191v-632h-321v630q0 41 -1 52q-2 22 -7 43q-6 27 -19 45q-42 61 -136 61q-54 0 -88 -18t-49 -48t-21 -60t-6 -67v-638h-321v632 q0 39 -1 50q-1 15 -8 43q-6 25 -18 45q-42 61 -135 61q-54 0 -89 -19q-36 -20 -51 -51q-16 -33 -20 -59q-5 -30 -5 -64v-638h-321z" />
<glyph unicode="n" horiz-adv-x="1272" d="M143 0v1064h249l57 -183q58 206 323 206q213 0 305 -136q28 -41 43 -97q16 -58 17 -98q2 -58 2 -131v-625h-321v627q0 40 -1 51q-1 14 -8 44q-6 25 -20 46q-42 63 -147 63q-178 0 -178 -193v-638h-321z" />
<glyph unicode="o" horiz-adv-x="1262" d="M86 529q0 275 142 418q142 144 404 144q259 0 403 -142q142 -141 142 -414t-142 -418q-141 -144 -405 -144q-258 0 -402 142q-142 141 -142 414zM422 535q0 -342 210 -342q209 0 209 336q0 342 -211 342q-208 0 -208 -336z" />
<glyph unicode="p" horiz-adv-x="1304" d="M143 -367v1431h254l56 -168q30 94 113 143q82 48 204 48q110 0 198 -41q86 -40 141 -116q56 -78 82 -173q28 -103 28 -216q0 -118 -29 -222q-29 -102 -85 -178q-57 -77 -147 -120q-91 -44 -207 -44q-229 0 -292 168v-512h-316zM457 531q0 -317 212 -317q214 0 214 317 t-212 317q-214 0 -214 -317z" />
<glyph unicode="q" horiz-adv-x="1304" d="M86 525q0 265 127 413q128 149 354 149q244 0 319 -176l73 153h203v-1431h-316v535q-30 -91 -110 -141t-201 -50q-210 0 -330 145q-119 144 -119 403zM422 537q0 -319 212 -319q214 0 214 319t-212 319q-214 0 -214 -319z" />
<glyph unicode="r" horiz-adv-x="832" d="M143 0v1064h245l63 -212q27 126 109 177q81 50 216 50h24v-305q-59 11 -124 11q-47 0 -78 -8q-36 -9 -57 -22q-23 -14 -38 -32q-13 -16 -22 -35q-5 -11 -11 -37q-3 -13 -5 -40q-1 -13 -1 -42v-569h-321z" />
<glyph unicode="s" horiz-adv-x="978" d="M103 34v235h15q190 -63 312 -63q70 0 105 23q34 22 34 61q0 35 -25 60q-23 23 -67 44q-25 12 -91 38q-58 23 -99 44q-56 29 -91 60q-43 38 -67 89q-26 55 -26 124q0 156 120 243t331 87q157 0 283 -40v-235h-16q-159 54 -265 54q-68 0 -100 -22q-34 -23 -34 -55 q0 -27 26 -50q23 -20 67 -38q11 -5 91 -36q53 -21 99 -46q55 -30 91 -62q43 -38 67 -93q25 -57 25 -133q0 -164 -121 -251t-345 -87q-179 0 -319 49z" />
<glyph unicode="t" horiz-adv-x="915" d="M38 816v233h187v254l316 86v-340h279v-233h-279v-417q0 -42 1 -57q2 -30 6 -43q5 -17 16 -35q30 -44 110 -44q67 0 130 19h16v-231q-98 -23 -212 -23q-246 0 -331 126q-21 34 -34 77q-12 40 -15 87t-3 115v426h-187z" />
<glyph unicode="u" horiz-adv-x="1266" d="M143 439v625h321v-627q0 -40 1 -52q1 -14 8 -43q6 -23 20 -46q47 -63 145 -63q46 0 76 13q32 14 48 33q19 22 27 48q10 31 11 50q2 30 2 49v638h321v-1064h-248l-57 183q-27 -96 -107 -151q-81 -55 -212 -55q-205 0 -295 132q-28 41 -43 98q-14 55 -16 101q-2 58 -2 131z " />
<glyph unicode="v" horiz-adv-x="1211" d="M48 1064h355l229 -724l237 724h294l-397 -1064h-327z" />
<glyph unicode="w" horiz-adv-x="1774" d="M67 1064h330l170 -726l191 707h312l191 -707l170 726h273l-292 -1064h-336l-193 705l-193 -705h-337z" />
<glyph unicode="x" horiz-adv-x="1216" d="M57 0l346 539l-332 525h386l185 -323l187 323h312l-327 -508l353 -556h-386l-206 352l-206 -352h-312z" />
<glyph unicode="y" horiz-adv-x="1199" d="M44 1064h351l234 -678l236 678h291l-560 -1431h-321l178 388z" />
<glyph unicode="z" horiz-adv-x="1048" d="M105 0v256l457 560h-449v233h829v-233l-476 -583h480v-233h-841z" />
<glyph unicode="{" horiz-adv-x="819" d="M71 485v230q91 0 127 21q39 22 39 95v302q0 38 2 72q1 18 8 65q6 39 26 75q18 33 50 61q25 24 63 41q32 15 68 25q29 8 84 13q58 5 85 5h99v-229q-61 0 -89 -4q-35 -5 -59 -17q-29 -14 -40 -40q-12 -27 -12 -71v-283q0 -31 -1 -40q0 -3 -1.5 -16t-2.5 -23q-3 -21 -10 -42 q-5 -13 -18 -38q-13 -24 -30 -36q-14 -10 -47 -28q-28 -15 -64 -23q33 -8 57 -19q29 -13 44 -25q22 -18 31 -28q14 -15 21 -34q3 -8 7 -20.5t4 -13.5q4 -14 6 -36q2 -24 3 -35q1 -8 1 -36v-282q0 -44 12 -71q12 -26 40 -39q25 -11 60 -16q29 -4 88 -4v-229h-122 q-43 2 -101 9q-57 7 -102 25q-37 15 -74 48q-32 28 -50 61q-20 36 -26 76q-7 48 -8 67q-2 34 -2 71v302q0 72 -39 93t-127 21z" />
<glyph unicode="|" horiz-adv-x="626" d="M164 -367v1857h298v-1857h-298z" />
<glyph unicode="}" horiz-adv-x="819" d="M97 -59q59 0 88 4q34 5 61 16q29 12 41 39q11 25 11 71v282v36q0 5 2 35q1 21 8 36q2 4 4 9.5t4.5 12.5t4.5 12q7 17 20 34q9 12 31 28q17 13 43 25q25 12 57 19q-35 7 -65 23q-33 17 -46 28q-17 13 -30 36q-16 26 -20 38q-3 8 -9 42q-4 23 -4 40v39v283q0 46 -11 71 q-12 26 -41 40q-25 12 -60 17q-28 4 -89 4v229h98q29 0 87 -5q55 -5 84 -13q36 -10 68 -25q38 -17 63 -41q30 -27 49 -61q20 -35 27 -75q8 -41 9 -66q1 -18 1 -71v-302q0 -73 39 -95q36 -21 127 -21v-230q-88 0 -127 -21t-39 -93v-302q0 -54 -1 -71q-1 -25 -9 -67 q-7 -41 -27 -76q-19 -34 -49 -61q-36 -33 -75 -48q-46 -18 -102 -25q-60 -8 -100 -9h-29.5h-45.5h-48v229z" />
<glyph unicode="~" horiz-adv-x="1299" d="M130 350v248q50 56 128 92t174 36q68 0 133 -21q66 -21 107 -48t98 -48q56 -21 105 -21q74 0 148 41q73 40 127 97h19v-248q-48 -51 -124 -89q-78 -39 -180 -39q-69 0 -134 22q-74 25 -107 46t-96 47q-53 22 -106 22q-78 0 -149 -41q-69 -40 -124 -96h-19z" />
<glyph unicode="&#xa1;" horiz-adv-x="645" d="M130 -367l36 1013h275l35 -1013h-346zM143 783v281h321v-281h-321z" />
<glyph unicode="&#xa2;" horiz-adv-x="1054" d="M86 596q0 226 133 359q134 134 368 153l15 206h212l-25 -210q75 -5 174 -28v-216h-15q-110 23 -180 32l-52 -598q94 7 232 38h15v-217q-125 -31 -264 -35l-15 -202h-212l25 218q-195 38 -303 168t-108 332zM352 602q0 -104 42 -177t126 -108l49 573q-109 -22 -163 -97 t-54 -191z" />
<glyph unicode="&#xa3;" horiz-adv-x="1094" d="M103 0v191q224 111 224 315q0 24 -2 42h-222v235h134q-48 99 -48 188q0 159 133 258q134 99 360 99q138 0 256 -33v-242h-13q-136 40 -249 40q-183 0 -183 -121q0 -21 8 -48q7 -26 15 -42q8 -19 27 -50q10 -16 26 -49h325v-235h-264q0 -206 -158 -309h521v-239h-890z" />
<glyph unicode="&#xa5;" horiz-adv-x="1329" d="M59 1314h354l279 -454l284 454h294l-397 -590h243v-189h-298v-107h298v-189h-298v-239h-304v239h-300v189h300v107h-300v189h243z" />
<glyph unicode="&#xa7;" horiz-adv-x="995" d="M84 554q0 98 57 156q56 58 144 81q-172 91 -172 246q0 133 112 212q115 81 319 81q157 0 302 -40v-218h-15q-168 51 -283 51q-69 0 -105 -21t-36 -55q0 -28 28 -53t71 -44q53 -24 98 -40q54 -19 107 -46q49 -25 98 -62q46 -35 73 -86t27 -116q0 -99 -59 -160 q-59 -60 -145 -83q84 -46 130 -106q46 -59 46 -150q0 -137 -114 -215q-113 -77 -330 -77q-166 0 -299 40v218h15q168 -52 284 -52q74 0 111 21q39 22 39 60q0 29 -28 57q-27 27 -72 47q-55 25 -97 41q-49 19 -107 48q-48 24 -99 63q-45 35 -72 85q-28 53 -28 117zM334 613 q0 -45 38 -83t73 -54q56 -26 119 -52q8 -5 13 -6q82 49 82 123q0 33 -16 59t-51 49q-33 22 -67 37q-33 15 -84 36q-20 9 -25 10q-82 -46 -82 -119z" />
<glyph unicode="&#xa8;" horiz-adv-x="1146" d="M227 1213v250h274v-250h-274zM644 1213v250h275v-250h-275z" />
<glyph unicode="&#xa9;" horiz-adv-x="1707" d="M97 657q0 152 53 281q53 128 148 216q98 90 228 137q133 48 290 48q156 0 291 -48q134 -48 228 -137q95 -90 148 -216q53 -125 53 -281t-53 -281q-53 -126 -148 -216q-91 -87 -227 -137q-135 -50 -292 -50q-210 0 -374 84q-163 84 -254 241q-91 158 -91 359zM304 657 q0 -222 140 -365t374 -143q233 0 372 143q140 145 140 365q0 147 -61 260q-62 115 -179 181q-115 65 -272 65q-233 0 -374 -142q-140 -141 -140 -364zM451 657q0 97 34 171q35 75 94 121q55 42 131 66q70 22 154 22q102 0 194 -30v-203h-15q-63 25 -141 25q-182 0 -182 -172 q0 -174 182 -174q78 0 141 25h15v-202q-95 -31 -194 -31q-80 0 -154 23q-71 22 -131 67t-94 120t-34 172z" />
<glyph unicode="&#xaa;" horiz-adv-x="874" d="M55 932q0 121 104 180q46 26 116 41q66 14 117 16q64 2 137 2q0 53 -17 75q-30 34 -134 34q-114 0 -231 -36h-15v177q126 33 288 33q246 0 316 -105q17 -26 29 -72q12 -45 13 -67q1 -17 1 -71v-419h-194l-41 113q-20 -62 -76 -95q-57 -33 -145 -33q-117 0 -193 59 q-75 58 -75 168zM309 959q0 -71 98 -71q38 0 67 13q26 12 38 34q11 20 14 38q3 16 3 34v34q-44 0 -57 -1q-19 -1 -50 -3t-47 -6q-15 -4 -33 -14t-25 -24q-8 -16 -8 -34z" />
<glyph unicode="&#xab;" horiz-adv-x="1207" d="M99 600l233 424h285l-252 -420l252 -426h-285zM590 600l233 424h285l-252 -420l252 -426h-285z" />
<glyph unicode="&#xad;" horiz-adv-x="846" d="M111 480v242h625v-242h-625z" />
<glyph unicode="&#xae;" horiz-adv-x="1153" d="M78 1194q0 213 140 341q139 127 359 127q219 0 359 -128t140 -340q0 -213 -140 -341q-139 -127 -359 -127t-359 127q-140 128 -140 341zM231 1194q0 -149 93 -242q92 -92 253 -92q159 0 252 93q94 94 94 241t-94 241q-93 93 -252 93q-161 0 -253 -92q-93 -93 -93 -242z M369 965v472h179q39 0 73 -2q19 -1 58 -10q30 -7 58 -25q60 -42 60 -126q0 -100 -82 -143l97 -166h-172l-65 137h-52v-137h-154zM523 1215h56q65 0 65 54q0 55 -65 55h-56v-109z" />
<glyph unicode="&#xaf;" horiz-adv-x="1146" d="M248 1223v187h650v-187h-650z" />
<glyph unicode="&#xb0;" horiz-adv-x="972" d="M124 1163q0 149 102 242t259 93q155 0 260 -94q103 -93 103 -241t-103 -241t-260 -93t-259 93t-102 241zM338 1163q0 -65 41 -109q40 -43 106 -43q65 0 107 43t42 109q0 67 -42 110t-107 43t-107 -44q-40 -41 -40 -109z" />
<glyph unicode="&#xb1;" horiz-adv-x="1299" d="M185 0v206h929v-206h-929zM185 583v206h340v275h249v-275h340v-206h-340v-274h-249v274h-340z" />
<glyph unicode="&#xb2;" horiz-adv-x="779" d="M80 629v171q195 178 239 226q100 111 105 187q0 47 -34 72q-35 26 -100 26q-73 0 -191 -31h-9v191q116 29 241 29q184 0 274 -69t90 -182q0 -33 -9 -66t-21 -60t-36 -57q-36 -45 -42 -52q-16 -19 -52 -50q-35 -30 -54 -45q-5 -4 -24.5 -19.5t-34.5 -27.5q-40 -32 -57 -45 h334v-198h-619z" />
<glyph unicode="&#xb3;" horiz-adv-x="790" d="M80 650v191h10q114 -33 212 -33q145 0 145 84q0 48 -42 69q-29 15 -126 15h-115v184h113q79 0 113 17q38 20 38 61q0 73 -120 73q-92 0 -209 -33h-9v191q118 31 248 31q170 0 264 -59q93 -59 93 -167q0 -80 -47 -128q-49 -51 -128 -67q89 -15 142 -66t53 -136 q0 -123 -109 -190q-110 -68 -295 -68q-130 0 -231 31z" />
<glyph unicode="&#xb4;" horiz-adv-x="1146" d="M457 1213l145 277h342l-237 -277h-250z" />
<glyph unicode="&#xb5;" horiz-adv-x="1266" d="M143 -367v1431h321v-644q0 -44 1 -57q1 -15 8 -44q5 -23 20 -44q42 -61 141 -61q57 0 92 19q38 20 52 52q16 35 20 59t4 63v657h321v-1064h-235l-34 109q-19 -53 -70 -89q-50 -35 -133 -35q-140 0 -202 101l10 -453h-316z" />
<glyph unicode="&#xb7;" horiz-adv-x="384" d="M40 378v310h304v-310h-304z" />
<glyph unicode="&#xb9;" horiz-adv-x="611" d="M52 1213v193l277 84h164v-861h-254v638l-178 -54h-9z" />
<glyph unicode="&#xba;" horiz-adv-x="934" d="M59 1079q0 189 106 288q105 98 303 98q194 0 301 -96q106 -96 106 -286q0 -186 -107 -285q-106 -99 -306 -99q-193 0 -298 96t-105 284zM325 1085q0 -102 32 -154q33 -54 109 -54q77 0 110 52q33 53 33 152q0 207 -145 207q-76 0 -108 -52q-31 -50 -31 -151z" />
<glyph unicode="&#xbb;" horiz-adv-x="1207" d="M99 178l253 418l-253 428h285l233 -424l-233 -422h-285zM590 178l253 418l-253 428h285l233 -424l-233 -422h-285z" />
<glyph unicode="&#xbd;" horiz-adv-x="1920" d="M55 1196v187l323 107h166v-890h-254v672l-219 -76h-16zM86 -160l734 876l603 774h283v-15l-734 -877l-601 -774h-285v16zM1194 -11q204 177 285 271q82 95 82 174q0 49 -32 78t-102 29q-69 0 -187 -31h-15v185q122 31 246 31q183 0 269 -71t86 -191q0 -38 -5 -63 q-7 -33 -19 -59q-22 -46 -25 -52q-13 -24 -37 -51q-34 -38 -42 -46q-27 -27 -48 -46q-33 -30 -50 -44l-54 -46q-11 -9 -21.5 -17.5t-20 -16t-12.5 -10.5h344v-189h-642v165z" />
<glyph unicode="&#xbf;" horiz-adv-x="959" d="M0 -15q0 55 13 103q12 45 34 82q19 32 52 68q30 33 59 55q24 19 62 50q42 35 55 45q36 30 57 60q21 31 30 65q10 39 11 59q1 16 1 74h283q0 -59 -2 -107q-1 -35 -14 -85q-12 -46 -40 -89q-26 -39 -74 -84q-15 -16 -53 -47q-43 -36 -58 -50q-14 -13 -43 -47 q-25 -29 -36 -61q-10 -29 -10 -63q0 -73 60 -114q59 -40 173 -40q143 0 323 57h15v-245q-162 -53 -373 -53q-256 0 -390 94q-135 94 -135 273zM353 783v281h321v-281h-321z" />
<glyph unicode="&#xc0;" d="M13 0l503 1437h363l495 -1437h-348l-103 325h-512l-105 -325h-293zM252 1855h384l178 -271h-273zM487 558h363l-178 563z" />
<glyph unicode="&#xc1;" d="M13 0l503 1437h363l495 -1437h-348l-103 325h-512l-105 -325h-293zM487 558h363l-178 563zM565 1584l176 271h384l-288 -271h-272z" />
<glyph unicode="&#xc2;" d="M13 0l503 1437h363l495 -1437h-348l-103 325h-512l-105 -325h-293zM313 1584l218 271h315l218 -271h-273l-109 133l-107 -133h-262zM487 558h363l-178 563z" />
<glyph unicode="&#xc3;" d="M13 0l503 1437h363l495 -1437h-348l-103 325h-512l-105 -325h-293zM352 1584v177q93 79 213 79q62 0 158 -33q93 -32 142 -32q92 0 184 65h15v-178q-36 -32 -93 -55t-121 -23q-63 0 -158 32q-97 33 -142 33q-91 0 -183 -65h-15zM487 558h363l-178 563z" />
<glyph unicode="&#xc4;" d="M13 0l503 1437h363l495 -1437h-348l-103 325h-512l-105 -325h-293zM317 1584v252h285v-252h-285zM487 558h363l-178 563zM778 1584v252h284v-252h-284z" />
<glyph unicode="&#xc5;" d="M13 0l486 1389q-105 65 -105 199q0 122 84 193q83 70 212 70t212 -71q84 -72 84 -192q0 -122 -94 -190l482 -1398h-348l-103 325h-512l-105 -325h-293zM487 558h363l-178 563zM583 1572q0 -46 29 -75q30 -30 78 -30q47 0 76 29t29 76t-29 78q-28 29 -76 29q-49 0 -79 -30 q-28 -29 -28 -77z" />
<glyph unicode="&#xc6;" horiz-adv-x="1929" d="M-11 0l798 1437h1016v-245h-594v-328h503v-245h-503v-374h625v-245h-928v325h-446l-173 -325h-298zM585 558h321v598z" />
<glyph unicode="&#xc7;" horiz-adv-x="1226" d="M97 716q0 159 43 288q43 130 129 232q85 102 227 159q141 57 322 57q172 0 311 -42v-247h-15q-126 48 -256 48q-106 0 -188 -38t-130 -105q-50 -70 -73 -154q-24 -87 -24 -190q0 -104 24 -192q24 -87 73 -158q46 -66 131 -108q84 -41 189 -41q128 0 254 48h15v-246 q-109 -32 -250 -40q90 -57 90 -155q0 -88 -77 -145q-78 -58 -214 -58q-51 0 -114 10v157h15q49 -12 88 -12q101 0 101 82q0 58 -53 124q-154 15 -277 78q-119 61 -193 159q-72 95 -110 222q-38 126 -38 267z" />
<glyph unicode="&#xc8;" horiz-adv-x="1205" d="M164 0v1437h915v-245h-594v-328h503v-245h-503v-374h625v-245h-946zM183 1855h384l178 -271h-273z" />
<glyph unicode="&#xc9;" horiz-adv-x="1205" d="M164 0v1437h915v-245h-594v-328h503v-245h-503v-374h625v-245h-946zM497 1584l175 271h384l-288 -271h-271z" />
<glyph unicode="&#xca;" horiz-adv-x="1205" d="M164 0v1437h915v-245h-594v-328h503v-245h-503v-374h625v-245h-946zM245 1584l217 271h316l217 -271h-273l-109 133l-107 -133h-261z" />
<glyph unicode="&#xcb;" horiz-adv-x="1205" d="M164 0v1437h915v-245h-594v-328h503v-245h-503v-374h625v-245h-946zM277 1584v252h279v-252h-279zM684 1584v252h281v-252h-281z" />
<glyph unicode="&#xcc;" horiz-adv-x="655" d="M-109 1855h384l178 -271h-273zM164 0v1437h327v-1437h-327z" />
<glyph unicode="&#xcd;" horiz-adv-x="655" d="M164 0v1437h327v-1437h-327zM204 1584l176 271h384l-288 -271h-272z" />
<glyph unicode="&#xce;" horiz-adv-x="655" d="M-48 1584l218 271h315l218 -271h-273l-109 133l-107 -133h-262zM164 0v1437h327v-1437h-327z" />
<glyph unicode="&#xcf;" horiz-adv-x="655" d="M-15 1584v252h279v-252h-279zM164 0v1437h327v-1437h-327zM392 1584v252h280v-252h-280z" />
<glyph unicode="&#xd0;" horiz-adv-x="1564" d="M36 619v243h188v575h437q62 0 120 -2q38 -1 119 -11q80 -10 141 -30q63 -21 128 -59q298 -174 298 -619q0 -439 -302 -615q-64 -38 -127 -59q-70 -24 -139 -31q-73 -7 -116 -9q-56 -2 -122 -2h-437v619h-188zM544 241h136q38 0 82 2q36 2 87 13q56 13 95 34 q181 102 181 430q0 329 -187 428q-45 24 -95 34q-52 10 -83 12q-40 2 -80 2h-136v-334h274v-243h-274v-378z" />
<glyph unicode="&#xd1;" horiz-adv-x="1545" d="M164 0v1437h319l614 -915v915h284v-1437h-284l-648 944v-944h-285zM434 1584v177q93 79 214 79q61 0 157 -33q93 -32 143 -32q91 0 183 65h15v-178q-36 -32 -93 -55t-121 -23q-63 0 -158 32q-98 33 -142 33q-91 0 -183 -65h-15z" />
<glyph unicode="&#xd2;" horiz-adv-x="1581" d="M99 715q0 348 183 549t515 201q222 0 378 -93q155 -93 234 -259q77 -163 77 -391q0 -349 -182 -549q-184 -202 -515 -202q-220 0 -378 94q-155 93 -234 259q-78 165 -78 391zM353 1855h384l178 -271h-273zM445 718q0 -253 88 -380q89 -126 260 -126q172 0 260 127t88 379 q0 253 -88 380t-260 127t-260 -127t-88 -380z" />
<glyph unicode="&#xd3;" horiz-adv-x="1581" d="M99 715q0 348 183 549t515 201q222 0 378 -93q155 -93 234 -259q77 -163 77 -391q0 -349 -182 -549q-184 -202 -515 -202q-220 0 -378 94q-155 93 -234 259q-78 165 -78 391zM445 718q0 -253 88 -380q89 -126 260 -126q172 0 260 127t88 379q0 253 -88 380t-260 127 t-260 -127t-88 -380zM667 1584l176 271h384l-289 -271h-271z" />
<glyph unicode="&#xd4;" horiz-adv-x="1581" d="M99 715q0 348 183 549t515 201q222 0 378 -93q155 -93 234 -259q77 -163 77 -391q0 -349 -182 -549q-184 -202 -515 -202q-220 0 -378 94q-155 93 -234 259q-78 165 -78 391zM415 1584l217 271h316l217 -271h-273l-109 133l-107 -133h-261zM445 718q0 -253 88 -380 q89 -126 260 -126q172 0 260 127t88 379q0 253 -88 380t-260 127t-260 -127t-88 -380z" />
<glyph unicode="&#xd5;" horiz-adv-x="1581" d="M99 715q0 348 183 549t515 201q222 0 378 -93q155 -93 234 -259q77 -163 77 -391q0 -349 -182 -549q-184 -202 -515 -202q-220 0 -378 94q-155 93 -234 259q-78 165 -78 391zM445 718q0 -253 88 -380q89 -126 260 -126q172 0 260 127t88 379q0 253 -88 380t-260 127 t-260 -127t-88 -380zM453 1584v177q93 79 214 79q61 0 157 -33q93 -32 143 -32q91 0 183 65h15v-178q-36 -32 -93 -55t-121 -23q-63 0 -158 32q-97 33 -142 33q-91 0 -183 -65h-15z" />
<glyph unicode="&#xd6;" horiz-adv-x="1581" d="M99 715q0 348 183 549t515 201q222 0 378 -93q155 -93 234 -259q77 -163 77 -391q0 -349 -182 -549q-184 -202 -515 -202q-220 0 -378 94q-155 93 -234 259q-78 165 -78 391zM418 1584v252h285v-252h-285zM445 718q0 -253 88 -380q89 -126 260 -126q172 0 260 127t88 379 q0 253 -88 380t-260 127t-260 -127t-88 -380zM879 1584v252h284v-252h-284z" />
<glyph unicode="&#xd7;" horiz-adv-x="1299" d="M164 222l314 311l-314 310l188 177l305 -321l306 321l170 -166l-313 -311l313 -310l-187 -178l-306 321l-306 -321z" />
<glyph unicode="&#xd8;" horiz-adv-x="1581" d="M84 -53l187 231q-174 195 -174 538q0 346 182 548q181 201 512 201q197 0 342 -72l67 97h298l-189 -233q175 -197 175 -539q0 -230 -79 -395q-79 -166 -238 -259t-378 -93q-188 0 -342 73l-67 -97h-296zM420 718q0 -177 44 -298l526 764q-81 58 -199 58q-184 0 -277 -132 q-94 -133 -94 -392zM590 250q82 -55 201 -55q181 0 276 132q95 133 95 391q0 175 -44 296z" />
<glyph unicode="&#xd9;" horiz-adv-x="1493" d="M164 579v858h327v-910q0 -72 12 -126q12 -52 41 -97q29 -44 85 -68q57 -24 139 -24t139 24q56 24 85 68q29 45 41 97q12 54 12 126v910h285v-858q0 -53 -2 -103q-1 -25 -12 -102q-9 -64 -34 -118q-26 -57 -67 -105q-149 -180 -470 -180q-317 0 -466 180q-42 49 -66 104 q-23 52 -34 110q-12 62 -13 107q-2 68 -2 107zM315 1855h384l178 -271h-273z" />
<glyph unicode="&#xda;" horiz-adv-x="1493" d="M164 579v858h327v-910q0 -72 12 -126q12 -52 41 -97q29 -44 85 -68q57 -24 139 -24t139 24q56 24 85 68q29 45 41 97q12 54 12 126v910h285v-858q0 -53 -2 -103q-1 -25 -12 -102q-9 -64 -34 -118q-26 -57 -67 -105q-149 -180 -470 -180q-317 0 -466 180q-42 49 -66 104 q-23 52 -34 110q-12 62 -13 107q-2 68 -2 107zM629 1584l175 271h384l-288 -271h-271z" />
<glyph unicode="&#xdb;" horiz-adv-x="1493" d="M164 579v858h327v-910q0 -72 12 -126q12 -52 41 -97q29 -44 85 -68q57 -24 139 -24t139 24q56 24 85 68q29 45 41 97q12 54 12 126v910h285v-858q0 -53 -2 -103q-1 -25 -12 -102q-9 -64 -34 -118q-26 -57 -67 -105q-149 -180 -470 -180q-317 0 -466 180q-42 49 -66 104 q-23 52 -34 110q-12 62 -13 107q-2 68 -2 107zM376 1584l218 271h315l218 -271h-273l-109 133l-107 -133h-262z" />
<glyph unicode="&#xdc;" horiz-adv-x="1493" d="M164 579v858h327v-910q0 -72 12 -126q12 -52 41 -97q29 -44 85 -68q57 -24 139 -24t139 24q56 24 85 68q29 45 41 97q12 54 12 126v910h285v-858q0 -53 -2 -103q-1 -25 -12 -102q-9 -64 -34 -118q-26 -57 -67 -105q-149 -180 -470 -180q-317 0 -466 180q-42 49 -66 104 q-23 52 -34 110q-12 62 -13 107q-2 68 -2 107zM380 1584v252h285v-252h-285zM841 1584v252h284v-252h-284z" />
<glyph unicode="&#xdd;" horiz-adv-x="1318" d="M13 1437h381l303 -591l302 591h306l-482 -877v-560h-326v554zM567 1584l176 271h384l-288 -271h-272z" />
<glyph unicode="&#xde;" horiz-adv-x="1320" d="M164 0v1437h327v-218h109q65 0 135 -2q46 -1 140 -22q85 -19 151 -58q216 -126 216 -409q0 -149 -63 -257q-63 -107 -174 -169q-63 -35 -140 -53q-78 -18 -130 -21q-53 -3 -137 -3h-107v-225h-327zM491 466h117q32 0 66 2q16 1 64 12q38 9 68 26q96 64 96 216 q0 150 -96 214q-29 20 -68 29q-42 10 -64 11q-34 2 -66 2h-117v-512z" />
<glyph unicode="&#xdf;" horiz-adv-x="1323" d="M143 0v990q0 95 1 122q2 43 13 94q13 56 34 95q107 195 451 195q122 0 223 -28q98 -27 155 -75q58 -49 85 -107q28 -61 28 -130q0 -55 -16 -100q-18 -50 -41 -76q-23 -25 -54 -55q-28 -26 -52 -46q-25 -21 -41 -42q-16 -22 -16 -46q0 -26 19 -49q21 -25 48 -47 q22 -17 65 -46q38 -25 73 -56q36 -31 66 -69q32 -40 49 -89q18 -53 18 -114q0 -159 -117 -247q-118 -89 -324 -89q-125 0 -206 26v220h15q109 -34 191 -34q120 0 120 84q0 30 -18 60t-47 53q-21 16 -64 47q-19 13 -70 56q-33 28 -64 65q-30 36 -47 82q-18 48 -18 105 q0 52 16 94q16 43 39 70q25 30 50 55q20 20 50 48q23 21 39 51q16 29 16 62q0 61 -47 99q-48 39 -127 39q-111 0 -155 -81q-16 -30 -21 -68q-3 -25 -3 -117v-1001h-316z" />
<glyph unicode="&#xe0;" horiz-adv-x="1161" d="M71 304q0 196 166 281q59 30 138 45q86 16 152 19q48 2 188 2q0 44 -1 58q-2 23 -7 43q-6 22 -19 41q-46 63 -191 63q-139 0 -310 -56h-15v235q178 44 369 44q321 0 424 -151q28 -41 43 -98q14 -52 17 -103q3 -46 3 -116v-611h-243l-53 172q-22 -86 -101 -141 q-78 -54 -203 -54q-158 0 -258 86q-99 85 -99 241zM204 1490h342l146 -277h-251zM394 327q0 -56 34 -86q36 -31 99 -31q55 0 99 23q43 22 64 63q25 49 25 151v25q-89 0 -157 -7q-56 -6 -99 -28q-65 -35 -65 -110z" />
<glyph unicode="&#xe1;" horiz-adv-x="1161" d="M71 304q0 196 166 281q59 30 138 45q86 16 152 19q48 2 188 2q0 44 -1 58q-2 23 -7 43q-6 22 -19 41q-46 63 -191 63q-139 0 -310 -56h-15v235q178 44 369 44q321 0 424 -151q28 -41 43 -98q14 -52 17 -103q3 -46 3 -116v-611h-243l-53 172q-22 -86 -101 -141 q-78 -54 -203 -54q-158 0 -258 86q-99 85 -99 241zM394 327q0 -56 34 -86q36 -31 99 -31q55 0 99 23q43 22 64 63q25 49 25 151v25q-89 0 -157 -7q-56 -6 -99 -28q-65 -35 -65 -110zM459 1213l145 277h342l-237 -277h-250z" />
<glyph unicode="&#xe2;" horiz-adv-x="1161" d="M71 304q0 196 166 281q59 30 138 45q86 16 152 19q48 2 188 2q0 44 -1 58q-2 23 -7 43q-6 22 -19 41q-46 63 -191 63q-139 0 -310 -56h-15v235q178 44 369 44q321 0 424 -151q28 -41 43 -98q14 -52 17 -103q3 -46 3 -116v-611h-243l-53 172q-22 -86 -101 -141 q-78 -54 -203 -54q-158 0 -258 86q-99 85 -99 241zM222 1213l217 277h272l217 -277h-252l-109 136l-107 -136h-238zM394 327q0 -56 34 -86q36 -31 99 -31q55 0 99 23q43 22 64 63q25 49 25 151v25q-89 0 -157 -7q-56 -6 -99 -28q-65 -35 -65 -110z" />
<glyph unicode="&#xe3;" horiz-adv-x="1161" d="M71 304q0 196 166 281q59 30 138 45q86 16 152 19q48 2 188 2q0 44 -1 58q-2 23 -7 43q-6 22 -19 41q-46 63 -191 63q-139 0 -310 -56h-15v235q178 44 369 44q321 0 424 -151q28 -41 43 -98q14 -52 17 -103q3 -46 3 -116v-611h-243l-53 172q-22 -86 -101 -141 q-78 -54 -203 -54q-158 0 -258 86q-99 85 -99 241zM254 1213v166q35 34 89 60q49 24 110 24q59 0 147 -35t132 -35q86 0 168 70h15v-166q-33 -33 -85 -58q-54 -26 -114 -26t-146 35q-88 36 -131 36q-85 0 -170 -71h-15zM394 327q0 -56 34 -86q36 -31 99 -31q55 0 99 23 q43 22 64 63q25 49 25 151v25q-89 0 -157 -7q-56 -6 -99 -28q-65 -35 -65 -110z" />
<glyph unicode="&#xe4;" horiz-adv-x="1161" d="M71 304q0 196 166 281q59 30 138 45q86 16 152 19q48 2 188 2q0 44 -1 58q-2 23 -7 43q-6 22 -19 41q-46 63 -191 63q-139 0 -310 -56h-15v235q178 44 369 44q321 0 424 -151q28 -41 43 -98q14 -52 17 -103q3 -46 3 -116v-611h-243l-53 172q-22 -86 -101 -141 q-78 -54 -203 -54q-158 0 -258 86q-99 85 -99 241zM229 1213v250h273v-250h-273zM394 327q0 -56 34 -86q36 -31 99 -31q55 0 99 23q43 22 64 63q25 49 25 151v25q-89 0 -157 -7q-56 -6 -99 -28q-65 -35 -65 -110zM646 1213v250h275v-250h-275z" />
<glyph unicode="&#xe5;" horiz-adv-x="1161" d="M71 304q0 196 166 281q59 30 138 45q86 16 152 19q48 2 188 2q0 44 -1 58q-2 23 -7 43q-6 22 -19 41q-46 63 -191 63q-139 0 -310 -56h-15v235q178 44 369 44q321 0 424 -151q28 -41 43 -98q14 -52 17 -103q3 -46 3 -116v-611h-243l-53 172q-22 -86 -101 -141 q-78 -54 -203 -54q-158 0 -258 86q-99 85 -99 241zM306 1376q0 95 69 155t200 60q129 0 199 -60t70 -155q0 -96 -70 -156t-199 -60q-131 0 -200 60t-69 156zM394 327q0 -56 34 -86q36 -31 99 -31q55 0 99 23q43 22 64 63q25 49 25 151v25q-89 0 -157 -7q-56 -6 -99 -28 q-65 -35 -65 -110zM483 1376q0 -39 25 -64q26 -26 67 -26q42 0 66 25t24 65q0 38 -24 64q-24 25 -66 25t-67 -25t-25 -64z" />
<glyph unicode="&#xe6;" horiz-adv-x="1803" d="M71 306q0 180 139 265q50 31 103 46q62 18 133 25q75 8 126 9h143q0 45 -1 57q-1 14 -8 43q-6 25 -18 42q-46 63 -189 63q-152 0 -312 -56h-15v235q170 44 365 44q278 0 370 -116q27 42 110 81t213 39q131 0 234 -47q104 -47 162 -138q31 -51 46 -94q17 -48 24 -113 q8 -66 9 -111q1 -30 1 -135h-674q0 -111 72 -174t208 -63q138 0 314 54h15v-231q-166 -46 -361 -46q-188 0 -302 54t-164 169q-84 -223 -373 -223q-179 0 -275 84q-95 83 -95 237zM394 331q0 -55 36 -86q35 -31 101 -31q54 0 96 21t63 63q25 49 25 151v23q-88 0 -158 -7 q-58 -6 -98 -28q-65 -35 -65 -106zM1030 640h357q0 115 -40 173t-130 58q-179 0 -187 -231z" />
<glyph unicode="&#xe7;" horiz-adv-x="962" d="M86 529q0 261 140 405q141 145 410 145q132 0 237 -30v-245h-15q-97 35 -187 35q-249 0 -249 -306q0 -308 249 -308q90 0 187 35h15v-245q-76 -22 -191 -28q90 -57 90 -155q0 -88 -77 -145q-78 -58 -214 -58q-51 0 -114 10v157h15q50 -12 88 -12q101 0 101 82 q0 53 -57 128q-209 30 -319 169q-109 137 -109 366z" />
<glyph unicode="&#xe8;" horiz-adv-x="1182" d="M86 531q0 259 135 411q135 151 381 151q134 0 238 -48t165 -139q29 -48 47 -101q18 -54 24 -110q5 -49 7 -108q2 -70 2 -142h-674q0 -112 71 -174q72 -63 208 -63t315 56h15v-233q-166 -46 -357 -46q-283 0 -426 130q-151 139 -151 416zM225 1490h342l146 -277h-251z M409 640h357q0 116 -39 177q-39 62 -129 62q-175 0 -189 -239z" />
<glyph unicode="&#xe9;" horiz-adv-x="1182" d="M86 531q0 259 135 411q135 151 381 151q134 0 238 -48t165 -139q29 -48 47 -101q18 -54 24 -110q5 -49 7 -108q2 -70 2 -142h-674q0 -112 71 -174q72 -63 208 -63t315 56h15v-233q-166 -46 -357 -46q-283 0 -426 130q-151 139 -151 416zM409 640h357q0 116 -39 177 q-39 62 -129 62q-175 0 -189 -239zM480 1213l145 277h342l-237 -277h-250z" />
<glyph unicode="&#xea;" horiz-adv-x="1182" d="M86 531q0 259 135 411q135 151 381 151q134 0 238 -48t165 -139q29 -48 47 -101q18 -54 24 -110q5 -49 7 -108q2 -70 2 -142h-674q0 -112 71 -174q72 -63 208 -63t315 56h15v-233q-166 -46 -357 -46q-283 0 -426 130q-151 139 -151 416zM243 1213l217 277h272l217 -277 h-252l-109 136l-107 -136h-238zM409 640h357q0 116 -39 177q-39 62 -129 62q-175 0 -189 -239z" />
<glyph unicode="&#xeb;" horiz-adv-x="1182" d="M86 531q0 259 135 411q135 151 381 151q134 0 238 -48t165 -139q29 -48 47 -101q18 -54 24 -110q5 -49 7 -108q2 -70 2 -142h-674q0 -112 71 -174q72 -63 208 -63t315 56h15v-233q-166 -46 -357 -46q-283 0 -426 130q-151 139 -151 416zM250 1213v250h273v-250h-273z M409 640h357q0 116 -39 177q-39 62 -129 62q-175 0 -189 -239zM667 1213v250h275v-250h-275z" />
<glyph unicode="&#xec;" horiz-adv-x="601" d="M-69 1490h342l145 -277h-250zM143 0v1064h316v-1064h-316z" />
<glyph unicode="&#xed;" horiz-adv-x="601" d="M143 0v1064h316v-1064h-316zM185 1213l146 277h341l-236 -277h-251z" />
<glyph unicode="&#xee;" horiz-adv-x="601" d="M-52 1213l218 277h271l218 -277h-252l-109 136l-107 -136h-239zM143 0v1064h316v-1064h-316z" />
<glyph unicode="&#xef;" horiz-adv-x="601" d="M-17 1213v250h254v-250h-254zM143 0v1064h316v-1064h-316zM367 1213v250h254v-250h-254z" />
<glyph unicode="&#xf0;" horiz-adv-x="1264" d="M86 451q0 109 37 199t101 154q63 63 147 99q82 35 177 35q190 0 283 -153q-36 150 -187 323l-302 -139v154l199 92q-155 146 -348 260v15h395q106 -63 214 -157l295 136v-151l-190 -88q258 -294 258 -643q0 -154 -45 -267q-47 -119 -121 -194q-153 -155 -397 -155 q-228 0 -373 131q-143 130 -143 349zM420 460q0 -121 54 -193t153 -72q98 0 152 72t54 193t-54 193q-55 73 -152 73q-98 0 -153 -73q-54 -72 -54 -193z" />
<glyph unicode="&#xf1;" horiz-adv-x="1272" d="M143 0v1064h249l57 -183q58 206 323 206q213 0 305 -136q28 -41 43 -97q16 -58 17 -98q2 -58 2 -131v-625h-321v627q0 40 -1 51q-1 14 -8 44q-6 25 -20 46q-42 63 -147 63q-178 0 -178 -193v-638h-321zM321 1213v166q35 34 89 60q49 24 110 24q60 0 147 -35t132 -35 q86 0 168 70h15v-166q-32 -33 -85 -58q-54 -26 -114 -26t-146 35q-89 36 -131 36q-85 0 -170 -71h-15z" />
<glyph unicode="&#xf2;" horiz-adv-x="1262" d="M86 529q0 275 142 418q142 144 404 144q259 0 403 -142q142 -141 142 -414t-142 -418q-141 -144 -405 -144q-258 0 -402 142q-142 141 -142 414zM260 1490h342l145 -277h-250zM422 535q0 -342 210 -342q209 0 209 336q0 342 -211 342q-208 0 -208 -336z" />
<glyph unicode="&#xf3;" horiz-adv-x="1262" d="M86 529q0 275 142 418q142 144 404 144q259 0 403 -142q142 -141 142 -414t-142 -418q-141 -144 -405 -144q-258 0 -402 142q-142 141 -142 414zM422 535q0 -342 210 -342q209 0 209 336q0 342 -211 342q-208 0 -208 -336zM514 1213l145 277h342l-237 -277h-250z" />
<glyph unicode="&#xf4;" horiz-adv-x="1262" d="M86 529q0 275 142 418q142 144 404 144q259 0 403 -142q142 -141 142 -414t-142 -418q-141 -144 -405 -144q-258 0 -402 142q-142 141 -142 414zM277 1213l218 277h271l218 -277h-252l-109 136l-107 -136h-239zM422 535q0 -342 210 -342q209 0 209 336q0 342 -211 342 q-208 0 -208 -336z" />
<glyph unicode="&#xf5;" horiz-adv-x="1262" d="M86 529q0 275 142 418q142 144 404 144q259 0 403 -142q142 -141 142 -414t-142 -418q-141 -144 -405 -144q-258 0 -402 142q-142 141 -142 414zM309 1213v166q35 34 89 60q49 24 110 24q60 0 147 -35t132 -35q86 0 168 70h16v-166q-32 -32 -86 -58t-113 -26 q-60 0 -146 35q-88 36 -131 36q-85 0 -170 -71h-16zM422 535q0 -342 210 -342q209 0 209 336q0 342 -211 342q-208 0 -208 -336z" />
<glyph unicode="&#xf6;" horiz-adv-x="1262" d="M86 529q0 275 142 418q142 144 404 144q259 0 403 -142q142 -141 142 -414t-142 -418q-141 -144 -405 -144q-258 0 -402 142q-142 141 -142 414zM285 1213v250h273v-250h-273zM422 535q0 -342 210 -342q209 0 209 336q0 342 -211 342q-208 0 -208 -336zM701 1213v250h275 v-250h-275z" />
<glyph unicode="&#xf8;" horiz-adv-x="1260" d="M86 531q0 275 143 418q144 144 401 144q110 0 203 -29l63 117h220l-128 -193q187 -145 187 -457q0 -275 -143 -417q-145 -143 -402 -143q-111 0 -204 29l-63 -117h-218l126 193q-185 143 -185 455zM403 525q0 -128 25 -204l296 544q-45 16 -90 16q-126 0 -178 -88 q-53 -89 -53 -268zM535 199q35 -16 90 -16q125 0 179 88t54 266q0 125 -27 204z" />
<glyph unicode="&#xf9;" horiz-adv-x="1266" d="M143 439v625h321v-627q0 -40 1 -52q1 -14 8 -43q6 -23 20 -46q47 -63 145 -63q46 0 76 13q32 14 48 33q19 22 27 48q10 31 11 50q2 30 2 49v638h321v-1064h-248l-57 183q-27 -96 -107 -151q-81 -55 -212 -55q-205 0 -295 132q-28 41 -43 98q-14 55 -16 101q-2 58 -2 131z M262 1490h342l145 -277h-250z" />
<glyph unicode="&#xfa;" horiz-adv-x="1266" d="M143 439v625h321v-627q0 -40 1 -52q1 -14 8 -43q6 -23 20 -46q47 -63 145 -63q46 0 76 13q32 14 48 33q19 22 27 48q10 31 11 50q2 30 2 49v638h321v-1064h-248l-57 183q-27 -96 -107 -151q-81 -55 -212 -55q-205 0 -295 132q-28 41 -43 98q-14 55 -16 101q-2 58 -2 131z M516 1213l145 277h342l-237 -277h-250z" />
<glyph unicode="&#xfb;" horiz-adv-x="1266" d="M143 439v625h321v-627q0 -40 1 -52q1 -14 8 -43q6 -23 20 -46q47 -63 145 -63q46 0 76 13q32 14 48 33q19 22 27 48q10 31 11 50q2 30 2 49v638h321v-1064h-248l-57 183q-27 -96 -107 -151q-81 -55 -212 -55q-205 0 -295 132q-28 41 -43 98q-14 55 -16 101q-2 58 -2 131z M279 1213l218 277h271l218 -277h-252l-109 136l-107 -136h-239z" />
<glyph unicode="&#xfc;" horiz-adv-x="1266" d="M143 439v625h321v-627q0 -40 1 -52q1 -14 8 -43q6 -23 20 -46q47 -63 145 -63q46 0 76 13q32 14 48 33q19 22 27 48q10 31 11 50q2 30 2 49v638h321v-1064h-248l-57 183q-27 -96 -107 -151q-81 -55 -212 -55q-205 0 -295 132q-28 41 -43 98q-14 55 -16 101q-2 58 -2 131z M287 1213v250h273v-250h-273zM703 1213v250h275v-250h-275z" />
<glyph unicode="&#xfd;" horiz-adv-x="1201" d="M44 1064h351l234 -678l236 678h291l-560 -1431h-321l178 388zM502 1213l146 277h342l-237 -277h-251z" />
<glyph unicode="&#xfe;" horiz-adv-x="1304" d="M143 -367v1857h316v-592q30 92 114 140q86 49 203 49q107 0 194 -41q84 -40 139 -116q56 -78 82 -173q28 -103 28 -216q0 -94 -17 -179q-16 -78 -56 -154q-39 -72 -91 -122q-55 -52 -130 -80q-78 -29 -170 -29q-109 0 -186 41q-75 40 -110 125v-510h-316zM457 529 q0 -317 214 -317t214 317q0 319 -214 319t-214 -319z" />
<glyph unicode="&#xff;" horiz-adv-x="1201" d="M44 1064h351l234 -678l236 678h291l-560 -1431h-321l178 388zM273 1213v250h273v-250h-273zM690 1213v250h275v-250h-275z" />
<glyph unicode="&#x2dc;" horiz-adv-x="1146" d="M252 1213v166q35 34 89 60q49 24 110 24q59 0 147 -35t132 -35q86 0 168 70h15v-166q-32 -33 -85 -58q-54 -26 -113 -26q-61 0 -147 35q-88 36 -131 36q-85 0 -170 -71h-15z" />
<glyph unicode="&#x2000;" horiz-adv-x="927" />
<glyph unicode="&#x2001;" horiz-adv-x="1855" />
<glyph unicode="&#x2002;" horiz-adv-x="927" />
<glyph unicode="&#x2003;" horiz-adv-x="1855" />
<glyph unicode="&#x2004;" horiz-adv-x="618" />
<glyph unicode="&#x2005;" horiz-adv-x="463" />
<glyph unicode="&#x2006;" horiz-adv-x="309" />
<glyph unicode="&#x2007;" horiz-adv-x="309" />
<glyph unicode="&#x2008;" horiz-adv-x="231" />
<glyph unicode="&#x2009;" horiz-adv-x="371" />
<glyph unicode="&#x200a;" horiz-adv-x="103" />
<glyph unicode="&#x2010;" horiz-adv-x="846" d="M111 480v242h625v-242h-625z" />
<glyph unicode="&#x2011;" horiz-adv-x="846" d="M111 480v242h625v-242h-625z" />
<glyph unicode="&#x2012;" horiz-adv-x="846" d="M111 480v242h625v-242h-625z" />
<glyph unicode="&#x2013;" horiz-adv-x="1283" d="M141 487v229h1001v-229h-1001z" />
<glyph unicode="&#x2014;" horiz-adv-x="2009" d="M141 487v229h1727v-229h-1727z" />
<glyph unicode="&#x2018;" horiz-adv-x="611" d="M97 951l146 539h225l-76 -539h-295z" />
<glyph unicode="&#x2019;" horiz-adv-x="618" d="M124 951l77 539h294l-145 -539h-226z" />
<glyph unicode="&#x201c;" horiz-adv-x="997" d="M103 951l140 539h214l-77 -539h-277zM499 951l139 539h214l-76 -539h-277z" />
<glyph unicode="&#x201d;" horiz-adv-x="997" d="M124 951l77 539h277l-140 -539h-214zM520 951l76 539h277l-139 -539h-214z" />
<glyph unicode="&#x201e;" horiz-adv-x="953" d="M97 -237l77 539h277l-140 -539h-214zM493 -237l76 539h277l-139 -539h-214z" />
<glyph unicode="&#x2022;" horiz-adv-x="659" d="M117 397v415h414v-415h-414z" />
<glyph unicode="&#x2026;" horiz-adv-x="1841" d="M201 0v287h296v-287h-296zM772 0v287h296v-287h-296zM1345 0v287h296v-287h-296z" />
<glyph unicode="&#x202f;" horiz-adv-x="371" />
<glyph unicode="&#x2039;" horiz-adv-x="716" d="M99 600l233 424h285l-252 -420l252 -426h-285z" />
<glyph unicode="&#x203a;" horiz-adv-x="716" d="M99 178l253 418l-253 428h285l233 -424l-233 -422h-285z" />
<glyph unicode="&#x205f;" horiz-adv-x="463" />
<glyph unicode="&#x20ac;" horiz-adv-x="1262" d="M65 418v182h149q-2 22 -2 55q0 34 2 60h-149v181h180q62 198 220 315q159 117 416 117q149 0 269 -37v-236h-13q-118 42 -235 42q-236 0 -325 -201h470l-42 -181h-470q-2 -22 -2 -54q0 -35 2 -61h445l-42 -182h-359q91 -200 327 -200q112 0 231 42h13v-237 q-117 -36 -271 -36q-257 0 -417 115t-217 316h-180z" />
<glyph unicode="&#x2122;" horiz-adv-x="1639" d="M40 1259v178h548v-178h-162v-457h-223v457h-163zM699 802v635h304l122 -360l123 360h298v-635h-213v421l-135 -382h-176l-136 382v-421h-187z" />
<glyph unicode="&#x25fc;" horiz-adv-x="1060" d="M0 0v1060h1060v-1060h-1060z" />
</font>
</defs>
</svg>
