<?xml version="1.0" standalone="no"?>
<!DOCTYPE svg PUBLIC "-//W3C//DTD SVG 1.1//EN" "http://www.w3.org/Graphics/SVG/1.1/DTD/svg11.dtd" >
<svg xmlns="http://www.w3.org/2000/svg">
<metadata></metadata>
<defs>
<font id="berninosansregular" horiz-adv-x="1736" >
<font-face units-per-em="2048" ascent="1642" descent="-406" />
<missing-glyph horiz-adv-x="532" />
<glyph horiz-adv-x="2048" />
<glyph horiz-adv-x="2048" />
<glyph unicode="&#xd;" horiz-adv-x="2048" />
<glyph unicode=" "  horiz-adv-x="532" />
<glyph unicode="&#x09;" horiz-adv-x="532" />
<glyph unicode="&#xa0;" horiz-adv-x="532" />
<glyph unicode="!" horiz-adv-x="794" d="M180 1540h451l-45 -1073h-361zM201 0v352h409v-352h-409z" />
<glyph unicode="&#x22;" horiz-adv-x="1077" d="M164 995v602h340l-98 -602h-242zM594 995v602h340l-98 -602h-242z" />
<glyph unicode="#" horiz-adv-x="1771" d="M172 266l27 281h209l30 315h-207l29 281h207l29 266h333l-28 -266h252l28 266h334l-29 -266h209l-28 -281h-209l-31 -315h207l-27 -281h-209l-26 -266h-336l27 266h-250l-27 -266h-334l27 266h-207zM741 547h250l33 315h-252z" />
<glyph unicode="%" horiz-adv-x="1935" d="M94 1071q0 164 114.5 266.5t283.5 102.5t283 -102.5t114 -266.5q0 -163 -114 -266t-283 -103t-283.5 103t-114.5 266zM178 0v16l692 760l516 633h371v-16l-692 -760l-516 -633h-371zM377 1071q0 -61 32 -98t83 -37t82.5 37t31.5 98t-31.5 98t-82.5 37t-83 -37t-32 -98z M1047 338q0 163 114 266t283 103q170 0 283.5 -103t113.5 -266q0 -165 -113.5 -267t-283.5 -102q-169 0 -283 102.5t-114 266.5zM1329 338q0 -61 32 -98t83 -37t83 37t32 98t-32 98t-83 37t-83 -37t-32 -98z" />
<glyph unicode="&#x26;" horiz-adv-x="1712" d="M70 393q0 150 80 246t239 164q-101 98 -148.5 179.5t-47.5 184.5q0 180 135 291t381 111q237 0 366 -102t129 -263q0 -69 -25 -130t-73 -111.5t-99 -88.5t-122 -79l250 -246q43 102 65 274h373q-29 -264 -193 -479l332 -328v-16h-471l-119 123q-164 -148 -483 -148 q-284 0 -426.5 109t-142.5 309zM487 426q0 -80 60 -126t164 -46q117 0 211 57l-320 303q-115 -87 -115 -188zM582 1180q0 -51 30.5 -103.5t96.5 -118.5q47 35 77.5 64t54 70t23.5 84q0 62 -41 96.5t-104 34.5q-62 0 -99.5 -33.5t-37.5 -93.5z" />
<glyph unicode="'" horiz-adv-x="684" d="M164 995v602h377l-99 -602h-278z" />
<glyph unicode="(" horiz-adv-x="778" d="M90 647q0 116 18.5 231t48 206.5t65.5 175t72 143.5t65.5 104.5t48.5 66.5l18 23h291q-10 -15 -26 -43t-58 -122.5t-74 -197.5t-58 -263t-26 -324t25 -322t60.5 -267t71 -194t60.5 -126l25 -41h-291q-7 8 -19 23t-47 65.5t-66.5 106t-70.5 142.5t-67 176t-47 205t-19 232 z" />
<glyph unicode=")" horiz-adv-x="778" d="M61 -303q10 15 26 43t58 122.5t74 197.5t58 263t26 324t-25 322t-60.5 267t-71 194t-60.5 126l-25 41h291q7 -8 19 -23t47 -65.5t66.5 -106t70.5 -142.5t67 -176t47 -205t19 -232t-18.5 -231t-48 -206.5t-65.5 -175t-72 -143.5t-65.5 -104.5t-48.5 -66.5l-18 -23h-291z " />
<glyph unicode="*" horiz-adv-x="1196" d="M106 1212l91 271l266 -94l-8 282h286l-8 -282l266 94l91 -271l-275 -82l172 -225l-229 -168l-160 234l-160 -234l-229 168l172 225z" />
<glyph unicode="+" horiz-adv-x="1392" d="M123 430v295h393v430h361v-430h393v-295h-393v-430h-361v430h-393z" />
<glyph unicode="," horiz-adv-x="671" d="M82 -254l82 647h409l-172 -647h-319z" />
<glyph unicode="-" horiz-adv-x="909" d="M115 492v311h680v-311h-680z" />
<glyph unicode="." horiz-adv-x="663" d="M131 0v393h410v-393h-410z" />
<glyph unicode="/" horiz-adv-x="1019" d="M25 -57l630 1654h340l-630 -1654h-340z" />
<glyph unicode="0" horiz-adv-x="1441" d="M123 700q0 736 602 736q594 0 594 -727q0 -736 -602 -736q-594 0 -594 727zM555 705q0 -166 16.5 -261.5t52 -137.5t97.5 -42t97.5 42t52 137.5t16.5 261.5t-16.5 261.5t-52 137t-97.5 41.5t-97.5 -41.5t-52 -137t-16.5 -261.5z" />
<glyph unicode="1" horiz-adv-x="927" d="M61 958v314l439 137h266v-1409h-416v1047l-274 -89h-15z" />
<glyph unicode="2" horiz-adv-x="1183" d="M104 0v279q256 249 318 315q160 171 197 281q14 42 14 83q0 158 -201 158q-57 0 -132 -12t-121 -24l-46 -13h-16v311q174 45 383 45q292 0 433.5 -110.5t141.5 -296.5q0 -56 -13.5 -110t-33.5 -98.5t-55 -93t-66 -84t-80.5 -81.5t-84.5 -76t-90.5 -77t-86.5 -74h516v-322 h-977z" />
<glyph unicode="3" horiz-adv-x="1206" d="M104 35v311h15q180 -53 336 -53q219 0 219 137q0 78 -62 113q-23 13 -60.5 20t-61 7.5t-72.5 0.5h-180v295h176q45 0 67.5 1t53 7.5t53.5 20.5q57 33 57 102q0 119 -184 119q-64 0 -145.5 -13t-131.5 -27l-49 -13h-16v311q19 5 53.5 13.5t137 22t200.5 13.5 q270 0 418.5 -94.5t148.5 -271.5q0 -129 -74.5 -210t-197.5 -112q140 -22 221.5 -106.5t81.5 -222.5q0 -200 -171.5 -310t-465.5 -110q-99 0 -191 12t-134 24z" />
<glyph unicode="4" horiz-adv-x="1343" d="M82 258v299l534 852h453v-842h182v-309h-182v-258h-369v258h-618zM424 567h276v441z" />
<glyph unicode="5" horiz-adv-x="1234" d="M129 37v313h14q199 -57 357 -57q111 0 163 37t52 112q0 78 -62 114t-207 36q-52 0 -121.5 -4t-112.5 -8l-44 -5h-14l41 834h868v-317h-543l-14 -215q67 8 137 8q230 0 363 -114t133 -322q0 -227 -163 -345t-464 -118q-101 0 -196.5 12.5t-141.5 25.5z" />
<glyph unicode="6" horiz-adv-x="1386" d="M123 637q0 786 741 786q82 0 162.5 -9.5t119.5 -18.5l40 -9v-315h-15q-153 45 -292 45q-178 0 -257 -93.5t-79 -272.5q71 159 307 159q198 0 320 -116.5t122 -325.5q0 -228 -151 -361t-428 -133q-333 0 -475 201q-115 161 -115 463zM551 453q0 -88 39.5 -139.5 t122.5 -51.5q82 0 120.5 51t38.5 138q0 88 -39 138t-122 50q-82 0 -121 -49.5t-39 -136.5z" />
<glyph unicode="7" horiz-adv-x="1167" d="M53 1087v322h1034v-242l-440 -1167h-452l458 1087h-600z" />
<glyph unicode="8" horiz-adv-x="1370" d="M92 352q0 125 77.5 212t217.5 124q-256 99 -256 348q0 187 142.5 293.5t418.5 106.5q263 0 405 -97.5t142 -265.5q0 -119 -70 -197.5t-186 -109.5q140 -43 217.5 -141.5t77.5 -233.5q0 -187 -153.5 -302.5t-450.5 -115.5q-281 0 -431.5 103t-150.5 276zM508 416 q0 -78 49 -125t131 -47q78 0 126 42.5t48 108.5q0 42 -21 77t-59 59.5t-72.5 39.5t-78.5 29q-57 -27 -90 -74t-33 -110zM543 1038q0 -49 30 -89t68.5 -62t87.5 -37q98 56 98 170q0 65 -37 103t-108 38q-67 0 -103 -34t-36 -89z" />
<glyph unicode="9" horiz-adv-x="1386" d="M94 942q0 228 151.5 361t428.5 133q333 0 475 -201q115 -161 115 -463q0 -786 -742 -786q-82 0 -162 9t-120 19l-39 9v315h14q154 -45 293 -45q178 0 257 93.5t79 272.5q-71 -159 -307 -159q-199 0 -321 116.5t-122 325.5zM514 961q0 -89 39.5 -140t122.5 -51 q82 0 121 49.5t39 134.5q0 89 -40.5 141t-123.5 52q-82 0 -120 -50.5t-38 -135.5z" />
<glyph unicode=":" horiz-adv-x="770" d="M180 0v377h410v-377h-410zM180 762v377h410v-377h-410z" />
<glyph unicode=";" horiz-adv-x="770" d="M98 -254l82 647h410l-172 -647h-320zM180 762v377h410v-377h-410z" />
<glyph unicode="&#x3c;" horiz-adv-x="1392" d="M180 414v327l959 344v-311l-639 -192l639 -201v-311z" />
<glyph unicode="=" horiz-adv-x="1392" d="M188 201v278h1016v-278h-1016zM188 676v278h1016v-278h-1016z" />
<glyph unicode="&#x3e;" horiz-adv-x="1392" d="M254 70v311l639 192l-639 201v311l958 -344v-327z" />
<glyph unicode="?" horiz-adv-x="1212" d="M115 1184v315q19 6 54.5 15.5t145.5 25.5t220 16q286 0 440.5 -100.5t154.5 -298.5q0 -61 -16 -114.5t-38 -90.5t-58 -74.5t-63.5 -58.5t-66.5 -50t-57 -44q-30 -25 -50 -51t-30 -46.5t-15 -51.5t-6 -50t-1 -59h-364q0 77 3 118t15 92t39 91t74 84q19 18 67.5 58t72.5 63 t46.5 62t22.5 79q0 64 -54 97.5t-157 33.5q-72 0 -162.5 -15.5t-145.5 -30.5l-55 -15h-16zM344 0v352h410v-352h-410z" />
<glyph unicode="@" horiz-adv-x="2052" d="M164 596q0 178 66.5 334t183.5 267.5t284 176t361 64.5q185 0 341.5 -58t262.5 -158t165.5 -233.5t59.5 -283.5q0 -146 -53.5 -263t-156.5 -185.5t-238 -68.5q-108 0 -174 42t-82 110q-2 -6 -6.5 -16.5t-23.5 -36.5t-43 -46t-68 -36.5t-97 -16.5q-149 0 -242.5 114.5 t-93.5 303.5q0 192 96 309t248 117q83 0 139.5 -37.5t82.5 -101.5l61 119h176v-488q0 -22 0.5 -34t2 -28.5t5.5 -25.5t10.5 -18t17.5 -13t26 -4q63 0 103 72.5t40 198.5q0 155 -62.5 275t-190.5 190.5t-306 70.5q-280 0 -452.5 -166t-172.5 -436t182.5 -428t522.5 -158 q136 0 277.5 26t214.5 52l73 25h16v-246q-34 -9 -92 -22.5t-216.5 -36.5t-293.5 -23q-226 0 -407.5 60t-300.5 167.5t-182.5 254t-63.5 319.5zM913 610q0 -93 25.5 -138.5t85.5 -45.5t85.5 45.5t25.5 138.5t-25.5 139t-85.5 46t-85.5 -46t-25.5 -139z" />
<glyph unicode="A" horiz-adv-x="1540" d="M8 0l520 1540h492l512 -1540h-451l-92 311h-508l-96 -311h-377zM571 606h330l-160 545z" />
<glyph unicode="B" horiz-adv-x="1490" d="M164 0v1540h622q62 0 98.5 -1.5t96 -7.5t109 -22.5t90.5 -42.5q155 -96 155 -301q0 -64 -16 -117.5t-41 -87.5t-55.5 -60t-61 -39.5t-55.5 -21.5t-41 -10l-16 -2q8 0 21.5 -1t52.5 -8.5t74.5 -20.5t79 -42t74.5 -68t52.5 -102.5t21.5 -142.5q0 -241 -204 -360 q-50 -29 -102.5 -47t-118.5 -25t-110 -8.5t-128 -1.5h-598zM557 287h229q100 0 148 32q74 50 74 142q0 97 -90 145q-34 17 -64 21t-100 4h-197v-344zM557 946h168q86 0 127 25q66 40 66 129t-66 129q-39 24 -127 24h-168v-307z" />
<glyph unicode="C" horiz-adv-x="1327" d="M98 766q0 169 48.5 310.5t144 249.5t251 169t355.5 61q84 0 167 -10t124 -20l41 -10v-316h-17q-123 45 -258 45q-106 0 -185.5 -37t-126.5 -102.5t-70 -148.5t-23 -183q0 -101 23 -185t70 -151.5t126.5 -105t185.5 -37.5q59 0 123.5 11.5t99.5 22.5l35 11h17v-315 q-144 -41 -332 -41q-161 0 -293.5 39t-225.5 109t-156.5 168t-93.5 215t-30 251z" />
<glyph unicode="D" horiz-adv-x="1650" d="M164 0v1540h508q80 0 132 -2.5t133.5 -12.5t156 -35t141.5 -65t121 -95t99.5 -133.5t71 -187.5t25.5 -239t-25.5 -239t-71 -187.5t-99.5 -133.5t-121 -95t-141.5 -65t-156 -35t-133.5 -12.5t-132 -2.5h-508zM582 311h114q47 0 76 1.5t77 12t85 31.5q172 95 172 414 q0 327 -180 418q-82 41 -230 41h-114v-918z" />
<glyph unicode="E" horiz-adv-x="1335" d="M164 0v1540h1040v-315h-622v-279h524v-315h-524v-316h655v-315h-1073z" />
<glyph unicode="F" horiz-adv-x="1253" d="M164 0v1540h1024v-323h-598v-361h532v-324h-532v-532h-426z" />
<glyph unicode="G" horiz-adv-x="1589" d="M98 756q0 202 63 355t182.5 250.5t286 146t378.5 48.5q100 0 200.5 -10t150.5 -20l50 -10v-320h-16q-181 49 -365 49q-250 0 -364.5 -118.5t-114.5 -356.5t104.5 -364.5t296.5 -126.5q25 0 54 2t45 4l16 2v245h-221v312h622v-787q-9 -3 -26 -8.5t-71.5 -20t-112 -25 t-142.5 -19.5t-168 -9q-194 0 -348.5 47.5t-267 142t-172.5 244.5t-60 347z" />
<glyph unicode="H" horiz-adv-x="1687" d="M164 0v1540h426v-594h508v594h426v-1540h-426v631h-508v-631h-426z" />
<glyph unicode="I" horiz-adv-x="753" d="M164 0v1540h426v-1540h-426z" />
<glyph unicode="J" horiz-adv-x="1011" d="M41 12v316h16q96 -25 172 -25q116 0 160 66q16 23 23.5 55t8.5 58.5t1 82.5v975h426v-938q0 -67 -1.5 -105.5t-9.5 -99.5t-27.5 -112.5t-51.5 -96.5q-142 -200 -490 -200q-62 0 -118.5 6t-82.5 12z" />
<glyph unicode="K" horiz-adv-x="1556" d="M164 0v1540h418v-618l499 618h426l-499 -610l512 -930h-471l-328 625l-139 -150v-475h-418z" />
<glyph unicode="L" horiz-adv-x="1159" d="M164 0v1540h426v-1212h545v-328h-971z" />
<glyph unicode="M" horiz-adv-x="2179" d="M164 0v1540h573l369 -975l352 975h557v-1540h-393v1130l-377 -1056h-336l-377 1056v-1130h-368z" />
<glyph unicode="N" horiz-adv-x="1691" d="M164 0v1540h418l577 -868v868h369v-1540h-369l-627 909v-909h-368z" />
<glyph unicode="O" d="M98 764q0 242 89 423.5t265.5 283.5t421.5 102q185 0 330.5 -58.5t240 -165t144 -252t49.5 -321.5q0 -242 -89 -423.5t-265.5 -283.5t-421.5 -102q-185 0 -330.5 58.5t-240 165t-144 252t-49.5 321.5zM549 770q0 -491 319 -491q320 0 320 491q0 492 -320 492 q-319 0 -319 -492z" />
<glyph unicode="P" horiz-adv-x="1482" d="M164 0v1540h520q64 0 104.5 -1.5t110 -9t133 -27.5t119.5 -52q124 -69 187 -187.5t63 -273.5q0 -172 -74 -292.5t-201 -188.5q-70 -38 -160.5 -57.5t-144.5 -22t-141 -2.5h-90v-426h-426zM590 737h90q127 0 184 37q44 28 69 82.5t25 126.5t-25 126.5t-69 82.5 q-57 37 -184 37h-90v-492z" />
<glyph unicode="Q" d="M98 764q0 242 89 423.5t265.5 283.5t421.5 102q185 0 330.5 -58.5t240 -165t144 -252t49.5 -321.5q0 -226 -79.5 -401t-229.5 -277l236 -327h-467l-131 202q-53 -6 -105 -6q-185 0 -330.5 58.5t-240 165t-144 252t-49.5 321.5zM549 770q0 -491 319 -491q320 0 320 491 q0 492 -320 492q-319 0 -319 -492z" />
<glyph unicode="R" horiz-adv-x="1523" d="M164 0v1540h594q71 0 114.5 -2t115 -11t133.5 -32.5t116 -60.5q180 -126 180 -383q0 -321 -274 -447l340 -604h-467l-262 532h-181v-532h-409zM573 844h189q115 0 164 33q73 52 73 159q0 111 -73 160q-51 33 -164 33h-189v-385z" />
<glyph unicode="S" horiz-adv-x="1310" d="M111 1098q0 219 163.5 338.5t454.5 119.5q104 0 207.5 -15t155.5 -31l51 -15v-311h-17q-25 9 -66 22t-144.5 34.5t-178.5 21.5q-92 0 -136 -29.5t-44 -81.5q0 -36 22.5 -65.5t61 -52t88 -44t104 -45.5t109 -51.5t104 -67t88 -88t61 -118t22.5 -152.5q0 -233 -170.5 -358 t-483.5 -125q-117 0 -228 17t-163 35l-53 17v316h16q28 -10 75.5 -25t163 -40t195.5 -25q96 0 148.5 33t52.5 94q0 49 -36.5 88t-94.5 69t-128.5 60.5t-140.5 71.5t-128 91.5t-94.5 131t-36.5 180.5z" />
<glyph unicode="T" horiz-adv-x="1277" d="M41 1217v323h1196v-323h-385v-1217h-426v1217h-385z" />
<glyph unicode="U" horiz-adv-x="1630" d="M164 631v909h426v-975q0 -64 10 -111.5t36.5 -89t78.5 -63.5t129 -22t129 22t78.5 63.5t36.5 89t10 111.5v975h368v-909q0 -68 -2.5 -109t-12.5 -108.5t-37 -127.5t-71 -114q-165 -205 -530 -205q-184 0 -312.5 50t-213.5 155q-30 37 -52 76t-35 81.5t-20.5 77t-11 81 t-4 72t-0.5 71.5z" />
<glyph unicode="V" horiz-adv-x="1564" d="M25 1540h458l328 -1098l352 1098h377l-549 -1540h-434z" />
<glyph unicode="W" horiz-adv-x="2285" d="M41 1540h434l238 -1073l254 1049h434l246 -1049l245 1073h353l-402 -1540h-450l-254 1049l-254 -1049h-451z" />
<glyph unicode="X" horiz-adv-x="1564" d="M33 0l479 786l-463 754h512l266 -479l275 479h405l-454 -737l487 -803h-512l-291 528l-299 -528h-405z" />
<glyph unicode="Y" horiz-adv-x="1470" d="M8 1540h496l282 -573l279 573h397l-512 -946v-594h-426v586z" />
<glyph unicode="Z" horiz-adv-x="1368" d="M98 0v311l656 910h-639v319h1138v-295l-663 -926h680v-319h-1172z" />
<glyph unicode="[" horiz-adv-x="925" d="M164 -303v1900h663v-294h-295v-1311h295v-295h-663z" />
<glyph unicode="\" horiz-adv-x="1019" d="M25 1597h340l630 -1654h-340z" />
<glyph unicode="]" horiz-adv-x="925" d="M98 -8h295v1311h-295v294h664v-1900h-664v295z" />
<glyph unicode="^" horiz-adv-x="1134" d="M49 786l311 754h414l307 -754h-376l-148 435l-156 -435h-352z" />
<glyph unicode="_" horiz-adv-x="737" d="M-8 -33h753v-270h-753v270z" />
<glyph unicode="`" horiz-adv-x="1228" d="M188 1597h439l135 -311h-328z" />
<glyph unicode="a" horiz-adv-x="1302" d="M66 338q0 228 208 321q91 40 203 51t289 11q0 31 -1 46t-6.5 34t-17.5 35q-46 57 -192 57q-82 0 -170 -15.5t-135 -31.5l-47 -15h-17v291q20 5 56 13.5t147.5 22t222.5 13.5q184 0 309.5 -39.5t186.5 -132.5q31 -46 47 -110t19 -110t3 -115v-664h-319l-61 184 q-31 -101 -118.5 -155t-217.5 -54q-174 0 -281.5 95.5t-107.5 267.5zM479 377q0 -52 32.5 -79.5t88.5 -27.5q51 0 89 21.5t56 56.5q21 43 21 127v29q-169 0 -229 -33q-58 -32 -58 -94z" />
<glyph unicode="b" horiz-adv-x="1449" d="M139 0v1597h410v-614q34 95 121.5 146t214.5 51q225 0 354 -157.5t129 -434.5q0 -287 -139 -450t-385 -163q-262 0 -352 185l-86 -160h-267zM549 571q0 -68 9 -119t30 -92.5t59.5 -63.5t93.5 -22t94 22t60 63.5t30 92.5t9 119t-9 119t-30 92.5t-60 63.5t-94 22t-93.5 -22 t-59.5 -63.5t-30 -92.5t-9 -119z" />
<glyph unicode="c" horiz-adv-x="1052" d="M82 573q0 282 157.5 440t458.5 158q68 0 133 -8t96 -16l31 -8v-308h-16q-94 29 -188 29q-130 0 -184 -70t-54 -212t54 -212.5t184 -70.5q42 0 89 7.5t73 14.5l26 7h16v-308q-102 -32 -258 -32q-303 0 -460.5 154t-157.5 435z" />
<glyph unicode="d" horiz-adv-x="1449" d="M82 565q0 126 30 235t90 195t160 135.5t230 49.5q240 0 309 -168v585h410v-1597h-336l-66 172q-35 -101 -127 -149t-215 -48t-217.5 46t-152 128t-86.5 187t-29 229zM516 580q0 -68 9 -119t30 -92.5t60 -63.5t94 -22t93.5 22t59.5 63.5t30 92.5t9 119t-9 119t-30 92.5 t-59.5 63.5t-93.5 22t-94 -22t-60 -63.5t-30 -92.5t-9 -119z" />
<glyph unicode="e" horiz-adv-x="1318" d="M82 575q0 286 150 449.5t436 163.5q317 0 458 -209q64 -95 79.5 -199.5t15.5 -312.5h-721q0 -94 70.5 -147.5t203.5 -53.5q69 0 158 14.5t144 29.5l54 14h17v-291q-20 -5 -56.5 -13.5t-145 -22t-212.5 -13.5q-174 0 -288 36t-191 107q-172 156 -172 448zM496 700h315 q0 102 -32 160t-115 58q-87 0 -127.5 -61t-40.5 -157z" />
<glyph unicode="f" horiz-adv-x="1015" d="M33 836v303h213v37q0 45 2 74t15.5 82.5t39.5 97.5q53 87 156 131.5t289 44.5q56 0 108.5 -4t77.5 -8l24 -5v-303h-16q-85 17 -151 17q-93 0 -119 -54q-17 -35 -17 -90v-20h303v-303h-303v-836h-409v836h-213z" />
<glyph unicode="g" horiz-adv-x="1449" d="M82 598q0 264 141.5 423t399.5 159q118 0 200 -41t135 -140l91 156h262v-950q0 -57 -1.5 -90t-7.5 -85.5t-22.5 -98t-42.5 -87.5q-44 -69 -117.5 -119t-161 -76.5t-173 -38t-175.5 -11.5q-109 0 -219.5 16.5t-166.5 32.5l-56 16v328h16q8 -3 21.5 -9t57.5 -21t89 -26 t110 -20.5t126 -9.5q108 0 182.5 26.5t106.5 71.5q15 22 22.5 52.5t8.5 48.5t1 51v73q-70 -159 -323 -159q-247 0 -375.5 140t-128.5 388zM516 612q0 -45 4 -79.5t16 -71.5t32.5 -61.5t56 -40t84.5 -15.5t84.5 15.5t56 40t32.5 61.5t15.5 71.5t3.5 79.5t-3.5 79.5t-15.5 72 t-32.5 62t-56 40t-84.5 15.5t-84.5 -15.5t-56 -40t-32.5 -61.5t-16 -72t-4 -80z" />
<glyph unicode="h" horiz-adv-x="1413" d="M139 0v1597h410v-614q35 97 116.5 147t223.5 50q229 0 328 -144q24 -34 38 -70t19.5 -88.5t6.5 -87.5t1 -114v-676h-418v676q0 89 -24 123q-37 49 -135 49q-42 0 -72.5 -11.5t-46 -27t-24.5 -40.5t-11 -44t-2 -45v-680h-410z" />
<glyph unicode="i" horiz-adv-x="688" d="M139 0v1155h410v-1155h-410zM139 1286v311h410v-311h-410z" />
<glyph unicode="j" horiz-adv-x="704" d="M-90 -82h16q50 -8 97 -8q92 0 116 49q17 35 17 98v1098h409v-1073q0 -69 -2 -104t-15 -87t-40 -96q-54 -86 -158 -133t-284 -47q-45 0 -84 3t-56 6l-16 3v291zM156 1286v311h409v-311h-409z" />
<glyph unicode="k" horiz-adv-x="1368" d="M139 0v1597h410v-839l344 397h426l-397 -446l405 -709h-463l-223 432l-92 -92v-340h-410z" />
<glyph unicode="l" horiz-adv-x="688" d="M139 0v1597h410v-1597h-410z" />
<glyph unicode="m" horiz-adv-x="2105" d="M139 0v1155h324l74 -201q32 110 114 168t230 58q292 0 356 -226q19 52 44 89.5t65 70t100.5 49.5t140.5 17q226 0 322 -144q42 -61 53.5 -138.5t11.5 -205.5v-692h-418v684q0 31 -0.5 44.5t-6 34.5t-17.5 36q-37 49 -123 49q-39 0 -66.5 -10.5t-42 -25.5t-22.5 -39.5 t-10 -44t-2 -48.5v-680h-418v688q0 78 -25 111q-37 49 -123 49q-39 0 -66.5 -10.5t-42 -25.5t-22.5 -39.5t-10 -44t-2 -48.5v-680h-418z" />
<glyph unicode="n" horiz-adv-x="1421" d="M139 0v1155h324l74 -201q67 226 362 226q227 0 326 -144q24 -34 38 -70t19.5 -88.5t6.5 -87.5t1 -114v-676h-418v676q0 30 -0.5 43.5t-6 36.5t-17.5 39q-40 53 -135 53q-42 0 -72.5 -11.5t-46 -27t-24.5 -40.5t-11 -44t-2 -45v-680h-418z" />
<glyph unicode="o" horiz-adv-x="1400" d="M82 573q0 303 162 459t461 156q294 0 454 -152t160 -454q0 -303 -162 -459t-461 -156q-294 0 -454 152t-160 454zM516 580q0 -61 5 -109t17.5 -91.5t33 -72t53.5 -45t77 -16.5q53 0 89.5 23.5t56.5 69.5t28.5 102.5t8.5 133.5q0 61 -5 109t-18 91.5t-33.5 72t-53.5 45 t-77 16.5q-53 0 -89.5 -23.5t-56 -69.5t-28 -102.5t-8.5 -133.5z" />
<glyph unicode="p" horiz-adv-x="1449" d="M139 -385v1540h336l66 -172q35 101 127 149t215 48t217.5 -46t152 -128t86.5 -187t29 -229q0 -126 -30 -235t-90 -195t-160 -135.5t-230 -49.5q-240 0 -309 168v-528h-410zM549 575q0 -68 9 -119t30 -92.5t59.5 -63t93.5 -21.5t94 21.5t60 63t30 92.5t9 119t-9 119 t-30 92.5t-60 63.5t-94 22t-93.5 -22t-59.5 -63.5t-30 -92.5t-9 -119z" />
<glyph unicode="q" horiz-adv-x="1449" d="M82 567q0 287 139 450t385 163q262 0 352 -185l86 160h267v-1540h-410v557q-34 -95 -121.5 -146t-214.5 -51q-225 0 -354 157.5t-129 434.5zM516 584q0 -68 9 -119t30 -92.5t60 -63.5t94 -22t93.5 22t59.5 63.5t30 92.5t9 119t-9 119t-30 92.5t-59.5 63.5t-93.5 22 t-94 -22t-60 -63.5t-30 -92.5t-9 -119z" />
<glyph unicode="r" horiz-adv-x="946" d="M139 0v1155h320l82 -233q26 140 114.5 197t237.5 57h25v-402q-82 12 -150 12q-60 0 -102.5 -14t-63 -32t-31.5 -49.5t-12.5 -50t-1.5 -50.5v-590h-418z" />
<glyph unicode="s" horiz-adv-x="1093" d="M102 37v287h17q213 -66 352 -66q123 0 123 66q0 27 -21 48.5t-55.5 36.5t-79 33t-90.5 35t-90.5 46t-79 64t-55.5 89.5t-21 122.5q0 175 136.5 273.5t384.5 98.5q84 0 165.5 -11.5t121.5 -22.5l40 -11v-286h-16q-180 57 -299 57q-61 0 -90 -17t-29 -44q0 -25 27 -45 t70.5 -35.5t96 -34t105 -47t96 -66.5t70.5 -100.5t27 -142.5q0 -180 -135 -280.5t-402 -100.5q-98 0 -190.5 13t-135.5 27z" />
<glyph unicode="t" horiz-adv-x="1028" d="M33 836v303h196v254l410 106v-360h287v-303h-287v-385q0 -90 25 -123q31 -41 118 -41q29 0 61 3t49 6l17 3h17v-291q-103 -24 -250 -24t-240 34t-145 109q-22 32 -35.5 68.5t-18.5 81t-6.5 75t-1.5 82.5v402h-196z" />
<glyph unicode="u" horiz-adv-x="1413" d="M139 479v676h418v-676q0 -84 25 -119q38 -53 129 -53q48 0 79.5 15.5t44.5 44t17 52t4 56.5v680h418v-1155h-324l-73 201q-67 -226 -353 -226q-220 0 -319 144q-24 34 -38 70.5t-20 88t-7 88t-1 113.5z" />
<glyph unicode="v" horiz-adv-x="1343" d="M33 1155h459l213 -729l221 729h385l-426 -1155h-434z" />
<glyph unicode="w" horiz-adv-x="1957" d="M57 1155h426l152 -733l180 717h402l180 -717l151 733h348l-303 -1155h-442l-180 700l-180 -700h-443z" />
<glyph unicode="x" horiz-adv-x="1372" d="M53 0l365 586l-348 569h495l168 -311l168 311h397l-340 -545l373 -610h-495l-193 348l-192 -348h-398z" />
<glyph unicode="y" horiz-adv-x="1327" d="M29 1155h450l221 -655l222 655h376l-606 -1540h-418l197 410z" />
<glyph unicode="z" horiz-adv-x="1163" d="M106 0v336l455 500h-446v303h942v-303l-484 -533h484v-303h-951z" />
<glyph unicode="{" horiz-adv-x="921" d="M74 500v295q94 0 135 22t41 96v279q0 40 0.5 62.5t5.5 62.5t15 67.5t29.5 60.5t47.5 58q38 34 85.5 54t117.5 28.5t120.5 10t151.5 1.5v-294q-117 0 -161 -22.5t-44 -100.5v-246q0 -30 -0.5 -46t-4 -46.5t-11 -48.5t-22.5 -43.5t-36 -42.5t-54 -33.5t-76 -26.5 q43 -10 76 -26.5t54 -33.5t36 -42.5t22.5 -43.5t11 -48.5t4 -46.5t0.5 -46v-245q0 -78 44 -100.5t161 -22.5v-295q-101 0 -151.5 1.5t-120.5 10t-117.5 28.5t-85.5 54q-28 25 -47.5 58t-29.5 60.5t-15 67.5t-5.5 62.5t-0.5 62.5v279q0 74 -41 96.5t-135 22.5z" />
<glyph unicode="|" horiz-adv-x="712" d="M164 -385v1982h385v-1982h-385z" />
<glyph unicode="}" horiz-adv-x="921" d="M98 -8q117 0 161 22.5t44 100.5v245q0 30 0.5 46t4.5 46t11 49t22 44t36.5 42t54.5 33.5t76 26.5q-43 10 -76 26.5t-54.5 33.5t-36.5 42t-22 44t-11 49t-4.5 46t-0.5 46v246q0 78 -44 100.5t-161 22.5v294q101 0 151.5 -1.5t120.5 -10t117.5 -28.5t85.5 -54 q35 -31 56.5 -69.5t30 -85t10.5 -76.5t2 -80v-279q0 -74 41 -96t135 -22v-295q-94 0 -135 -22.5t-41 -96.5v-279q0 -50 -2 -80t-10.5 -76.5t-30 -85t-56.5 -69.5q-38 -34 -85.5 -54t-117.5 -28.5t-120.5 -10t-151.5 -1.5v295z" />
<glyph unicode="~" horiz-adv-x="1392" d="M123 356v312q5 5 13.5 14t40 31.5t67 40t94 31.5t121.5 14q77 0 148.5 -21t117 -46.5t105.5 -46.5t116 -21q47 0 95.5 14t84 34t64.5 39.5t44 33.5l15 14h21v-312q-5 -5 -13.5 -14t-40 -31.5t-67 -40t-94 -31.5t-121.5 -14t-121 14t-101.5 34t-84 40t-86.5 34t-92 14 q-48 0 -97 -14t-85 -34t-65 -40t-44 -34l-15 -14h-20z" />
<glyph unicode="&#xa1;" horiz-adv-x="733" d="M119 -385l45 1073h360l45 -1073h-450zM139 803v352h410v-352h-410z" />
<glyph unicode="&#xa2;" horiz-adv-x="1159" d="M82 639q0 236 146.5 379t406.5 168l16 223h267l-27 -227q44 -4 87.5 -11t65.5 -11l21 -5v-274h-16q-91 18 -187 30l-51 -551q51 4 110.5 13.5t93.5 16.5l34 7h16v-274q-124 -31 -274 -37l-17 -217h-266l27 235q-216 45 -334.5 183t-118.5 352zM418 647q0 -189 147 -258 l47 518q-194 -48 -194 -260z" />
<glyph unicode="&#xa3;" horiz-adv-x="1198" d="M102 0v248q227 111 232 309h-232v295h136q-41 87 -41 178q0 177 150 285t409 108q72 0 144.5 -8.5t109.5 -16.5l37 -9v-316h-15q-160 43 -287 43q-167 0 -167 -98q0 -19 7 -40.5t14.5 -36t24.5 -44.5t25 -45h342v-295h-284q-19 -150 -144 -246h533v-311h-994z" />
<glyph unicode="&#xa5;" horiz-adv-x="1472" d="M55 1409h453l264 -444l268 444h377l-409 -610h237v-232h-311v-98h311v-231h-311v-238h-395v238h-312v231h312v98h-312v232h238z" />
<glyph unicode="&#xa7;" horiz-adv-x="1085" d="M82 573q0 60 21.5 107.5t56.5 76.5t67.5 45t67.5 25q-184 99 -184 269q0 148 126.5 238.5t360.5 90.5q78 0 160 -10.5t125 -20.5l43 -10v-274h-17q-192 53 -303 53q-56 0 -87.5 -16t-31.5 -43q0 -28 38.5 -52.5t95.5 -42t124.5 -46.5t124.5 -63.5t95.5 -95.5t38.5 -140 q0 -61 -22 -109.5t-59 -77t-70 -44.5t-69 -25q191 -105 191 -285q0 -154 -126.5 -241t-373.5 -87q-86 0 -168 10.5t-121 20.5l-39 10v275h17q180 -54 307 -54t127 64q0 27 -28.5 49.5t-74 41t-100.5 39t-110 48t-100.5 62.5t-74 89.5t-28.5 122.5zM397 649q0 -24 13 -46 t29 -36t51.5 -32.5t57 -27.5t70.5 -28q70 47 70 109q0 24 -13 45t-30 36t-51 32.5t-58 27.5t-69 27q-70 -39 -70 -107z" />
<glyph unicode="&#xa9;" horiz-adv-x="1835" d="M98 705q0 221 102 389t280 256t405 88q170 0 314.5 -51.5t249 -145.5t163.5 -232t59 -304q0 -221 -101.5 -389t-279.5 -256.5t-405 -88.5t-405 88.5t-280 256.5t-102 389zM356 705q0 -225 145 -371t384 -146t383.5 146t144.5 371t-144.5 370.5t-383.5 145.5t-384 -145.5 t-145 -370.5zM487 705q0 105 39 185.5t105 127t144.5 69.5t166.5 23q49 0 99.5 -7t76.5 -15l25 -7v-258h-17q-57 21 -131 21q-164 0 -164 -139q0 -140 164 -140q33 0 65.5 5.5t49.5 10.5l16 5h17v-258q-90 -29 -201 -29q-88 0 -166.5 23t-144.5 70t-105 127.5t-39 185.5z " />
<glyph unicode="&#xaa;" horiz-adv-x="987" d="M53 993q0 130 111 195q55 33 132.5 49t128 18t148.5 2q0 38 -16 54q-28 28 -135 28q-60 0 -126.5 -10.5t-103.5 -20.5l-36 -10h-17v226q137 37 336 37q136 0 228.5 -27t140.5 -96q23 -33 34.5 -78.5t13 -73.5t1.5 -74v-458h-250l-49 118q-50 -135 -242 -135 q-134 0 -216.5 67t-82.5 189zM377 1028q0 -57 86 -57q31 0 53.5 8.5t33 18.5t16.5 27t6.5 25.5t0.5 22.5v25h-38t-35 -1t-34 -3t-29 -5t-25.5 -8t-17.5 -12.5t-13 -17.5t-4 -23z" />
<glyph unicode="&#xab;" horiz-adv-x="1359" d="M98 647l238 467h360l-262 -463l262 -471h-360zM664 647l237 467h361l-263 -463l263 -471h-361z" />
<glyph unicode="&#xad;" horiz-adv-x="909" d="M115 492v311h680v-311h-680z" />
<glyph unicode="&#xae;" horiz-adv-x="1302" d="M82 1274q0 244 159 386t410 142q165 0 293 -62t202.5 -183t74.5 -283q0 -244 -159.5 -386.5t-410.5 -142.5t-410 142.5t-159 386.5zM270 1274q0 -162 102.5 -263.5t278.5 -101.5t278.5 101.5t102.5 263.5t-102.5 263t-278.5 101t-278.5 -101t-102.5 -263zM410 1024v516 h204q58 0 88 -1.5t69.5 -11t68.5 -28.5q65 -44 65 -139q0 -108 -84 -160l101 -176h-213l-62 139h-45v-139h-192zM602 1303h53q62 0 62 49t-62 49h-53v-98z" />
<glyph unicode="&#xb0;" horiz-adv-x="1056" d="M123 1237q0 164 115.5 266.5t289.5 102.5t290 -102.5t116 -266.5t-116 -266.5t-290 -102.5t-289.5 102.5t-115.5 266.5zM393 1237q0 -61 38 -100t97 -39t97.5 39t38.5 100t-38.5 100t-97.5 39t-97 -39t-38 -100z" />
<glyph unicode="&#xb1;" horiz-adv-x="1392" d="M188 0v262h1016v-262h-1016zM188 627v262h349v266h319v-266h348v-262h-348v-267h-319v267h-349z" />
<glyph unicode="&#xb2;" horiz-adv-x="864" d="M82 639v213q194 178 238 224q111 115 119 190q1 7 1 14q0 90 -129 90q-40 0 -93.5 -9t-86.5 -17l-33 -9h-8v238q121 35 279 35q211 0 312 -77.5t101 -205.5q0 -43 -10.5 -82t-33 -74.5t-45 -64t-59 -60.5t-63 -53t-69 -53.5t-64.5 -50.5h346v-248h-702z" />
<glyph unicode="&#xb3;" horiz-adv-x="892" d="M82 664v239h10q135 -37 244 -37q139 0 139 76q0 43 -39 62q-29 14 -125 14h-135v213h129q82 0 115 16q35 17 35 56q0 67 -115 67q-45 0 -104.5 -9t-96.5 -19l-37 -9h-10v240q123 35 287 35q197 0 304.5 -64t107.5 -188q0 -88 -52 -142.5t-137 -76.5q98 -15 154.5 -72.5 t56.5 -149.5q0 -138 -124.5 -212t-336.5 -74q-74 0 -141.5 8.5t-98.5 17.5z" />
<glyph unicode="&#xb4;" horiz-adv-x="1228" d="M467 1286l135 311h438l-245 -311h-328z" />
<glyph unicode="&#xb7;" horiz-adv-x="466" d="M41 377v393h385v-393h-385z" />
<glyph unicode="&#xb9;" horiz-adv-x="698" d="M55 1257v246l318 94h205v-958h-324v674l-188 -56h-11z" />
<glyph unicode="&#xba;" horiz-adv-x="1048" d="M57 1147q0 212 121 319t346 107q223 0 345 -105t122 -315q0 -211 -122.5 -317.5t-348.5 -106.5q-222 0 -342.5 103.5t-120.5 314.5zM397 1153q0 -95 27 -147t100 -52q72 0 99.5 50t27.5 145q0 96 -28 147.5t-101 51.5q-72 0 -98.5 -50.5t-26.5 -144.5z" />
<glyph unicode="&#xbb;" horiz-adv-x="1359" d="M98 180l262 463l-262 471h361l237 -467l-237 -467h-361zM664 180l262 463l-262 471h360l238 -467l-238 -467h-360z" />
<glyph unicode="&#xbd;" horiz-adv-x="2121" d="M53 1241v238l361 118h209v-974h-324v696l-229 -78h-17zM86 -172l811 950l643 819h365v-16l-811 -950l-643 -819h-365v16zM1323 20q201 169 289 271t88 176q0 44 -30 71t-95 27q-35 0 -85.5 -8.5t-83.5 -16.5l-34 -8h-16v234q126 33 278 33q212 0 309 -79t97 -212 q0 -58 -19 -112t-45.5 -94t-72.5 -85t-81 -73t-90 -70q-6 -5 -9.5 -7.5t-9 -6.5t-9.5 -7h340v-241h-721v208z" />
<glyph unicode="&#xbf;" horiz-adv-x="1081" d="M0 -2q0 61 16 114.5t38 90.5t58 74.5t63.5 58.5t66.5 50t57 44q30 25 50 51t30 46.5t15 51.5t6 50t1 59h365q0 -77 -3 -118t-15 -92t-39 -91t-74 -84q-19 -18 -67.5 -58t-72.5 -63t-46.5 -62t-22.5 -79q0 -64 54 -97.5t157 -33.5q72 0 162.5 15t144.5 31l55 15h17v-315 q-19 -6 -54.5 -15.5t-145.5 -25.5t-220 -16q-286 0 -441 100.5t-155 298.5zM377 803v352h409v-352h-409z" />
<glyph unicode="&#xc0;" horiz-adv-x="1540" d="M8 0l520 1540h492l512 -1540h-451l-92 311h-508l-96 -311h-377zM266 1999h492l168 -311h-353zM571 606h330l-160 545z" />
<glyph unicode="&#xc1;" horiz-adv-x="1540" d="M8 0l520 1540h492l512 -1540h-451l-92 311h-508l-96 -311h-377zM571 606h330l-160 545zM614 1688l168 311h492l-307 -311h-353z" />
<glyph unicode="&#xc2;" horiz-adv-x="1540" d="M8 0l520 1540h492l512 -1540h-451l-92 311h-508l-96 -311h-377zM336 1688l229 311h410l229 -311h-348l-94 135l-94 -135h-332zM571 606h330l-160 545z" />
<glyph unicode="&#xc3;" horiz-adv-x="1540" d="M8 0l520 1540h492l512 -1540h-451l-92 311h-508l-96 -311h-377zM389 1688v225q4 3 11.5 9t31.5 21t50 26t66 20.5t79 9.5q67 0 180.5 -35t165.5 -35q48 0 99 17.5t78 35.5l26 17h16v-225q-4 -3 -11.5 -9t-31.5 -21t-50 -26t-66 -20.5t-79 -9.5q-67 0 -180.5 34.5 t-165.5 34.5q-48 0 -98.5 -17.5t-77.5 -34.5l-26 -17h-17zM571 606h330l-160 545z" />
<glyph unicode="&#xc4;" horiz-adv-x="1540" d="M8 0l520 1540h492l512 -1540h-451l-92 311h-508l-96 -311h-377zM336 1688v311h360v-311h-360zM571 606h330l-160 545zM844 1688v311h360v-311h-360z" />
<glyph unicode="&#xc5;" horiz-adv-x="1540" d="M8 0l506 1501q-92 76 -92 207q0 143 99 225t249 82t249 -82t99 -225q0 -128 -88 -203l502 -1505h-451l-92 311h-508l-96 -311h-377zM571 606h330l-160 545zM664 1688q0 -47 28.5 -77t77.5 -30t78 30t29 77t-29 76.5t-78 29.5t-77.5 -29.5t-28.5 -76.5z" />
<glyph unicode="&#xc6;" horiz-adv-x="2109" d="M-20 0l835 1540h1163v-315h-610v-279h512v-315h-512v-316h643v-315h-1036v311h-455l-160 -311h-380zM670 598h305v590z" />
<glyph unicode="&#xc7;" horiz-adv-x="1327" d="M98 766q0 169 48.5 310.5t144 249.5t251 169t355.5 61q84 0 167 -10t124 -20l41 -10v-316h-17q-123 45 -258 45q-106 0 -185.5 -37t-126.5 -102.5t-70 -148.5t-23 -183q0 -101 23 -185t70 -151.5t126.5 -105t185.5 -37.5q59 0 123.5 11.5t99.5 22.5l35 11h17v-315 q-107 -29 -254 -39q86 -56 86 -154t-85 -159.5t-235 -61.5q-33 0 -66.5 3t-50.5 6l-18 3v184h17q49 -12 94 -12q98 0 98 82q0 57 -43 115q-170 17 -300 83t-211 169.5t-122 235t-41 286.5z" />
<glyph unicode="&#xc8;" horiz-adv-x="1335" d="M164 0v1540h1040v-315h-622v-279h524v-315h-524v-316h655v-315h-1073zM180 1999h492l168 -311h-353z" />
<glyph unicode="&#xc9;" horiz-adv-x="1335" d="M164 0v1540h1040v-315h-622v-279h524v-315h-524v-316h655v-315h-1073zM528 1688l168 311h492l-307 -311h-353z" />
<glyph unicode="&#xca;" horiz-adv-x="1335" d="M164 0v1540h1040v-315h-622v-279h524v-315h-524v-316h655v-315h-1073zM250 1688l229 311h410l229 -311h-348l-94 135l-94 -135h-332z" />
<glyph unicode="&#xcb;" horiz-adv-x="1335" d="M164 0v1540h1040v-315h-622v-279h524v-315h-524v-316h655v-315h-1073zM274 1688v311h357v-311h-357zM737 1688v311h357v-311h-357z" />
<glyph unicode="&#xcc;" horiz-adv-x="753" d="M-127 1999h492l167 -311h-352zM164 0v1540h426v-1540h-426z" />
<glyph unicode="&#xcd;" horiz-adv-x="753" d="M164 0v1540h426v-1540h-426zM221 1688l168 311h492l-308 -311h-352z" />
<glyph unicode="&#xce;" horiz-adv-x="753" d="M-57 1688l229 311h410l229 -311h-348l-94 135l-95 -135h-331zM164 0v1540h426v-1540h-426z" />
<glyph unicode="&#xcf;" horiz-adv-x="753" d="M-33 1688v311h357v-311h-357zM164 0v1540h426v-1540h-426zM430 1688v311h356v-311h-356z" />
<glyph unicode="&#xd0;" horiz-adv-x="1716" d="M41 631v315h188v594h508q80 0 132 -2.5t133.5 -12.5t156 -35t141.5 -65t121.5 -95t100 -133.5t71 -187.5t25.5 -239t-25.5 -239t-71 -187.5t-100 -133.5t-121.5 -95t-141.5 -65t-156 -35t-133.5 -12.5t-132 -2.5h-508v631h-188zM647 311h115q47 0 75.5 1.5t76.5 12 t85 31.5q172 95 172 414q0 327 -180 418q-82 41 -229 41h-115v-283h254v-315h-254v-320z" />
<glyph unicode="&#xd1;" horiz-adv-x="1691" d="M164 0v1540h418l577 -868v868h369v-1540h-369l-627 909v-909h-368zM463 1688v225q4 3 11.5 9t31.5 21t50 26t65.5 20.5t78.5 9.5q67 0 181 -35t166 -35q48 0 98.5 17.5t76.5 35.5l27 17h17v-225q-4 -3 -11.5 -9t-31.5 -21t-50 -26t-66 -20.5t-79 -9.5q-67 0 -180.5 34.5 t-165.5 34.5q-48 0 -99 -17.5t-77 -34.5l-27 -17h-16z" />
<glyph unicode="&#xd2;" d="M98 764q0 242 89 423.5t265.5 283.5t421.5 102q185 0 330.5 -58.5t240 -165t144 -252t49.5 -321.5q0 -242 -89 -423.5t-265.5 -283.5t-421.5 -102q-185 0 -330.5 58.5t-240 165t-144 252t-49.5 321.5zM365 1999h491l168 -311h-352zM549 770q0 -491 319 -491 q320 0 320 491q0 492 -320 492q-319 0 -319 -492z" />
<glyph unicode="&#xd3;" d="M98 764q0 242 89 423.5t265.5 283.5t421.5 102q185 0 330.5 -58.5t240 -165t144 -252t49.5 -321.5q0 -242 -89 -423.5t-265.5 -283.5t-421.5 -102q-185 0 -330.5 58.5t-240 165t-144 252t-49.5 321.5zM549 770q0 -491 319 -491q320 0 320 491q0 492 -320 492 q-319 0 -319 -492zM713 1688l168 311h491l-307 -311h-352z" />
<glyph unicode="&#xd4;" d="M98 764q0 242 89 423.5t265.5 283.5t421.5 102q185 0 330.5 -58.5t240 -165t144 -252t49.5 -321.5q0 -242 -89 -423.5t-265.5 -283.5t-421.5 -102q-185 0 -330.5 58.5t-240 165t-144 252t-49.5 321.5zM434 1688l230 311h409l230 -311h-349l-94 135l-94 -135h-332z M549 770q0 -491 319 -491q320 0 320 491q0 492 -320 492q-319 0 -319 -492z" />
<glyph unicode="&#xd5;" d="M98 764q0 242 89 423.5t265.5 283.5t421.5 102q185 0 330.5 -58.5t240 -165t144 -252t49.5 -321.5q0 -242 -89 -423.5t-265.5 -283.5t-421.5 -102q-185 0 -330.5 58.5t-240 165t-144 252t-49.5 321.5zM487 1688v225q4 3 11.5 9t31.5 21t50 26t66 20.5t79 9.5 q67 0 180.5 -35t165.5 -35q48 0 99 17.5t78 35.5l26 17h16v-225q-4 -3 -11.5 -9t-31.5 -21t-50 -26t-65.5 -20.5t-78.5 -9.5q-67 0 -180.5 34.5t-165.5 34.5q-48 0 -99 -17.5t-78 -34.5l-26 -17h-17zM549 770q0 -491 319 -491q320 0 320 491q0 492 -320 492 q-319 0 -319 -492z" />
<glyph unicode="&#xd6;" d="M98 764q0 242 89 423.5t265.5 283.5t421.5 102q185 0 330.5 -58.5t240 -165t144 -252t49.5 -321.5q0 -242 -89 -423.5t-265.5 -283.5t-421.5 -102q-185 0 -330.5 58.5t-240 165t-144 252t-49.5 321.5zM434 1688v311h361v-311h-361zM549 770q0 -491 319 -491 q320 0 320 491q0 492 -320 492q-319 0 -319 -492zM942 1688v311h361v-311h-361z" />
<glyph unicode="&#xd7;" horiz-adv-x="1392" d="M156 250l319 319l-319 320l241 229l312 -332l311 332l217 -213l-319 -319l319 -320l-242 -229l-311 332l-311 -332z" />
<glyph unicode="&#xd8;" d="M82 -57l209 252q-193 214 -193 575q0 241 87 420.5t262.5 281t420.5 101.5q193 0 346 -66l60 90h381l-209 -254q192 -210 192 -573q0 -241 -87 -420.5t-262.5 -281t-420.5 -101.5q-193 0 -346 64l-59 -88h-381zM516 770q0 -152 29 -254l491 729q-71 41 -168 41 q-352 0 -352 -516zM698 293q68 -39 170 -39q353 0 353 516q0 138 -29 254z" />
<glyph unicode="&#xd9;" horiz-adv-x="1630" d="M164 631v909h426v-975q0 -64 10 -111.5t36.5 -89t78.5 -63.5t129 -22t129 22t78.5 63.5t36.5 89t10 111.5v975h368v-909q0 -68 -2.5 -109t-12.5 -108.5t-37 -127.5t-71 -114q-165 -205 -530 -205q-184 0 -312.5 50t-213.5 155q-30 37 -52 76t-35 81.5t-20.5 77t-11 81 t-4 72t-0.5 71.5zM324 1999h491l168 -311h-352z" />
<glyph unicode="&#xda;" horiz-adv-x="1630" d="M164 631v909h426v-975q0 -64 10 -111.5t36.5 -89t78.5 -63.5t129 -22t129 22t78.5 63.5t36.5 89t10 111.5v975h368v-909q0 -68 -2.5 -109t-12.5 -108.5t-37 -127.5t-71 -114q-165 -205 -530 -205q-184 0 -312.5 50t-213.5 155q-30 37 -52 76t-35 81.5t-20.5 77t-11 81 t-4 72t-0.5 71.5zM672 1688l168 311h491l-307 -311h-352z" />
<glyph unicode="&#xdb;" horiz-adv-x="1630" d="M164 631v909h426v-975q0 -64 10 -111.5t36.5 -89t78.5 -63.5t129 -22t129 22t78.5 63.5t36.5 89t10 111.5v975h368v-909q0 -68 -2.5 -109t-12.5 -108.5t-37 -127.5t-71 -114q-165 -205 -530 -205q-184 0 -312.5 50t-213.5 155q-30 37 -52 76t-35 81.5t-20.5 77t-11 81 t-4 72t-0.5 71.5zM393 1688l230 311h409l230 -311h-349l-94 135l-94 -135h-332z" />
<glyph unicode="&#xdc;" horiz-adv-x="1630" d="M164 631v909h426v-975q0 -64 10 -111.5t36.5 -89t78.5 -63.5t129 -22t129 22t78.5 63.5t36.5 89t10 111.5v975h368v-909q0 -68 -2.5 -109t-12.5 -108.5t-37 -127.5t-71 -114q-165 -205 -530 -205q-184 0 -312.5 50t-213.5 155q-30 37 -52 76t-35 81.5t-20.5 77t-11 81 t-4 72t-0.5 71.5zM393 1688v311h361v-311h-361zM901 1688v311h361v-311h-361z" />
<glyph unicode="&#xdd;" horiz-adv-x="1470" d="M8 1540h496l282 -573l279 573h397l-512 -946v-594h-426v586zM627 1688l168 311h491l-307 -311h-352z" />
<glyph unicode="&#xde;" horiz-adv-x="1482" d="M164 0v1540h426v-209h94q64 0 104.5 -1.5t110 -9t133 -27.5t119.5 -52q124 -69 187 -187.5t63 -273.5q0 -172 -74 -292.5t-201 -188.5q-70 -38 -160.5 -57.5t-144.5 -22t-141 -2.5h-90v-217h-426zM590 528h90q127 0 184 37q44 28 69 82.5t25 126.5t-25 126.5t-69 82.5 q-57 37 -184 37h-90v-492z" />
<glyph unicode="&#xdf;" horiz-adv-x="1499" d="M139 0v1049q0 93 1.5 137t13 99.5t34.5 98.5q121 222 533 222q125 0 225 -21.5t166 -57.5t109.5 -86t62.5 -104.5t19 -115.5q0 -66 -23 -120t-55.5 -87.5t-65 -60.5t-55.5 -52t-23 -49q0 -26 25.5 -54.5t63.5 -53t83 -62t83 -78.5t63.5 -105t25.5 -139 q0 -174 -133.5 -275t-378.5 -101q-60 0 -114.5 6t-78.5 12l-24 6v279h17q114 -33 200 -33q95 0 95 57q0 30 -24.5 60.5t-60.5 56.5t-79 62.5t-79 75t-60.5 99t-24.5 130.5q0 65 21 118t51 86.5t60.5 62t51.5 60.5t21 66q0 56 -46 89.5t-122 33.5q-104 0 -144 -66 q-12 -20 -17.5 -48.5t-6 -50.5t-0.5 -81v-1065h-410z" />
<glyph unicode="&#xe0;" horiz-adv-x="1302" d="M66 338q0 228 208 321q91 40 203 51t289 11q0 31 -1 46t-6.5 34t-17.5 35q-46 57 -192 57q-82 0 -170 -15.5t-135 -31.5l-47 -15h-17v291q20 5 56 13.5t147.5 22t222.5 13.5q184 0 309.5 -39.5t186.5 -132.5q31 -46 47 -110t19 -110t3 -115v-664h-319l-61 184 q-31 -101 -118.5 -155t-217.5 -54q-174 0 -281.5 95.5t-107.5 267.5zM225 1597h439l135 -311h-328zM479 377q0 -52 32.5 -79.5t88.5 -27.5q51 0 89 21.5t56 56.5q21 43 21 127v29q-169 0 -229 -33q-58 -32 -58 -94z" />
<glyph unicode="&#xe1;" horiz-adv-x="1302" d="M66 338q0 228 208 321q91 40 203 51t289 11q0 31 -1 46t-6.5 34t-17.5 35q-46 57 -192 57q-82 0 -170 -15.5t-135 -31.5l-47 -15h-17v291q20 5 56 13.5t147.5 22t222.5 13.5q184 0 309.5 -39.5t186.5 -132.5q31 -46 47 -110t19 -110t3 -115v-664h-319l-61 184 q-31 -101 -118.5 -155t-217.5 -54q-174 0 -281.5 95.5t-107.5 267.5zM479 377q0 -52 32.5 -79.5t88.5 -27.5q51 0 89 21.5t56 56.5q21 43 21 127v29q-169 0 -229 -33q-58 -32 -58 -94zM504 1286l135 311h438l-246 -311h-327z" />
<glyph unicode="&#xe2;" horiz-adv-x="1302" d="M66 338q0 228 208 321q91 40 203 51t289 11q0 31 -1 46t-6.5 34t-17.5 35q-46 57 -192 57q-82 0 -170 -15.5t-135 -31.5l-47 -15h-17v291q20 5 56 13.5t147.5 22t222.5 13.5q184 0 309.5 -39.5t186.5 -132.5q31 -46 47 -110t19 -110t3 -115v-664h-319l-61 184 q-31 -101 -118.5 -155t-217.5 -54q-174 0 -281.5 95.5t-107.5 267.5zM242 1286l229 311h360l230 -311h-324l-94 135l-94 -135h-307zM479 377q0 -52 32.5 -79.5t88.5 -27.5q51 0 89 21.5t56 56.5q21 43 21 127v29q-169 0 -229 -33q-58 -32 -58 -94z" />
<glyph unicode="&#xe3;" horiz-adv-x="1302" d="M66 338q0 228 208 321q91 40 203 51t289 11q0 31 -1 46t-6.5 34t-17.5 35q-46 57 -192 57q-82 0 -170 -15.5t-135 -31.5l-47 -15h-17v291q20 5 56 13.5t147.5 22t222.5 13.5q184 0 309.5 -39.5t186.5 -132.5q31 -46 47 -110t19 -110t3 -115v-664h-319l-61 184 q-31 -101 -118.5 -155t-217.5 -54q-174 0 -281.5 95.5t-107.5 267.5zM287 1286v217q4 4 11 10t30.5 22.5t48 29t61.5 22.5t74 10q63 0 166.5 -38.5t152.5 -38.5q45 0 93.5 19t73.5 39l26 19h16v-217q-4 -4 -11 -10t-30.5 -22.5t-48 -29t-61.5 -22.5t-74 -10q-63 0 -166.5 39 t-152.5 39q-45 0 -93.5 -19.5t-74.5 -38.5l-25 -20h-16zM479 377q0 -52 32.5 -79.5t88.5 -27.5q51 0 89 21.5t56 56.5q21 43 21 127v29q-169 0 -229 -33q-58 -32 -58 -94z" />
<glyph unicode="&#xe4;" horiz-adv-x="1302" d="M66 338q0 228 208 321q91 40 203 51t289 11q0 31 -1 46t-6.5 34t-17.5 35q-46 57 -192 57q-82 0 -170 -15.5t-135 -31.5l-47 -15h-17v291q20 5 56 13.5t147.5 22t222.5 13.5q184 0 309.5 -39.5t186.5 -132.5q31 -46 47 -110t19 -110t3 -115v-664h-319l-61 184 q-31 -101 -118.5 -155t-217.5 -54q-174 0 -281.5 95.5t-107.5 267.5zM242 1286v311h348v-311h-348zM479 377q0 -52 32.5 -79.5t88.5 -27.5q51 0 89 21.5t56 56.5q21 43 21 127v29q-169 0 -229 -33q-58 -32 -58 -94zM713 1286v311h348v-311h-348z" />
<glyph unicode="&#xe5;" horiz-adv-x="1302" d="M66 338q0 228 208 321q91 40 203 51t289 11q0 31 -1 46t-6.5 34t-17.5 35q-46 57 -192 57q-82 0 -170 -15.5t-135 -31.5l-47 -15h-17v291q20 5 56 13.5t147.5 22t222.5 13.5q184 0 309.5 -39.5t186.5 -132.5q31 -46 47 -110t19 -110t3 -115v-664h-319l-61 184 q-31 -101 -118.5 -155t-217.5 -54q-174 0 -281.5 95.5t-107.5 267.5zM336 1491q0 109 80.5 177.5t234.5 68.5t235 -68.5t81 -177.5t-81 -177.5t-235 -68.5t-234.5 68.5t-80.5 177.5zM479 377q0 -52 32.5 -79.5t88.5 -27.5q51 0 89 21.5t56 56.5q21 43 21 127v29 q-169 0 -229 -33q-58 -32 -58 -94zM561 1491q0 -38 24.5 -64t65.5 -26t65.5 26t24.5 64t-24.5 64t-65.5 26t-65.5 -26t-24.5 -64z" />
<glyph unicode="&#xe6;" horiz-adv-x="1994" d="M66 338q0 199 151 293q52 32 114.5 51.5t145 27.5t136.5 9.5t153 1.5q0 31 -1 46t-6.5 34t-17.5 35q-46 57 -192 57q-82 0 -170 -15.5t-135 -31.5l-47 -15h-17v291q20 5 56.5 13.5t147 22t218.5 13.5q292 0 406 -102q4 4 12 11.5t38.5 26t66.5 32.5t98 25.5t131 11.5 q306 0 448 -205q34 -49 54 -102t28.5 -125.5t10 -123t1.5 -153.5h-720q0 -94 70.5 -147.5t203.5 -53.5q69 0 158 14.5t144 29.5l54 14h17v-291q-21 -5 -58 -13.5t-146.5 -22t-213.5 -13.5q-207 0 -334.5 54.5t-181.5 174.5q-94 -229 -410 -229q-203 0 -308 92.5t-105 261.5z M479 379q0 -47 33 -73.5t90 -26.5q104 0 143 73q21 43 21 127v25q-169 0 -229 -33q-58 -33 -58 -92zM1171 700h316q0 209 -154 209q-156 0 -162 -209z" />
<glyph unicode="&#xe7;" horiz-adv-x="1052" d="M82 573q0 282 157.5 440t458.5 158q68 0 133 -8t96 -16l31 -8v-308h-16q-94 29 -188 29q-130 0 -184 -70t-54 -212t54 -212.5t184 -70.5q42 0 89 7.5t73 14.5l26 7h16v-308q-77 -24 -200 -30q86 -59 86 -154q0 -98 -85 -159.5t-235 -61.5q-33 0 -66.5 3t-51.5 6l-17 3 v184h17q49 -12 94 -12q98 0 98 82q0 60 -45 117q-232 35 -351.5 185t-119.5 394z" />
<glyph unicode="&#xe8;" horiz-adv-x="1318" d="M82 575q0 286 150 449.5t436 163.5q317 0 458 -209q64 -95 79.5 -199.5t15.5 -312.5h-721q0 -94 70.5 -147.5t203.5 -53.5q69 0 158 14.5t144 29.5l54 14h17v-291q-20 -5 -56.5 -13.5t-145 -22t-212.5 -13.5q-174 0 -288 36t-191 107q-172 156 -172 448zM242 1597h438 l135 -311h-328zM496 700h315q0 102 -32 160t-115 58q-87 0 -127.5 -61t-40.5 -157z" />
<glyph unicode="&#xe9;" horiz-adv-x="1318" d="M82 575q0 286 150 449.5t436 163.5q317 0 458 -209q64 -95 79.5 -199.5t15.5 -312.5h-721q0 -94 70.5 -147.5t203.5 -53.5q69 0 158 14.5t144 29.5l54 14h17v-291q-20 -5 -56.5 -13.5t-145 -22t-212.5 -13.5q-174 0 -288 36t-191 107q-172 156 -172 448zM496 700h315 q0 102 -32 160t-115 58q-87 0 -127.5 -61t-40.5 -157zM520 1286l135 311h439l-246 -311h-328z" />
<glyph unicode="&#xea;" horiz-adv-x="1318" d="M82 575q0 286 150 449.5t436 163.5q317 0 458 -209q64 -95 79.5 -199.5t15.5 -312.5h-721q0 -94 70.5 -147.5t203.5 -53.5q69 0 158 14.5t144 29.5l54 14h17v-291q-20 -5 -56.5 -13.5t-145 -22t-212.5 -13.5q-174 0 -288 36t-191 107q-172 156 -172 448zM258 1286 l229 311h361l229 -311h-323l-95 135l-94 -135h-307zM496 700h315q0 102 -32 160t-115 58q-87 0 -127.5 -61t-40.5 -157z" />
<glyph unicode="&#xeb;" horiz-adv-x="1318" d="M82 575q0 286 150 449.5t436 163.5q317 0 458 -209q64 -95 79.5 -199.5t15.5 -312.5h-721q0 -94 70.5 -147.5t203.5 -53.5q69 0 158 14.5t144 29.5l54 14h17v-291q-20 -5 -56.5 -13.5t-145 -22t-212.5 -13.5q-174 0 -288 36t-191 107q-172 156 -172 448zM258 1286v311 h348v-311h-348zM496 700h315q0 102 -32 160t-115 58q-87 0 -127.5 -61t-40.5 -157zM729 1286v311h348v-311h-348z" />
<glyph unicode="&#xec;" horiz-adv-x="688" d="M-82 1597h438l136 -311h-328zM139 0v1155h410v-1155h-410z" />
<glyph unicode="&#xed;" horiz-adv-x="688" d="M139 0v1155h410v-1155h-410zM197 1286l135 311h438l-246 -311h-327z" />
<glyph unicode="&#xee;" horiz-adv-x="688" d="M-66 1286l230 311h360l230 -311h-324l-94 135l-94 -135h-308zM139 0v1155h410v-1155h-410z" />
<glyph unicode="&#xef;" horiz-adv-x="688" d="M-33 1286v311h320v-311h-320zM139 0v1155h410v-1155h-410zM401 1286v311h320v-311h-320z" />
<glyph unicode="&#xf0;" horiz-adv-x="1417" d="M82 496q0 118 41.5 220t111.5 170.5t162 107t193 38.5q62 0 112 -13.5t86 -40t55 -45t42 -48.5q-42 129 -185 286l-331 -147v188l200 88q-82 73 -176 143t-147 104l-53 34v16h507q94 -51 209 -147l336 147v-184l-205 -90q279 -308 279 -668q0 -160 -51.5 -289 t-137.5 -219q-174 -180 -462 -180q-170 0 -302 62t-208 183t-76 284zM516 508q0 -118 46 -186t138 -68t138.5 68t46.5 186t-46.5 186t-138.5 68t-138 -68t-46 -186z" />
<glyph unicode="&#xf1;" horiz-adv-x="1421" d="M139 0v1155h324l74 -201q67 226 362 226q227 0 326 -144q24 -34 38 -70t19.5 -88.5t6.5 -87.5t1 -114v-676h-418v676q0 30 -0.5 43.5t-6 36.5t-17.5 39q-40 53 -135 53q-42 0 -72.5 -11.5t-46 -27t-24.5 -40.5t-11 -44t-2 -45v-680h-418zM360 1286v217q4 4 11 10 t30.5 22.5t48.5 29t62 22.5t74 10q63 0 166.5 -38.5t152.5 -38.5q45 0 93.5 19t73.5 39l26 19h16v-217q-4 -4 -11 -10t-30.5 -22.5t-48 -29t-61.5 -22.5t-74 -10q-63 0 -167 39t-153 39q-45 0 -93 -19.5t-74 -38.5l-25 -20h-17z" />
<glyph unicode="&#xf2;" horiz-adv-x="1400" d="M82 573q0 303 162 459t461 156q294 0 454 -152t160 -454q0 -303 -162 -459t-461 -156q-294 0 -454 152t-160 454zM274 1597h439l135 -311h-328zM516 580q0 -61 5 -109t17.5 -91.5t33 -72t53.5 -45t77 -16.5q53 0 89.5 23.5t56.5 69.5t28.5 102.5t8.5 133.5q0 61 -5 109 t-18 91.5t-33.5 72t-53.5 45t-77 16.5q-53 0 -89.5 -23.5t-56 -69.5t-28 -102.5t-8.5 -133.5z" />
<glyph unicode="&#xf3;" horiz-adv-x="1400" d="M82 573q0 303 162 459t461 156q294 0 454 -152t160 -454q0 -303 -162 -459t-461 -156q-294 0 -454 152t-160 454zM516 580q0 -61 5 -109t17.5 -91.5t33 -72t53.5 -45t77 -16.5q53 0 89.5 23.5t56.5 69.5t28.5 102.5t8.5 133.5q0 61 -5 109t-18 91.5t-33.5 72t-53.5 45 t-77 16.5q-53 0 -89.5 -23.5t-56 -69.5t-28 -102.5t-8.5 -133.5zM553 1286l135 311h438l-245 -311h-328z" />
<glyph unicode="&#xf4;" horiz-adv-x="1400" d="M82 573q0 303 162 459t461 156q294 0 454 -152t160 -454q0 -303 -162 -459t-461 -156q-294 0 -454 152t-160 454zM291 1286l229 311h361l229 -311h-324l-94 135l-94 -135h-307zM516 580q0 -61 5 -109t17.5 -91.5t33 -72t53.5 -45t77 -16.5q53 0 89.5 23.5t56.5 69.5 t28.5 102.5t8.5 133.5q0 61 -5 109t-18 91.5t-33.5 72t-53.5 45t-77 16.5q-53 0 -89.5 -23.5t-56 -69.5t-28 -102.5t-8.5 -133.5z" />
<glyph unicode="&#xf5;" horiz-adv-x="1400" d="M82 573q0 303 162 459t461 156q294 0 454 -152t160 -454q0 -303 -162 -459t-461 -156q-294 0 -454 152t-160 454zM336 1286v217q4 4 11 10t30.5 22.5t48 29t61.5 22.5t74 10q63 0 167 -38.5t153 -38.5q45 0 93 19t74 39l25 19h17v-217q-4 -4 -11 -10t-30.5 -22.5 t-48.5 -29t-62 -22.5t-74 -10q-63 0 -166.5 39t-152.5 39q-45 0 -93.5 -19.5t-73.5 -38.5l-26 -20h-16zM516 580q0 -61 5 -109t17.5 -91.5t33 -72t53.5 -45t77 -16.5q53 0 89.5 23.5t56.5 69.5t28.5 102.5t8.5 133.5q0 61 -5 109t-18 91.5t-33.5 72t-53.5 45t-77 16.5 q-53 0 -89.5 -23.5t-56 -69.5t-28 -102.5t-8.5 -133.5z" />
<glyph unicode="&#xf6;" horiz-adv-x="1400" d="M82 573q0 303 162 459t461 156q294 0 454 -152t160 -454q0 -303 -162 -459t-461 -156q-294 0 -454 152t-160 454zM291 1286v311h348v-311h-348zM516 580q0 -61 5 -109t17.5 -91.5t33 -72t53.5 -45t77 -16.5q53 0 89.5 23.5t56.5 69.5t28.5 102.5t8.5 133.5q0 61 -5 109 t-18 91.5t-33.5 72t-53.5 45t-77 16.5q-53 0 -89.5 -23.5t-56 -69.5t-28 -102.5t-8.5 -133.5zM762 1286v311h348v-311h-348z" />
<glyph unicode="&#xf8;" horiz-adv-x="1400" d="M82 578q0 302 162 456t456 154q103 0 203 -23l64 121h274l-139 -209q217 -153 217 -499q0 -302 -162.5 -456.5t-456.5 -154.5q-102 0 -202 23l-64 -121h-274l137 207q-215 155 -215 502zM492 569q0 -101 12 -168l266 508q-27 9 -61 9q-123 0 -170 -86t-47 -263zM631 244 q27 -6 61 -6q123 0 170 85.5t47 262.5q0 102 -14 168z" />
<glyph unicode="&#xf9;" horiz-adv-x="1413" d="M139 479v676h418v-676q0 -84 25 -119q38 -53 129 -53q48 0 79.5 15.5t44.5 44t17 52t4 56.5v680h418v-1155h-324l-73 201q-67 -226 -353 -226q-220 0 -319 144q-24 34 -38 70.5t-20 88t-7 88t-1 113.5zM279 1597h438l135 -311h-328z" />
<glyph unicode="&#xfa;" horiz-adv-x="1413" d="M139 479v676h418v-676q0 -84 25 -119q38 -53 129 -53q48 0 79.5 15.5t44.5 44t17 52t4 56.5v680h418v-1155h-324l-73 201q-67 -226 -353 -226q-220 0 -319 144q-24 34 -38 70.5t-20 88t-7 88t-1 113.5zM557 1286l135 311h438l-245 -311h-328z" />
<glyph unicode="&#xfb;" horiz-adv-x="1413" d="M139 479v676h418v-676q0 -84 25 -119q38 -53 129 -53q48 0 79.5 15.5t44.5 44t17 52t4 56.5v680h418v-1155h-324l-73 201q-67 -226 -353 -226q-220 0 -319 144q-24 34 -38 70.5t-20 88t-7 88t-1 113.5zM295 1286l229 311h361l229 -311h-323l-95 135l-94 -135h-307z" />
<glyph unicode="&#xfc;" horiz-adv-x="1413" d="M139 479v676h418v-676q0 -84 25 -119q38 -53 129 -53q48 0 79.5 15.5t44.5 44t17 52t4 56.5v680h418v-1155h-324l-73 201q-67 -226 -353 -226q-220 0 -319 144q-24 34 -38 70.5t-20 88t-7 88t-1 113.5zM295 1286v311h348v-311h-348zM766 1286v311h348v-311h-348z" />
<glyph unicode="&#xfd;" horiz-adv-x="1327" d="M29 1155h450l221 -655l222 655h376l-606 -1540h-418l197 410zM532 1286l136 311h438l-246 -311h-328z" />
<glyph unicode="&#xfe;" horiz-adv-x="1449" d="M139 -385v1982h410v-610q35 97 124 145t212 48q122 0 216.5 -46t151.5 -128t86 -187t29 -229q0 -126 -30 -235t-90 -195t-159.5 -135.5t-228.5 -49.5q-244 0 -311 168v-528h-410zM549 575q0 -68 9 -119t30 -92.5t59.5 -63t93.5 -21.5t94 21.5t60 63t30 92.5t9 119t-9 119 t-30 92.5t-60 63.5t-94 22t-93.5 -22t-59.5 -63.5t-30 -92.5t-9 -119z" />
<glyph unicode="&#xff;" horiz-adv-x="1327" d="M29 1155h450l221 -655l222 655h376l-606 -1540h-418l197 410zM270 1286v311h348v-311h-348zM741 1286v311h349v-311h-349z" />
<glyph unicode="&#x2000;" horiz-adv-x="1007" />
<glyph unicode="&#x2001;" horiz-adv-x="2015" />
<glyph unicode="&#x2002;" horiz-adv-x="1007" />
<glyph unicode="&#x2003;" horiz-adv-x="2015" />
<glyph unicode="&#x2004;" horiz-adv-x="671" />
<glyph unicode="&#x2005;" horiz-adv-x="503" />
<glyph unicode="&#x2006;" horiz-adv-x="335" />
<glyph unicode="&#x2007;" horiz-adv-x="335" />
<glyph unicode="&#x2008;" horiz-adv-x="251" />
<glyph unicode="&#x2009;" horiz-adv-x="403" />
<glyph unicode="&#x200a;" horiz-adv-x="111" />
<glyph unicode="&#x2010;" horiz-adv-x="909" d="M115 492v311h680v-311h-680z" />
<glyph unicode="&#x2011;" horiz-adv-x="909" d="M115 492v311h680v-311h-680z" />
<glyph unicode="&#x2012;" horiz-adv-x="909" d="M115 492v311h680v-311h-680z" />
<glyph unicode="&#x2013;" horiz-adv-x="1376" d="M147 500v295h1082v-295h-1082z" />
<glyph unicode="&#x2014;" horiz-adv-x="2154" d="M147 500v295h1860v-295h-1860z" />
<glyph unicode="&#x2018;" horiz-adv-x="692" d="M90 995l164 602h295l-82 -602h-377z" />
<glyph unicode="&#x2019;" horiz-adv-x="704" d="M123 995l82 602h377l-164 -602h-295z" />
<glyph unicode="&#x201c;" horiz-adv-x="1155" d="M98 995l156 602h278l-81 -602h-353zM573 995l156 602h279l-82 -602h-353z" />
<glyph unicode="&#x201d;" horiz-adv-x="1155" d="M123 995l82 602h352l-156 -602h-278zM598 995l82 602h352l-155 -602h-279z" />
<glyph unicode="&#x201e;" horiz-adv-x="1114" d="M98 -254l82 602h352l-155 -602h-279zM573 -254l82 602h353l-156 -602h-279z" />
<glyph unicode="&#x2022;" horiz-adv-x="786" d="M139 393v516h516v-516h-516z" />
<glyph unicode="&#x2026;" horiz-adv-x="2064" d="M205 0v360h377v-360h-377zM844 0v360h377v-360h-377zM1483 0v360h377v-360h-377z" />
<glyph unicode="&#x202f;" horiz-adv-x="403" />
<glyph unicode="&#x2039;" horiz-adv-x="794" d="M98 647l238 467h360l-262 -463l262 -471h-360z" />
<glyph unicode="&#x203a;" horiz-adv-x="794" d="M98 180l262 463l-262 471h361l237 -467l-237 -467h-361z" />
<glyph unicode="&#x205f;" horiz-adv-x="503" />
<glyph unicode="&#x20ac;" horiz-adv-x="1353" d="M61 451v202h154v47q0 38 2 56h-156v202h191q66 215 243.5 340t458.5 125q74 0 145.5 -8.5t106.5 -16.5l35 -9v-297h-16q-117 38 -236 38q-222 0 -311 -172h459l-47 -202h-463q-2 -16 -2 -47q0 -38 2 -56h440l-45 -202h-342q93 -172 311 -172q52 0 110.5 9.5t90.5 19.5 l33 9h16v-297q-119 -34 -287 -34q-285 0 -462.5 124.5t-241.5 340.5h-189z" />
<glyph unicode="&#x2122;" horiz-adv-x="1830" d="M41 1315v225h614v-225h-163v-467h-287v467h-164zM766 848v692h389l98 -348l99 348h381v-692h-271v422l-119 -381h-221l-118 381v-422h-238z" />
<glyph unicode="&#x25fc;" horiz-adv-x="1157" d="M0 0v1157h1157v-1157h-1157z" />
</font>
</defs>
</svg>
