<?xml version="1.0" standalone="no"?>
<!DOCTYPE svg PUBLIC "-//W3C//DTD SVG 1.1//EN" "http://www.w3.org/Graphics/SVG/1.1/DTD/svg11.dtd" >
<svg xmlns="http://www.w3.org/2000/svg">
<metadata></metadata>
<defs>
<font id="berninosansbold" horiz-adv-x="1299" >
<font-face units-per-em="2048" ascent="1643" descent="-405" />
<missing-glyph horiz-adv-x="527" />
<glyph horiz-adv-x="2048" />
<glyph horiz-adv-x="2048" />
<glyph unicode="&#xd;" horiz-adv-x="682" />
<glyph unicode=" "  horiz-adv-x="527" />
<glyph unicode="&#x09;" horiz-adv-x="527" />
<glyph unicode="&#xa0;" horiz-adv-x="527" />
<glyph unicode="!" horiz-adv-x="653" d="M203 1437h271l-27 -1021h-218zM210 0v241h256v-241h-256z" />
<glyph unicode="&#x22;" horiz-adv-x="861" d="M172 976v514h218l-73 -514h-145zM489 976v514h218l-73 -514h-145z" />
<glyph unicode="#" horiz-adv-x="1501" d="M141 275l18 178h215l41 409h-216l17 177h216l28 275h209l-29 -275h296l29 275h208l-29 -275h216l-17 -177h-216l-40 -409h216l-17 -178h-218l-27 -275h-208l27 275h-296l-27 -275h-208l26 275h-214zM583 453h296l40 409h-296z" />
<glyph unicode="$" horiz-adv-x="1173" d="M113 944q0 154 120 239q121 86 338 95l12 159h183l-21 -163q132 -9 269 -44v-191h-15q-131 40 -275 52l-38 -342q68 -19 114 -36q40 -14 103 -49q54 -30 89 -68q35 -39 57 -92q23 -57 23 -124q0 -84 -33 -149q-34 -67 -92 -106q-61 -41 -143 -62q-83 -21 -187 -27 l-11 -158h-184l19 160q-164 13 -298 54v195h16q131 -47 305 -63l38 359q-28 9 -115 40q-40 14 -103 49q-59 33 -90 65q-33 35 -57 88q-24 54 -24 119zM338 961q0 -60 49 -98t140 -68l29 300q-218 -12 -218 -134zM630 218q116 8 166 40t50 94q0 65 -47 105q-46 39 -138 74z " />
<glyph unicode="%" horiz-adv-x="1700" d="M107 1005q0 149 97 242q96 92 245 92q147 0 243 -92q97 -93 97 -242q0 -148 -97 -241q-98 -93 -243 -93q-147 0 -245 93q-97 93 -97 241zM195 0v13l596 692l481 609h235v-11l-598 -694l-481 -609h-233zM290 1005q0 -82 44 -132t115 -50q69 0 113 50t44 132q0 84 -44 133 q-44 48 -113 48t-114 -48t-45 -133zM911 309q0 149 98 242q97 93 244 93t244 -92q96 -91 96 -241q0 -149 -96 -242q-97 -94 -244 -94q-144 0 -243 93t-99 241zM1095 309q0 -78 44 -130q43 -51 114 -51q69 0 113 51q44 52 44 132t-44 130t-113 50q-70 0 -114 -50t-44 -132z " />
<glyph unicode="&#x26;" horiz-adv-x="1499" d="M86 348q0 133 77 223q79 92 225 170q-100 100 -148 185q-47 83 -47 182q0 157 114 256t306 99q188 0 294 -91q107 -92 107 -231q0 -66 -22 -122q-21 -53 -70 -107q-44 -48 -97 -90q-48 -38 -124 -85l317 -298q66 142 88 337h229q-30 -272 -164 -463l313 -298v-15h-301 l-169 160q-166 -183 -452 -183q-221 0 -348 100q-128 101 -128 271zM350 365q0 -95 72 -152q71 -56 184 -56q160 0 279 126l-363 336q-85 -62 -128 -120q-44 -59 -44 -134zM437 1120q0 -64 38 -131q39 -69 115 -145q98 68 153 134q54 64 54 145q0 77 -51 123q-49 45 -129 45 q-81 0 -130 -46q-50 -47 -50 -125z" />
<glyph unicode="'" horiz-adv-x="563" d="M172 976v514h237l-69 -514h-168z" />
<glyph unicode="(" horiz-adv-x="689" d="M111 598q0 138 28 283q27 142 73 252q46 112 97 200q52 91 107 157h184q-104 -147 -176 -378q-72 -232 -72 -514t72 -514q72 -231 176 -378h-184q-57 68 -107 156q-49 85 -97 201q-46 110 -73 252q-28 145 -28 283z" />
<glyph unicode=")" horiz-adv-x="689" d="M90 -294q104 147 176 378q72 232 72 514t-72 514q-72 231 -176 378h183q58 -70 108 -157q51 -88 97 -200q46 -110 73 -252q28 -145 28 -283t-28 -283q-27 -142 -73 -252q-48 -116 -97 -201q-48 -84 -108 -156h-183z" />
<glyph unicode="*" horiz-adv-x="1077" d="M126 1194l55 170l274 -94l-6 289h180l-6 -289l273 94l55 -170l-277 -84l174 -231l-143 -105l-166 237l-166 -237l-144 105l174 231z" />
<glyph unicode="+" d="M145 445v187h396v419h217v-419h396v-187h-396v-418h-217v418h-396z" />
<glyph unicode="," horiz-adv-x="531" d="M76 -283l84 535h253l-149 -535h-188z" />
<glyph unicode="-" horiz-adv-x="844" d="M115 501v194h615v-194h-615z" />
<glyph unicode="." horiz-adv-x="527" d="M138 0v252h259v-252h-259z" />
<glyph unicode="/" horiz-adv-x="867" d="M34 -53l589 1543h210l-588 -1543h-211z" />
<glyph unicode="0" horiz-adv-x="1270" d="M136 651q0 81 6 150q5 62 22 142q15 74 40 129q27 60 65 108q40 51 91 85q49 33 121 53q69 19 157 19q89 0 156 -19q73 -21 121 -53q55 -37 90 -85q39 -53 63 -107q25 -55 40 -127q15 -70 21 -139q6 -67 6 -146q0 -80 -6 -149q-6 -72 -22 -139q-17 -74 -40 -128 q-25 -60 -64 -109q-41 -51 -92 -86q-51 -34 -122 -54q-69 -19 -157 -19q-117 0 -208 38q-89 37 -144 100q-54 62 -87 151q-33 90 -45 181t-12 204zM399 657q0 -262 56 -380q56 -117 179 -117q126 0 182 116q55 114 55 381t-55 381q-56 116 -182 116q-123 0 -179 -117 q-56 -118 -56 -380z" />
<glyph unicode="1" horiz-adv-x="781" d="M67 1003v191l370 120h169v-1314h-249v1097l-277 -94h-13z" />
<glyph unicode="2" horiz-adv-x="1060" d="M107 0v170q21 21 119 121q23 23 60.5 62t50.5 52q31 31 93 98q56 60 84 96q31 40 63 85q34 49 51 86q13 27 27 78q12 42 12 84q0 100 -61 154q-63 55 -184 55q-123 0 -281 -50h-13v193q162 44 329 44q236 0 356 -99q119 -98 119 -266q0 -71 -23 -143q-23 -71 -56 -127 q-31 -52 -94 -126q-55 -65 -108 -116q-11 -10 -54.5 -53t-74.5 -73q-55 -53 -130 -128h556v-197h-841z" />
<glyph unicode="3" horiz-adv-x="1050" d="M109 29v189h13q147 -44 275 -44q131 0 202 52q72 52 72 152q0 113 -94 168q-35 20 -76 29q-47 10 -71 11q-18 1 -73 1h-132v189h134q134 0 199 38q86 50 86 155q0 82 -57 127t-174 45q-128 0 -275 -46h-16v191q153 42 315 42q227 0 346 -88q121 -89 121 -241 q0 -117 -70 -198q-68 -79 -190 -106q130 -20 208 -104q80 -86 80 -220q0 -177 -140 -280q-142 -104 -387 -104q-165 0 -296 42z" />
<glyph unicode="4" horiz-adv-x="1182" d="M78 271v176l533 867h285v-852h197v-191h-197v-271h-229v271h-589zM298 462h369v598z" />
<glyph unicode="5" horiz-adv-x="1067" d="M130 32v193h13q162 -51 294 -51q135 0 202 60q68 60 68 163q0 108 -75 167q-76 59 -235 59q-89 0 -227 -17h-13l36 708h699v-194h-500l-19 -320q69 8 129 8q220 0 341 -110q120 -109 120 -293q0 -197 -140 -308q-138 -110 -382 -110q-175 0 -311 45z" />
<glyph unicode="6" horiz-adv-x="1199" d="M136 581q0 267 67 431q67 165 200 240q134 76 336 76q139 0 266 -31v-195h-13q-136 39 -253 39q-191 0 -271 -118t-80 -370q33 88 112 134t193 46q184 0 293 -112t109 -297q0 -201 -127 -324q-128 -123 -355 -123q-260 0 -380 166q-97 133 -97 438zM395 409 q0 -111 57 -182q57 -70 165 -70q106 0 164 67q60 69 60 185q0 111 -57 178q-57 68 -163 68q-105 0 -165 -66q-61 -67 -61 -180z" />
<glyph unicode="7" horiz-adv-x="999" d="M57 1120v194h864v-141l-438 -1173h-271l445 1120h-600z" />
<glyph unicode="8" horiz-adv-x="1184" d="M109 331q0 233 277 336q-111 46 -175 130q-64 83 -64 198q0 160 120 250t327 90q205 0 324 -88t119 -240q0 -110 -65 -190t-177 -122q132 -47 205 -135q76 -91 76 -214q0 -169 -132 -268t-359 -99q-221 0 -349 95q-127 94 -127 257zM365 353q0 -95 60 -148 q59 -52 165 -52q108 0 168 53q62 54 62 138q0 92 -72 151t-205 105q-84 -37 -131 -100q-47 -62 -47 -147zM399 990q0 -84 62 -138q58 -51 177 -95q67 36 106 91q41 58 41 134q0 85 -50 132q-51 48 -143 48q-90 0 -141 -48q-52 -49 -52 -124z" />
<glyph unicode="9" horiz-adv-x="1199" d="M105 890q0 201 127 324t355 123q260 0 380 -166q97 -133 97 -437q0 -265 -68 -431q-68 -167 -199 -241q-132 -75 -337 -75q-142 0 -265 30v195h13q134 -38 252 -38q193 0 272 116q80 118 80 371q-29 -87 -110 -134q-79 -46 -196 -46q-185 0 -293 111t-108 298zM361 906 q0 -113 55 -180t163 -67q105 0 165 66t60 181q0 112 -56 181q-57 71 -165 71q-106 0 -164 -67t-58 -185z" />
<glyph unicode=":" horiz-adv-x="580" d="M160 0v245h260v-245h-260zM160 791v244h260v-244h-260z" />
<glyph unicode=";" horiz-adv-x="580" d="M84 -283l84 535h252l-149 -535h-187zM160 791v244h260v-244h-260z" />
<glyph unicode="&#x3c;" d="M187 436v206l852 355v-198l-653 -256l653 -264v-199z" />
<glyph unicode="=" d="M195 256v176h909v-176h-909zM195 646v175h909v-175h-909z" />
<glyph unicode="&#x3e;" d="M260 80v199l653 256l-653 264v198l852 -355v-206z" />
<glyph unicode="?" horiz-adv-x="1046" d="M115 1204v194q156 54 351 54q244 0 371 -95q126 -95 126 -264q0 -52 -14 -102q-15 -55 -32 -83q-19 -32 -52 -68q-37 -40 -57 -58q-3 -3 -61 -51q-14 -12 -33 -28.5t-22 -18.5q-42 -39 -60 -67q-21 -33 -30 -69q-11 -44 -12 -61q-2 -34 -2 -71h-225q0 51 1 66q4 55 4 59 q3 35 12 61q8 24 24 55q18 36 38 61q25 32 59 61q3 2 11.5 10t18 17t20.5 18q3 3 57 53q20 19 47 52q23 29 38 68q14 37 14 77q0 90 -67 138q-69 49 -197 49q-152 0 -313 -57h-15zM348 0v241h256v-241h-256z" />
<glyph unicode="@" horiz-adv-x="1948" d="M193 562q0 225 105 402q104 176 289 275q183 98 416 98q167 0 310 -54q142 -54 239 -149q96 -94 150 -222t54 -272q0 -209 -104 -339q-104 -129 -273 -129q-93 0 -149 42q-55 41 -67 115q-23 -69 -83 -113q-61 -44 -155 -44q-145 0 -234 105q-89 106 -89 288 q0 187 91 294q91 108 243 108q157 0 216 -134l46 115h114v-470v-52q0 -14 5 -41q4 -22 14 -35q9 -12 24 -20q17 -9 42 -9q80 0 128 76q47 75 47 220q0 253 -151 408q-151 156 -420 156q-279 0 -452 -168t-173 -442q0 -275 183 -440t513 -165q143 0 282 28q136 28 245 71h15 v-172q-282 -84 -552 -84q-203 0 -367 55t-274 156q-111 102 -169 239q-59 139 -59 303zM797 565q0 -117 40 -176q41 -60 128 -60t128 60q40 59 40 176q0 245 -168 245t-168 -245z" />
<glyph unicode="A" horiz-adv-x="1337" d="M19 0l520 1437h267l512 -1437h-275l-120 359h-549l-122 -359h-233zM441 550h419l-207 619z" />
<glyph unicode="B" d="M176 0v1437h462q63 0 119 -2q44 -2 106 -16q63 -15 111 -43q157 -92 157 -293q0 -139 -73 -218q-71 -77 -179 -97q66 -6 120 -28q57 -23 106 -62q50 -40 80 -109t30 -158q0 -219 -180 -331q-58 -38 -134 -57q-78 -20 -125 -21q-64 -2 -130 -2h-470zM428 183h206 q36 0 70 2q17 1 68 12q43 9 76 28q103 58 103 191q0 134 -103 192q-33 19 -76 28q-51 11 -68 12q-34 2 -70 2h-206v-467zM428 844h176q45 0 59 1q15 1 53 8q30 6 60 22q91 54 91 172q0 122 -91 176q-30 16 -60 22q-29 5 -53 7q-14 1 -59 1h-176v-409z" />
<glyph unicode="C" horiz-adv-x="1216" d="M103 718q0 125 25 231q26 109 80 200q54 90 136 160q79 67 197 105q119 38 259 38q175 0 312 -46v-199h-15q-132 54 -274 54q-89 0 -167 -28q-75 -27 -127 -76q-50 -47 -87 -116q-34 -64 -51 -146t-17 -169q0 -90 17 -172q18 -86 51 -151q36 -71 87 -120q52 -51 128 -79 q75 -28 168 -28q144 0 272 53h15v-198q-137 -46 -312 -46q-139 0 -258 38t-198 105q-82 70 -136 160q-54 91 -80 200q-25 106 -25 230z" />
<glyph unicode="D" horiz-adv-x="1474" d="M176 0v1437h401q57 0 117 -2q32 -1 118 -10q75 -8 137 -28q67 -22 125 -56q137 -79 217 -235q81 -157 81 -388q0 -228 -81 -387q-78 -154 -225 -237q-61 -36 -125 -55q-71 -21 -139 -28q-72 -7 -114 -9q-56 -2 -111 -2h-401zM432 191h160q53 0 107 2q40 1 97 15 q56 13 102 40q107 62 155 179q47 115 47 291q0 175 -47 291q-47 117 -159 179q-47 26 -108 40q-65 15 -96 16q-48 2 -98 2h-160v-1055z" />
<glyph unicode="E" horiz-adv-x="1165" d="M176 0v1437h859v-195h-607v-398h516v-194h-516v-455h638v-195h-890z" />
<glyph unicode="F" horiz-adv-x="1085" d="M176 0v1437h840v-199h-584v-470h519v-199h-519v-569h-256z" />
<glyph unicode="G" horiz-adv-x="1425" d="M103 707q0 186 57 330q57 143 160 233q102 89 245 136q139 46 314 46q201 0 363 -50v-202h-15q-158 61 -341 61q-244 0 -378 -134t-134 -405q0 -268 128 -410q127 -140 346 -140q103 0 187 27v370h-256v191h509v-703q-197 -76 -442 -76q-165 0 -302 44t-235 132t-152 227 q-54 140 -54 323z" />
<glyph unicode="H" horiz-adv-x="1497" d="M176 0v1437h256v-593h634v593h256v-1437h-256v650h-634v-650h-256z" />
<glyph unicode="I" horiz-adv-x="607" d="M176 0v1437h256v-1437h-256z" />
<glyph unicode="J" horiz-adv-x="855" d="M31 11v195h15q85 -26 160 -26q126 0 180 80q20 27 27 63t9 63q2 36 2 80v971h256v-952q0 -57 -2 -115q-1 -43 -21 -109q-20 -69 -53 -116q-112 -156 -379 -156q-107 0 -194 22z" />
<glyph unicode="K" horiz-adv-x="1333" d="M176 0v1437h252v-642l569 642h279l-535 -596l547 -841h-302l-417 661l-141 -145v-516h-252z" />
<glyph unicode="L" horiz-adv-x="1027" d="M176 0v1437h256v-1238h569v-199h-825z" />
<glyph unicode="M" horiz-adv-x="1902" d="M176 0v1437h325l458 -1097l447 1097h321v-1437h-252v1123l-424 -1050h-226l-424 1050v-1123h-225z" />
<glyph unicode="N" horiz-adv-x="1513" d="M176 0v1437h248l688 -1021v1021h225v-1437h-225l-711 1039v-1039h-225z" />
<glyph unicode="O" horiz-adv-x="1543" d="M103 716q0 350 176 549q175 198 497 198q321 0 493 -197q171 -196 171 -546q0 -351 -175 -548q-176 -199 -497 -199q-320 0 -493 198q-172 197 -172 545zM374 718q0 -274 102 -414t296 -140t296 140q101 138 101 414q0 277 -101 415q-102 139 -296 139t-296 -139 t-102 -415z" />
<glyph unicode="P" horiz-adv-x="1257" d="M176 0v1437h389q64 0 132 -2q53 -2 138 -21q83 -19 147 -58q95 -57 145 -156q50 -100 50 -228q0 -137 -57 -242q-58 -106 -157 -165q-57 -34 -134 -51q-76 -16 -131 -21q-48 -4 -136 -4h-130v-489h-256zM432 680h149q40 0 78 2q31 2 75 13q45 12 76 35q99 72 99 233 q0 164 -99 233q-29 22 -76 34q-49 13 -75 14q-38 2 -78 2h-149v-566z" />
<glyph unicode="Q" horiz-adv-x="1543" d="M103 716q0 350 176 549q175 198 497 198q321 0 493 -197q171 -196 171 -546q0 -234 -79 -402q-79 -169 -230 -257l210 -286h-290l-142 210q-69 -12 -141 -12q-320 0 -493 198q-172 197 -172 545zM374 718q0 -274 102 -414t296 -140t296 140q101 138 101 414 q0 277 -101 415q-102 139 -296 139t-296 -139t-102 -415z" />
<glyph unicode="R" horiz-adv-x="1318" d="M176 0v1437h477q46 0 92 -2q11 0 90 -9q51 -5 106 -25q50 -18 94 -48q161 -110 161 -340q0 -160 -75 -262t-206 -145l354 -606h-287l-313 569h-241v-569h-252zM428 760h222q133 0 194 42q88 58 88 201q0 138 -88 199q-27 17 -68 29q-42 12 -62 13q-32 2 -64 2h-222v-486z " />
<glyph unicode="S" horiz-adv-x="1134" d="M117 1062q0 185 132 287q133 103 368 103q183 0 348 -54v-194h-16q-181 65 -324 65q-119 0 -180 -46t-61 -126q0 -47 22 -84q24 -40 60 -66q39 -28 86 -53q42 -22 102 -49q81 -36 109 -50q54 -27 102 -63q46 -34 86 -81q40 -46 61 -107q22 -63 22 -141q0 -138 -72 -234 q-73 -97 -191 -140q-121 -44 -280 -44q-209 0 -371 65v202h16q202 -84 365 -84q120 0 193 56q72 56 72 147q0 50 -22 90q-23 41 -60 71q-35 28 -86 55q-48 25 -102 51q-90 42 -109 52q-58 29 -102 62q-52 39 -86 77q-37 42 -60 101q-22 57 -22 132z" />
<glyph unicode="T" horiz-adv-x="1142" d="M42 1238v199h1058v-199h-401v-1238h-256v1238h-401z" />
<glyph unicode="U" horiz-adv-x="1467" d="M176 569v868h256v-910q0 -87 13 -146q14 -62 48 -113q34 -50 98 -77q65 -27 158 -27t158 27q64 27 98 77q34 51 48 113q13 59 13 146v910h225v-868q0 -78 -1 -103q-1 -22 -12 -102q-9 -62 -35 -119t-66 -104q-145 -168 -445 -168q-298 0 -442 168q-40 47 -66 104t-35 119 q-10 70 -11 102q-2 50 -2 103z" />
<glyph unicode="V" horiz-adv-x="1348" d="M34 1437h279l379 -1154l393 1154h229l-519 -1437h-252z" />
<glyph unicode="W" horiz-adv-x="1994" d="M50 1437h271l283 -1116l290 1081h256l290 -1081l283 1116h222l-394 -1437h-260l-294 1093l-294 -1093h-260z" />
<glyph unicode="X" horiz-adv-x="1371" d="M46 0l477 737l-454 700h305l337 -539l336 539h252l-455 -692l486 -745h-310l-359 581l-367 -581h-248z" />
<glyph unicode="Y" horiz-adv-x="1268" d="M21 1437h298l344 -646l344 646h241l-486 -872v-565h-256v562z" />
<glyph unicode="Z" horiz-adv-x="1234" d="M99 0v183l715 1059h-692v195h994v-176l-719 -1066h734v-195h-1032z" />
<glyph unicode="[" horiz-adv-x="783" d="M176 -294v1784h504v-183h-279v-1418h279v-183h-504z" />
<glyph unicode="\" horiz-adv-x="867" d="M34 1490h211l588 -1543h-210z" />
<glyph unicode="]" horiz-adv-x="787" d="M107 -111h279v1418h-279v183h504v-1784h-504v183z" />
<glyph unicode="^" horiz-adv-x="1002" d="M84 764l294 673h247l292 -673h-235l-187 463l-191 -463h-220z" />
<glyph unicode="_" horiz-adv-x="725" d="M-8 -57h742v-172h-742v172z" />
<glyph unicode="`" horiz-adv-x="1146" d="M229 1490h275l165 -286h-195z" />
<glyph unicode="a" horiz-adv-x="1111" d="M82 294q0 178 138 260q48 28 105 44q61 17 130 23q80 7 120 8q33 1 141 1q0 50 -1 66q-2 28 -7 57q-5 30 -22 53q-50 73 -199 73q-141 0 -294 -54h-15v199q160 42 338 42q291 0 388 -141q28 -42 42 -93q13 -49 16 -101q3 -51 3 -127v-604h-187l-50 172q-15 -81 -90 -138 t-204 -57q-154 0 -253 84t-99 233zM342 304q0 -64 38 -100q37 -36 115 -36q64 0 114 26q51 26 77 73q30 59 30 184v23q-112 0 -184 -8q-68 -8 -114 -30q-76 -40 -76 -132z" />
<glyph unicode="b" horiz-adv-x="1257" d="M157 0v1490h248v-615q27 91 105 145t205 54q207 0 327 -144t120 -399q0 -259 -127 -407q-126 -147 -349 -147q-240 0 -308 180l-65 -157h-156zM401 522q0 -168 59 -265t188 -97q128 0 187 98t59 265t-59 264q-59 96 -187 96q-126 0 -187 -97q-60 -96 -60 -264z" />
<glyph unicode="c" horiz-adv-x="945" d="M96 523q0 256 135 400q134 143 392 143q127 0 229 -31v-202h-15q-96 42 -197 42q-137 0 -207 -91t-70 -257q0 -165 70 -259q68 -92 205 -92q97 0 199 42h15v-203q-99 -30 -227 -30q-260 0 -395 141q-134 140 -134 397z" />
<glyph unicode="d" horiz-adv-x="1257" d="M96 520q0 164 51 288t157 195t254 71q232 0 294 -180v596h248v-1490h-194l-50 176q-25 -91 -106 -145t-209 -54q-215 0 -330 147q-115 146 -115 396zM363 525q0 -164 59 -261q58 -96 187 -96t188 97t59 262q0 163 -59 260q-59 96 -188 96t-187 -96q-59 -97 -59 -262z" />
<glyph unicode="e" horiz-adv-x="1134" d="M96 518q0 259 128 410q127 149 361 149q130 0 224 -47q96 -48 150 -136q36 -57 50 -122q14 -64 19 -138q4 -63 4 -179h-677q0 -137 78 -212t224 -75q137 0 298 57h16v-194q-151 -46 -333 -46q-264 0 -401 130q-141 135 -141 403zM355 627h421q0 136 -47 206 q-47 69 -152 69q-108 0 -159 -71t-63 -204z" />
<glyph unicode="f" horiz-adv-x="855" d="M46 852v183h202v65q0 49 2 91q1 23 12 76q9 44 32 82q85 145 335 145q89 0 166 -15v-195h-16q-74 23 -135 23q-95 0 -128 -65q-19 -39 -19 -145v-62h298v-183h-298v-852h-249v852h-202z" />
<glyph unicode="g" horiz-adv-x="1260" d="M96 541q0 246 124 389q124 144 349 144q234 0 314 -176l68 153h153v-898q0 -51 -2 -95q-2 -41 -7 -86q-6 -51 -21 -95t-42 -80q-130 -187 -486 -187q-207 0 -370 58v214h15q196 -85 365 -85q93 0 162 30t103 85q19 28 27 70q9 48 10 71q2 40 2 85v72q-30 -90 -113 -138 q-84 -49 -204 -49q-211 0 -329 137t-118 381zM363 546q0 -340 248 -340q249 0 249 340q0 344 -249 344q-248 0 -248 -344z" />
<glyph unicode="h" horiz-adv-x="1216" d="M159 0v1490h248v-604q57 188 298 188q210 0 306 -138q28 -41 43 -97q14 -53 16 -98q2 -56 2 -122v-619h-252v623q0 49 -1 63q-2 22 -10 53q-9 34 -24 56q-49 76 -166 76q-56 0 -95 -16q-42 -17 -62 -40t-34 -57q-12 -30 -17 -59q-4 -24 -4 -57v-642h-248z" />
<glyph unicode="i" horiz-adv-x="561" d="M153 1211v226h256v-226h-256zM157 0v1051h248v-1051h-248z" />
<glyph unicode="j" horiz-adv-x="565" d="M-88 -183h15q45 -8 83 -8q94 0 128 61q11 18 16 45q4 25 6 44v52v1040h249v-1028q0 -48 -2 -88q-1 -29 -12 -76q-10 -45 -32 -84q-89 -149 -338 -149q-70 0 -113 7v184zM157 1211v226h256v-226h-256z" />
<glyph unicode="k" horiz-adv-x="1146" d="M157 0v1490h248v-879l394 440h275l-394 -428l409 -623h-290l-287 459l-107 -107v-352h-248z" />
<glyph unicode="l" horiz-adv-x="561" d="M157 0v1490h248v-1490h-248z" />
<glyph unicode="m" horiz-adv-x="1822" d="M157 0v1051h195l45 -180q54 203 304 203q129 0 206 -54q78 -55 113 -156q38 107 113 158q76 52 193 52q112 0 183 -40q74 -42 111 -98q26 -41 40 -97q13 -55 15 -98q2 -56 2 -122v-619h-252v623q0 49 -1 63q-2 24 -7 53q-6 32 -22 56q-49 76 -157 76q-51 0 -86 -16 q-37 -17 -57 -40q-21 -24 -33 -57q-10 -26 -15 -59q-4 -24 -4 -57v-642h-252v623q0 49 -1 63q-1 15 -8 53q-6 32 -22 56q-49 76 -156 76q-51 0 -86 -16q-38 -18 -58 -40q-19 -22 -32 -57q-10 -26 -15 -59q-4 -24 -4 -57v-642h-252z" />
<glyph unicode="n" horiz-adv-x="1222" d="M159 0v1051h194l46 -180q57 203 312 203q210 0 303 -138q28 -42 42 -89q14 -49 17 -97q3 -51 3 -131v-619h-253v623q0 32 -2 70q-1 29 -9 54q-7 24 -23 48q-49 76 -166 76q-56 0 -95 -16q-42 -17 -62 -40t-34 -57q-12 -30 -17 -59q-4 -24 -4 -57v-642h-252z" />
<glyph unicode="o" horiz-adv-x="1222" d="M97 523q0 266 134 411q133 143 382 143q246 0 379 -140t133 -410q0 -267 -133 -410q-134 -144 -383 -144q-245 0 -378 141q-134 142 -134 409zM365 525q0 -181 61 -276q62 -96 185 -96q247 0 247 372q0 181 -61 276q-62 97 -186 97q-246 0 -246 -373z" />
<glyph unicode="p" horiz-adv-x="1257" d="M157 -374v1425h195l49 -176q25 91 106 145t209 54q214 0 330 -147q116 -148 116 -396q0 -161 -52 -288q-51 -124 -157 -195t-254 -71q-233 0 -294 180v-531h-248zM401 523q0 -162 59 -259q58 -96 188 -96q128 0 187 96q59 97 59 261q0 165 -59 262q-59 96 -187 96 q-129 0 -188 -97t-59 -263z" />
<glyph unicode="q" horiz-adv-x="1257" d="M96 520q0 260 126 407t349 147q241 0 308 -180l65 157h156v-1425h-248v550q-27 -91 -105 -145t-204 -54q-209 0 -328 143t-119 400zM363 527q0 -166 59 -263q58 -96 187 -96q126 0 187 97q60 96 60 264t-59 265q-59 96 -188 96t-187 -97q-59 -98 -59 -266z" />
<glyph unicode="r" horiz-adv-x="785" d="M157 0v1051h191l49 -207q15 66 45 109q31 45 74 67q48 25 92 33q48 9 110 9h27v-237q-54 12 -111 12q-41 0 -83 -10q-35 -8 -60 -25q-22 -15 -39 -38q-15 -21 -25 -42q-8 -18 -13 -49q-5 -33 -5 -44v-41v-588h-252z" />
<glyph unicode="s" horiz-adv-x="936" d="M113 34v203h15q169 -65 294 -65q82 0 123 29q42 30 42 78q0 37 -26 68q-24 29 -68 49q-52 24 -93 41q-40 16 -101 47q-46 23 -93 60q-42 33 -67 86q-26 55 -26 125q0 146 109 228q110 83 305 83q142 0 262 -38v-203h-15q-141 54 -252 54q-76 0 -117 -27q-40 -27 -40 -69 q0 -32 26 -58q25 -25 68 -45q34 -16 92 -38q48 -18 101 -48q51 -28 93 -63t68 -94q26 -60 26 -131q0 -161 -116 -241t-314 -80q-174 0 -296 49z" />
<glyph unicode="t" horiz-adv-x="873" d="M46 852v183h191v272l248 72v-344h291v-183h-291v-474q0 -51 1 -65q1 -20 6 -46q5 -27 16 -45q30 -50 113 -50q71 0 139 27h16v-191q-90 -23 -191 -23q-223 0 -302 118q-23 37 -32 73q-8 31 -11 81q-3 45 -3 117v478h-191z" />
<glyph unicode="u" horiz-adv-x="1216" d="M157 432v619h252v-623q0 -49 1 -63q2 -28 9 -54q9 -32 24 -55q54 -76 172 -76q191 0 191 229v642h252v-1051h-194l-46 180q-22 -93 -102 -148q-79 -55 -208 -55q-202 0 -290 130q-28 41 -43 99q-14 55 -16 101q-2 58 -2 125z" />
<glyph unicode="v" horiz-adv-x="1169" d="M65 1051h283l260 -768l267 768h229l-397 -1051h-248z" />
<glyph unicode="w" horiz-adv-x="1725" d="M82 1051h264l198 -768l214 745h249l214 -745l198 768h222l-302 -1051h-260l-217 757l-218 -757h-260z" />
<glyph unicode="x" horiz-adv-x="1155" d="M67 0l351 531l-340 520h310l214 -356l218 356h252l-336 -508l359 -543h-310l-233 378l-233 -378h-252z" />
<glyph unicode="y" horiz-adv-x="1165" d="M63 1051h283l260 -745l267 745h229l-554 -1425h-252l172 393z" />
<glyph unicode="z" horiz-adv-x="1012" d="M111 0v199l489 653h-482v183h780v-183l-501 -669h509v-183h-795z" />
<glyph unicode="{" horiz-adv-x="781" d="M73 506v184q91 0 129 22q39 22 39 98v344q0 33 2 67q1 21 8 63q6 36 25 70q17 29 47 58q29 26 70 45q39 18 90 24q44 5 89 7q50 2 106 2v-183q-37 0 -73 -2q-26 -1 -58 -11q-30 -9 -46 -25q-17 -17 -25 -42q-10 -30 -10 -67v-337v-36q0 -16 -4 -37q-5 -29 -9 -38 q-8 -21 -17 -35q-12 -19 -27 -33q-16 -14 -41 -26q-27 -13 -59 -20q32 -7 59 -20q25 -12 41 -26q15 -14 27 -33q9 -14 17 -35q4 -9 9 -38q4 -21 4 -36v-37v-337q0 -37 10 -67q9 -27 25 -43q15 -15 46 -24q32 -10 59 -11q38 -2 72 -2v-183q-56 0 -106 2q-45 2 -89 7 q-50 6 -89 23q-36 16 -71 46q-33 30 -48 58q-18 35 -24 70q-7 42 -8 63q-2 34 -2 67v344q0 76 -39 98q-38 22 -129 22z" />
<glyph unicode="|" horiz-adv-x="588" d="M176 -374v1864h237v-1864h-237z" />
<glyph unicode="}" horiz-adv-x="781" d="M103 -111q38 0 74 2q25 1 57 11t45 24q16 18 26 43q10 26 10 67v337q0 27 1 36q2 14 3 37q1 21 8 38q8 21 17 35q11 19 29 33q18 15 42 26q29 14 57 20q-28 6 -57 20q-24 11 -42 26q-18 14 -29 33q-9 14 -17 35q-7 17 -8 38q-1 24 -3 36q-1 8 -1 37v337q0 41 -10 67 q-9 23 -26 42q-14 16 -45 25q-32 10 -57 11q-36 2 -74 2v183q57 0 105 -2q43 -2 90 -7q53 -6 92 -23q38 -17 69 -46q31 -28 47 -58q18 -34 25 -70q7 -38 9 -63q1 -17 1 -67v-344q0 -76 39 -98q38 -22 129 -22v-184q-91 0 -129 -22q-39 -22 -39 -98v-344q0 -50 -1 -67 q-2 -25 -9 -63q-7 -36 -25 -70q-16 -30 -47 -58q-28 -25 -69 -45q-37 -18 -92 -24q-47 -5 -90 -7q-48 -2 -105 -2v183z" />
<glyph unicode="~" d="M145 367v206q48 56 122 95q77 41 172 41q65 0 129 -24t105 -51q35 -23 95 -50q54 -24 103 -24q75 0 144 45q71 47 120 104h19v-207q-47 -54 -122 -94q-77 -41 -172 -41q-63 0 -129 23q-65 22 -105 51q-43 30 -95 52q-55 23 -103 23q-74 0 -144 -44q-72 -45 -120 -105h-19 z" />
<glyph unicode="&#xa1;" horiz-adv-x="609" d="M151 -374l29 1025h214l28 -1025h-271zM157 818v233h259v-233h-259z" />
<glyph unicode="&#xa2;" horiz-adv-x="1027" d="M96 596q0 230 129 362q130 133 356 150l15 206h176l-23 -208q92 -8 185 -30v-178h-15q-111 27 -187 36l-58 -682q110 5 245 42h15v-177q-142 -37 -273 -37l-13 -202h-176l23 216q-186 37 -293 167q-106 128 -106 335zM313 602q0 -122 51 -207q52 -86 148 -122l55 659 q-121 -21 -188 -107q-66 -86 -66 -223z" />
<glyph unicode="&#xa3;" horiz-adv-x="1066" d="M107 0v153q233 119 233 334q0 46 -13 98h-220v187h139q-55 113 -55 208q0 161 126 254q127 94 338 94q127 0 243 -31v-195h-13q-123 39 -230 39q-104 0 -160 -42q-54 -41 -54 -117q0 -27 9 -57q10 -35 16 -46q1 -2 29 -56q8 -15 16.5 -31.5t10.5 -19.5h340v-187h-277 q3 -28 3 -63q0 -228 -179 -331h556v-191h-858z" />
<glyph unicode="&#xa5;" horiz-adv-x="1287" d="M69 1314h279l317 -506l319 506h235l-413 -617h266v-154h-308v-130h308v-155h-308v-258h-241v258h-307v155h307v130h-307v154h264z" />
<glyph unicode="&#xa7;" horiz-adv-x="978" d="M96 573q0 97 55 155q57 60 141 82q-83 48 -125 102q-45 57 -45 139q0 125 107 202t302 77q153 0 298 -42v-180h-15q-153 54 -281 54q-81 0 -128 -26q-46 -25 -46 -72q0 -33 29 -64q28 -30 74 -52q60 -29 103 -46q38 -15 112 -52q52 -26 102 -63q47 -35 75 -88 q29 -55 29 -120q0 -98 -60 -160q-57 -59 -145 -85q83 -48 127 -104q47 -59 47 -142q0 -130 -109 -205q-108 -74 -309 -74q-158 0 -296 42v180h15q153 -54 283 -54q86 0 132 27q47 27 47 76q0 38 -28 67q-31 33 -75 54q-45 22 -101 46q-49 21 -111 53q-54 28 -101 64t-75 90 q-28 53 -28 119zM298 619q0 -22 8 -44q7 -19 17 -36q9 -15 32 -35l36 -28q19 -14 47 -27q12 -6 47 -23q4 -2 10.5 -5l19.5 -9t24 -11q20 -8 34 -15q43 22 74 61q29 36 29 88q0 32 -14 59q-16 30 -35 48q-20 18 -57 40q-34 20 -67 34l-77 33q-6 3 -15 6.5t-12 4.5 q-101 -49 -101 -141z" />
<glyph unicode="&#xa8;" horiz-adv-x="1146" d="M264 1219v218h223v-218h-223zM659 1219v218h224v-218h-224z" />
<glyph unicode="&#xa9;" horiz-adv-x="1706" d="M103 657q0 146 52 276q51 127 143 216t224 140q129 50 288 50q313 0 509 -190t196 -492q0 -146 -52 -276q-51 -127 -143 -216q-91 -88 -223 -139t-289 -51q-313 0 -509 190t-196 492zM275 657q0 -154 64 -273q65 -121 187 -191q124 -71 284 -71q242 0 387 151 q146 152 146 384q0 233 -146 385t-387 152q-160 0 -284 -71q-122 -70 -187 -192q-64 -121 -64 -274zM447 657q0 96 33 171q34 78 87 122q56 47 128 71t155 24q109 0 201 -34v-168h-16q-77 32 -160 32q-103 0 -157 -55q-53 -54 -53 -163q0 -108 53 -162q54 -56 157 -56 q81 0 160 33h16v-166q-97 -35 -201 -35q-84 0 -156 24t-127 70q-53 45 -87 121q-33 75 -33 171z" />
<glyph unicode="&#xaa;" horiz-adv-x="829" d="M63 942q0 119 101 174q45 25 111 37q68 13 113 14q64 2 137 2q0 35 -1 44q-3 25 -4 29q-4 14 -14 27q-34 43 -141 43q-111 0 -216 -36h-15v147q122 31 263 31q218 0 287 -98q18 -28 31 -68q10 -32 12 -65q1 -18 1 -77v-409h-157l-34 115q-19 -60 -75 -95t-145 -35 q-115 0 -184 57q-70 58 -70 163zM269 959q0 -86 111 -86q49 0 77 14q29 15 44 40q16 28 20 44q4 17 4 42v47q-52 0 -67 -1q-23 -2 -58 -3q-33 -1 -53 -8q-15 -5 -39 -17q-21 -10 -30 -29q-9 -18 -9 -43z" />
<glyph unicode="&#xab;" horiz-adv-x="1146" d="M107 598l245 411h233l-260 -407l260 -415h-233zM562 598l244 411h233l-260 -407l260 -415h-233z" />
<glyph unicode="&#xad;" horiz-adv-x="844" d="M115 501v194h615v-194h-615z" />
<glyph unicode="&#xae;" horiz-adv-x="1092" d="M80 1198q0 200 130 323q129 122 336 122q208 0 337 -122q130 -123 130 -323q0 -199 -130 -320t-337 -121q-206 0 -336 121t-130 320zM210 1200q0 -146 90 -237q90 -92 244 -92q155 0 247 92t92 237t-92 237q-91 91 -247 91q-154 0 -244 -91t-90 -237zM355 974v463h168 q48 0 63 -1q24 -2 52 -10q33 -10 54 -24q57 -40 57 -120q0 -100 -84 -140l99 -168h-145l-73 146h-61v-146h-130zM485 1215h61q73 0 73 61q0 65 -73 65h-61v-126z" />
<glyph unicode="&#xaf;" horiz-adv-x="1146" d="M275 1223v153h596v-153h-596z" />
<glyph unicode="&#xb0;" horiz-adv-x="959" d="M134 1175q0 143 97 233t249 90q150 0 248 -90q97 -90 97 -233t-97 -233q-98 -90 -248 -90q-152 0 -249 90t-97 233zM309 1175q0 -73 47 -125q47 -51 124 -51q76 0 123 51q47 52 47 125t-47 125q-47 51 -123 51t-125 -52q-46 -49 -46 -124z" />
<glyph unicode="&#xb1;" d="M195 0v168h909v-168h-909zM195 583v168h355v300h199v-300h355v-168h-355v-300h-199v300h-355z" />
<glyph unicode="&#xb2;" horiz-adv-x="750" d="M86 661v139q20 20 57 54q58 53 103 96q29 27 78 80q48 51 65 76q18 26 34 63q14 32 14 67q0 54 -37 82q-38 29 -108 29q-76 0 -185 -31h-10v155q108 29 226 29q167 0 249 -64q83 -65 83 -173q0 -42 -8 -74q-9 -35 -31 -69q-26 -40 -42 -62q-20 -27 -57 -63 q-43 -41 -61 -57q-37 -33 -70 -59l-69 -58h346v-160h-577z" />
<glyph unicode="&#xb3;" horiz-adv-x="752" d="M88 680v155h9q108 -31 193 -31q80 0 120 27q41 27 41 75q0 55 -52 84q-37 21 -133 21h-98v154h98q83 0 120 19q46 25 46 75q0 88 -134 88q-82 0 -191 -31h-10v155q108 29 224 29q157 0 242 -57t85 -157q0 -76 -47 -123q-46 -46 -125 -66q88 -13 139 -64q52 -52 52 -135 q0 -114 -100 -181q-99 -66 -271 -66q-116 0 -208 29z" />
<glyph unicode="&#xb4;" horiz-adv-x="1146" d="M478 1204l164 286h275l-245 -286h-194z" />
<glyph unicode="&#xb7;" horiz-adv-x="332" d="M42 405v252h248v-252h-248z" />
<glyph unicode="&#xb9;" horiz-adv-x="576" d="M59 1257v155l256 78h136v-829h-205v651l-177 -55h-10z" />
<glyph unicode="&#xba;" horiz-adv-x="890" d="M65 1089q0 183 99 279q98 95 283 95q181 0 279 -94q99 -95 99 -276q0 -182 -100 -278q-102 -97 -284 -97q-178 0 -278 94q-98 92 -98 277zM281 1093q0 -229 164 -229q166 0 166 227t-166 227q-164 0 -164 -225z" />
<glyph unicode="&#xbb;" horiz-adv-x="1146" d="M107 187l260 407l-260 415h233l245 -411l-245 -411h-233zM562 187l259 407l-259 415h233l244 -411l-244 -411h-233z" />
<glyph unicode="&#xbd;" horiz-adv-x="1860" d="M63 1236v153l308 101h137v-871h-204v695l-226 -78h-15zM94 -160l710 867l606 783h227v-15l-710 -867l-606 -784h-227v16zM1156 -42q201 183 262 250q113 125 120 214v12q0 56 -37 89t-114 33q-80 0 -185 -33h-16v153q118 31 233 31q170 0 250 -67q81 -68 81 -183 q0 -38 -10 -80q-9 -37 -30 -73q-22 -38 -42 -65q-22 -30 -59 -67q-46 -46 -63 -61q-6 -5 -31 -27.5t-44 -39.5q-73 -65 -74 -65h368v-155h-609v134z" />
<glyph unicode="&#xbf;" horiz-adv-x="909" d="M0 -29q0 58 14 104q15 49 35 83q20 33 52 67q33 35 59 56q54 44 61 50q36 29 52 43q29 26 50 55q16 22 29 50q12 26 16 55q2 18 5 54q1 14 1 63h228q0 -65 -3 -101q-4 -43 -14 -87q-12 -50 -42 -94q-28 -41 -79 -90q-21 -21 -50 -44q-36 -28 -59 -50q-18 -16 -47 -51 q-25 -29 -39 -67q-13 -35 -13 -77q0 -92 69 -140q70 -49 197 -49q146 0 311 60h15v-197q-156 -54 -351 -54q-245 0 -371 96t-126 265zM357 818v233h260v-233h-260z" />
<glyph unicode="&#xc0;" horiz-adv-x="1337" d="M19 0l520 1437h267l512 -1437h-275l-120 359h-549l-122 -359h-233zM258 1847h309l197 -254h-216zM441 550h419l-207 619z" />
<glyph unicode="&#xc1;" horiz-adv-x="1337" d="M19 0l520 1437h267l512 -1437h-275l-120 359h-549l-122 -359h-233zM441 550h419l-207 619zM558 1593l197 254h309l-290 -254h-216z" />
<glyph unicode="&#xc2;" horiz-adv-x="1337" d="M19 0l520 1437h267l512 -1437h-275l-120 359h-549l-122 -359h-233zM315 1593l222 254h248l222 -254h-222l-130 142l-128 -142h-212zM441 550h419l-207 619z" />
<glyph unicode="&#xc3;" horiz-adv-x="1337" d="M19 0l520 1437h267l512 -1437h-275l-120 359h-549l-122 -359h-233zM340 1593v147q89 77 203 77q57 0 150 -34q90 -33 134 -33q89 0 174 67h15v-147q-89 -77 -202 -77q-58 0 -151 34q-90 33 -134 33q-89 0 -174 -67h-15zM441 550h419l-207 619z" />
<glyph unicode="&#xc4;" horiz-adv-x="1337" d="M19 0l520 1437h267l512 -1437h-275l-120 359h-549l-122 -359h-233zM321 1593v214h233v-214h-233zM441 550h419l-207 619zM768 1593v214h233v-214h-233z" />
<glyph unicode="&#xc5;" horiz-adv-x="1337" d="M19 0l501 1385q-126 55 -126 197q0 112 76 176q77 65 191 65t191 -65q76 -64 76 -176q0 -130 -107 -189l497 -1393h-275l-120 359h-549l-122 -359h-233zM441 550h419l-207 619zM548 1572q0 -49 32 -81q31 -31 81 -31t81 31q32 32 32 81t-32 81t-81 32q-50 0 -82 -32 q-31 -31 -31 -81z" />
<glyph unicode="&#xc6;" horiz-adv-x="1866" d="M-2 0l818 1437h921v-193h-595v-401h503v-193h-503v-457h625v-193h-865v367h-463l-202 -367h-239zM539 546h363v658z" />
<glyph unicode="&#xc7;" horiz-adv-x="1216" d="M103 718q0 125 25 231q26 109 80 200q54 90 136 160q79 67 197 105q119 38 259 38q175 0 312 -46v-199h-15q-132 54 -274 54q-89 0 -167 -28q-75 -27 -127 -76q-50 -47 -87 -116q-34 -64 -51 -146t-17 -169q0 -90 17 -172q18 -86 51 -151q36 -71 87 -120q52 -51 128 -79 q75 -28 168 -28q144 0 272 53h15v-198q-114 -38 -264 -44q100 -65 100 -165q0 -87 -74 -144q-72 -56 -209 -56q-53 0 -103 7v142h15q49 -12 88 -12q53 0 82 23t29 67q0 57 -69 141q-123 12 -224 55q-104 44 -171 110q-71 69 -117 156q-48 89 -70 191q-22 100 -22 216z" />
<glyph unicode="&#xc8;" horiz-adv-x="1165" d="M176 0v1437h859v-195h-607v-398h516v-194h-516v-455h638v-195h-890zM201 1847h309l197 -254h-216z" />
<glyph unicode="&#xc9;" horiz-adv-x="1165" d="M176 0v1437h859v-195h-607v-398h516v-194h-516v-455h638v-195h-890zM501 1593l196 254h310l-291 -254h-215z" />
<glyph unicode="&#xca;" horiz-adv-x="1165" d="M176 0v1437h859v-195h-607v-398h516v-194h-516v-455h638v-195h-890zM258 1593l222 254h248l221 -254h-221l-130 142l-128 -142h-212z" />
<glyph unicode="&#xcb;" horiz-adv-x="1165" d="M176 0v1437h859v-195h-607v-398h516v-194h-516v-455h638v-195h-890zM298 1593v214h227v-214h-227zM682 1593v214h227v-214h-227z" />
<glyph unicode="&#xcc;" horiz-adv-x="607" d="M-99 1847h309l197 -254h-216zM176 0v1437h256v-1437h-256z" />
<glyph unicode="&#xcd;" horiz-adv-x="607" d="M176 0v1437h256v-1437h-256zM201 1593l196 254h310l-291 -254h-215z" />
<glyph unicode="&#xce;" horiz-adv-x="607" d="M-42 1593l222 254h248l222 -254h-222l-130 142l-128 -142h-212zM176 0v1437h256v-1437h-256z" />
<glyph unicode="&#xcf;" horiz-adv-x="607" d="M-2 1593v214h227v-214h-227zM176 0v1437h256v-1437h-256zM382 1593v214h227v-214h-227z" />
<glyph unicode="&#xd0;" horiz-adv-x="1530" d="M34 650v193h199v594h401q60 0 120 -2q31 -1 115 -10q74 -8 136 -28q65 -21 124 -56q298 -172 298 -623q0 -450 -306 -622q-64 -36 -123 -56q-63 -22 -133 -29q-71 -8 -113 -9q-58 -2 -118 -2h-401v650h-199zM485 191h165q48 0 98 2q38 1 99 15t108 42q203 114 203 468 q0 356 -207 470q-47 26 -108 40q-65 15 -96 16q-48 2 -97 2h-165v-403h312v-193h-312v-459z" />
<glyph unicode="&#xd1;" horiz-adv-x="1513" d="M176 0v1437h248l688 -1021v1021h225v-1437h-225l-711 1039v-1039h-225zM436 1593v147q89 77 202 77q58 0 151 -34q90 -33 134 -33q89 0 174 67h15v-147q-89 -77 -203 -77q-58 0 -151 34q-90 33 -133 33q-89 0 -174 -67h-15z" />
<glyph unicode="&#xd2;" horiz-adv-x="1543" d="M103 716q0 350 176 549q175 198 497 198q321 0 493 -197q171 -196 171 -546q0 -351 -175 -548q-176 -199 -497 -199q-320 0 -493 198q-172 197 -172 545zM369 1847h309l197 -254h-216zM374 718q0 -274 102 -414t296 -140t296 140q101 138 101 414q0 277 -101 415 q-102 139 -296 139t-296 -139t-102 -415z" />
<glyph unicode="&#xd3;" horiz-adv-x="1543" d="M103 716q0 350 176 549q175 198 497 198q321 0 493 -197q171 -196 171 -546q0 -351 -175 -548q-176 -199 -497 -199q-320 0 -493 198q-172 197 -172 545zM374 718q0 -274 102 -414t296 -140t296 140q101 138 101 414q0 277 -101 415q-102 139 -296 139t-296 -139 t-102 -415zM669 1593l196 254h310l-290 -254h-216z" />
<glyph unicode="&#xd4;" horiz-adv-x="1543" d="M103 716q0 350 176 549q175 198 497 198q321 0 493 -197q171 -196 171 -546q0 -351 -175 -548q-176 -199 -497 -199q-320 0 -493 198q-172 197 -172 545zM374 718q0 -274 102 -414t296 -140t296 140q101 138 101 414q0 277 -101 415q-102 139 -296 139t-296 -139 t-102 -415zM426 1593l222 254h248l222 -254h-222l-130 142l-128 -142h-212z" />
<glyph unicode="&#xd5;" horiz-adv-x="1543" d="M103 716q0 350 176 549q175 198 497 198q321 0 493 -197q171 -196 171 -546q0 -351 -175 -548q-176 -199 -497 -199q-320 0 -493 198q-172 197 -172 545zM374 718q0 -274 102 -414t296 -140t296 140q101 138 101 414q0 277 -101 415q-102 139 -296 139t-296 -139 t-102 -415zM451 1593v147q89 77 202 77q58 0 151 -34q90 -33 134 -33q89 0 174 67h15v-147q-89 -77 -202 -77q-58 0 -151 34q-90 33 -134 33q-89 0 -174 -67h-15z" />
<glyph unicode="&#xd6;" horiz-adv-x="1543" d="M103 716q0 350 176 549q175 198 497 198q321 0 493 -197q171 -196 171 -546q0 -351 -175 -548q-176 -199 -497 -199q-320 0 -493 198q-172 197 -172 545zM374 718q0 -274 102 -414t296 -140t296 140q101 138 101 414q0 277 -101 415q-102 139 -296 139t-296 -139 t-102 -415zM432 1593v214h233v-214h-233zM879 1593v214h233v-214h-233z" />
<glyph unicode="&#xd7;" d="M185 212l329 323l-329 321l149 143l321 -332l321 332l138 -135l-329 -323l329 -321l-149 -144l-321 333l-321 -333z" />
<glyph unicode="&#xd8;" horiz-adv-x="1543" d="M92 -53l181 227q-170 196 -170 543q0 349 176 548q175 198 495 198q206 0 357 -89l82 116h239l-183 -229q171 -193 171 -543q0 -349 -175 -546q-176 -199 -493 -199q-210 0 -361 88l-80 -114h-239zM359 718q0 -218 63 -353l592 842q-97 77 -242 77q-203 0 -308 -143 t-105 -423zM529 227q92 -74 243 -74q202 0 307 142q105 143 105 423q0 218 -64 352z" />
<glyph unicode="&#xd9;" horiz-adv-x="1467" d="M176 569v868h256v-910q0 -87 13 -146q14 -62 48 -113q34 -50 98 -77q65 -27 158 -27t158 27q64 27 98 77q34 51 48 113q13 59 13 146v910h225v-868q0 -78 -1 -103q-1 -22 -12 -102q-9 -62 -35 -119t-66 -104q-145 -168 -445 -168q-298 0 -442 168q-40 47 -66 104t-35 119 q-10 70 -11 102q-2 50 -2 103zM331 1847h309l197 -254h-216z" />
<glyph unicode="&#xda;" horiz-adv-x="1467" d="M176 569v868h256v-910q0 -87 13 -146q14 -62 48 -113q34 -50 98 -77q65 -27 158 -27t158 27q64 27 98 77q34 51 48 113q13 59 13 146v910h225v-868q0 -78 -1 -103q-1 -22 -12 -102q-9 -62 -35 -119t-66 -104q-145 -168 -445 -168q-298 0 -442 168q-40 47 -66 104t-35 119 q-10 70 -11 102q-2 50 -2 103zM630 1593l197 254h310l-291 -254h-216z" />
<glyph unicode="&#xdb;" horiz-adv-x="1467" d="M176 569v868h256v-910q0 -87 13 -146q14 -62 48 -113q34 -50 98 -77q65 -27 158 -27t158 27q64 27 98 77q34 51 48 113q13 59 13 146v910h225v-868q0 -78 -1 -103q-1 -22 -12 -102q-9 -62 -35 -119t-66 -104q-145 -168 -445 -168q-298 0 -442 168q-40 47 -66 104t-35 119 q-10 70 -11 102q-2 50 -2 103zM388 1593l221 254h249l221 -254h-221l-130 142l-128 -142h-212z" />
<glyph unicode="&#xdc;" horiz-adv-x="1467" d="M176 569v868h256v-910q0 -87 13 -146q14 -62 48 -113q34 -50 98 -77q65 -27 158 -27t158 27q64 27 98 77q34 51 48 113q13 59 13 146v910h225v-868q0 -78 -1 -103q-1 -22 -12 -102q-9 -62 -35 -119t-66 -104q-145 -168 -445 -168q-298 0 -442 168q-40 47 -66 104t-35 119 q-10 70 -11 102q-2 50 -2 103zM394 1593v214h233v-214h-233zM841 1593v214h233v-214h-233z" />
<glyph unicode="&#xdd;" horiz-adv-x="1264" d="M21 1437h298l344 -646l344 646h241l-486 -872v-565h-256v562zM550 1593l197 254h309l-290 -254h-216z" />
<glyph unicode="&#xde;" horiz-adv-x="1257" d="M176 0v1437h256v-241h132q65 0 133 -2q53 -2 138 -21q87 -20 145 -57q100 -62 148 -161q49 -101 49 -225q0 -142 -57 -245t-159 -160q-60 -36 -132 -52q-75 -17 -129 -21q-48 -4 -138 -4h-130v-248h-256zM432 439h149q38 0 76 2q27 1 74 14q46 12 77 32q51 35 76 98 q25 62 25 137q0 79 -24 137q-26 62 -77 98q-32 24 -76 34q-46 11 -75 12q-38 2 -76 2h-149v-566z" />
<glyph unicode="&#xdf;" horiz-adv-x="1249" d="M157 0v1001q0 63 2 117q2 42 13 95q13 58 34 98q104 183 407 183q216 0 327 -90t111 -233q0 -65 -24 -117q-25 -54 -58 -86q-40 -39 -69 -61q-29 -23 -58 -59q-24 -30 -24 -61q0 -29 19 -55q22 -30 51 -50q53 -36 70 -47q40 -26 75 -55q32 -27 69 -69q32 -37 52 -90 q19 -51 19 -115q0 -153 -111 -237t-296 -84q-122 0 -208 30v180h15q108 -38 197 -38q73 0 112 30t39 86q0 40 -19 72q-20 34 -51 59q-39 32 -69 52q-28 19 -74 54q-39 30 -69 61q-32 34 -51 80q-19 47 -19 104q0 49 18 95q17 42 42 69q28 30 55 54q48 44 55 49q25 20 42 55 q18 36 18 71q0 72 -52 118q-51 45 -139 45q-126 0 -176 -100q-12 -28 -18 -59q-7 -37 -8 -59q-1 -18 -1 -84v-1009h-248z" />
<glyph unicode="&#xe0;" horiz-adv-x="1108" d="M82 294q0 178 138 260q48 28 105 44q61 17 130 23q80 7 120 8q33 1 141 1q0 50 -1 66q-2 28 -7 57q-5 30 -22 53q-50 73 -199 73q-141 0 -294 -54h-15v199q160 42 338 42q291 0 388 -141q28 -42 42 -93q13 -49 16 -101q3 -51 3 -127v-604h-187l-50 172q-15 -81 -90 -138 t-204 -57q-154 0 -253 84t-99 233zM201 1490h275l164 -286h-195zM342 304q0 -64 38 -100q37 -36 115 -36q64 0 114 26q51 26 77 73q30 59 30 184v23q-112 0 -184 -8q-68 -8 -114 -30q-76 -40 -76 -132z" />
<glyph unicode="&#xe1;" horiz-adv-x="1108" d="M82 294q0 178 138 260q48 28 105 44q61 17 130 23q80 7 120 8q33 1 141 1q0 50 -1 66q-2 28 -7 57q-5 30 -22 53q-50 73 -199 73q-141 0 -294 -54h-15v199q160 42 338 42q291 0 388 -141q28 -42 42 -93q13 -49 16 -101q3 -51 3 -127v-604h-187l-50 172q-15 -81 -90 -138 t-204 -57q-154 0 -253 84t-99 233zM342 304q0 -64 38 -100q37 -36 115 -36q64 0 114 26q51 26 77 73q30 59 30 184v23q-112 0 -184 -8q-68 -8 -114 -30q-76 -40 -76 -132zM449 1204l164 286h275l-244 -286h-195z" />
<glyph unicode="&#xe2;" horiz-adv-x="1108" d="M82 294q0 178 138 260q48 28 105 44q61 17 130 23q80 7 120 8q33 1 141 1q0 50 -1 66q-2 28 -7 57q-5 30 -22 53q-50 73 -199 73q-141 0 -294 -54h-15v199q160 42 338 42q291 0 388 -141q28 -42 42 -93q13 -49 16 -101q3 -51 3 -127v-604h-187l-50 172q-15 -81 -90 -138 t-204 -57q-154 0 -253 84t-99 233zM220 1204l221 286h207l221 -286h-202l-128 160l-128 -160h-191zM342 304q0 -64 38 -100q37 -36 115 -36q64 0 114 26q51 26 77 73q30 59 30 184v23q-112 0 -184 -8q-68 -8 -114 -30q-76 -40 -76 -132z" />
<glyph unicode="&#xe3;" horiz-adv-x="1108" d="M82 294q0 178 138 260q48 28 105 44q61 17 130 23q80 7 120 8q33 1 141 1q0 50 -1 66q-2 28 -7 57q-5 30 -22 53q-50 73 -199 73q-141 0 -294 -54h-15v199q160 42 338 42q291 0 388 -141q28 -42 42 -93q13 -49 16 -101q3 -51 3 -127v-604h-187l-50 172q-15 -81 -90 -138 t-204 -57q-154 0 -253 84t-99 233zM245 1215v143q31 31 80 56t105 25q53 0 137 -36q82 -35 125 -35q76 0 156 71h16v-144q-27 -27 -81 -55q-49 -25 -105 -25q-58 0 -138 35q-83 36 -122 36q-79 0 -158 -71h-15zM342 304q0 -64 38 -100q37 -36 115 -36q64 0 114 26 q51 26 77 73q30 59 30 184v23q-112 0 -184 -8q-68 -8 -114 -30q-76 -40 -76 -132z" />
<glyph unicode="&#xe4;" horiz-adv-x="1108" d="M82 294q0 178 138 260q48 28 105 44q61 17 130 23q80 7 120 8q33 1 141 1q0 50 -1 66q-2 28 -7 57q-5 30 -22 53q-50 73 -199 73q-141 0 -294 -54h-15v199q160 42 338 42q291 0 388 -141q28 -42 42 -93q13 -49 16 -101q3 -51 3 -127v-604h-187l-50 172q-15 -81 -90 -138 t-204 -57q-154 0 -253 84t-99 233zM235 1219v218h224v-218h-224zM342 304q0 -64 38 -100q37 -36 115 -36q64 0 114 26q51 26 77 73q30 59 30 184v23q-112 0 -184 -8q-68 -8 -114 -30q-76 -40 -76 -132zM630 1219v218h224v-218h-224z" />
<glyph unicode="&#xe5;" horiz-adv-x="1108" d="M82 294q0 178 138 260q48 28 105 44q61 17 130 23q80 7 120 8q33 1 141 1q0 50 -1 66q-2 28 -7 57q-5 30 -22 53q-50 73 -199 73q-141 0 -294 -54h-15v199q160 42 338 42q291 0 388 -141q28 -42 42 -93q13 -49 16 -101q3 -51 3 -127v-604h-187l-50 172q-15 -81 -90 -138 t-204 -57q-154 0 -253 84t-99 233zM300 1360q0 91 65 147t179 56q115 0 180 -56t65 -147t-65 -147q-64 -55 -180 -55q-115 0 -179 55q-65 56 -65 147zM342 304q0 -64 38 -100q37 -36 115 -36q64 0 114 26q51 26 77 73q30 59 30 184v23q-112 0 -184 -8q-68 -8 -114 -30 q-76 -40 -76 -132zM447 1360q0 -41 26 -69q25 -26 71 -26q47 0 72 26q26 28 26 69t-26 69q-26 27 -72 27q-45 0 -72 -27q-25 -26 -25 -69z" />
<glyph unicode="&#xe6;" horiz-adv-x="1746" d="M80 292q0 178 138 262q49 28 100 44q56 17 128 23q83 7 123 8q33 1 146 1q0 54 -1 71q-1 23 -8 56q-6 29 -22 53q-50 73 -199 73q-141 0 -294 -54h-15v195q160 42 338 42q278 0 361 -138q44 67 126 104q85 38 199 38q125 0 221 -48q95 -47 149 -132q36 -58 52 -134 q18 -85 19 -137q2 -76 2 -164h-676q0 -138 77 -212q78 -75 226 -75q132 0 297 54h15v-191q-151 -46 -331 -46q-179 0 -291 57q-111 56 -161 176q-80 -233 -365 -233q-166 0 -260 80t-94 227zM340 309q0 -65 42 -103q43 -38 117 -38q60 0 109 26q50 26 76 73q31 60 31 184v23 q-113 0 -185 -8q-68 -8 -114 -30q-76 -42 -76 -127zM967 627h420q0 133 -46 200t-153 67q-209 0 -221 -267z" />
<glyph unicode="&#xe7;" horiz-adv-x="945" d="M96 523q0 256 135 400q134 143 392 143q127 0 229 -31v-202h-15q-96 42 -197 42q-137 0 -207 -91t-70 -257q0 -165 70 -259q68 -92 205 -92q97 0 199 42h15v-203q-79 -25 -195 -30q100 -59 100 -163q0 -87 -74 -144q-72 -56 -209 -56q-53 0 -103 7v142h15q49 -12 88 -12 q53 0 82 23t29 67q0 58 -71 143q-205 28 -312 167q-106 137 -106 364z" />
<glyph unicode="&#xe8;" horiz-adv-x="1134" d="M96 518q0 259 128 410q127 149 361 149q130 0 224 -47q96 -48 150 -136q36 -57 50 -122q14 -64 19 -138q4 -63 4 -179h-677q0 -137 78 -212t224 -75q137 0 298 57h16v-194q-151 -46 -333 -46q-264 0 -401 130q-141 135 -141 403zM227 1490h275l165 -286h-195zM355 627 h421q0 136 -47 206q-47 69 -152 69q-108 0 -159 -71t-63 -204z" />
<glyph unicode="&#xe9;" horiz-adv-x="1134" d="M96 518q0 259 128 410q127 149 361 149q130 0 224 -47q96 -48 150 -136q36 -57 50 -122q14 -64 19 -138q4 -63 4 -179h-677q0 -137 78 -212t224 -75q137 0 298 57h16v-194q-151 -46 -333 -46q-264 0 -401 130q-141 135 -141 403zM355 627h421q0 136 -47 206 q-47 69 -152 69q-108 0 -159 -71t-63 -204zM476 1204l164 286h275l-244 -286h-195z" />
<glyph unicode="&#xea;" horiz-adv-x="1134" d="M96 518q0 259 128 410q127 149 361 149q130 0 224 -47q96 -48 150 -136q36 -57 50 -122q14 -64 19 -138q4 -63 4 -179h-677q0 -137 78 -212t224 -75q137 0 298 57h16v-194q-151 -46 -333 -46q-264 0 -401 130q-141 135 -141 403zM246 1204l222 286h206l222 -286h-203 l-128 160l-128 -160h-191zM355 627h421q0 136 -47 206q-47 69 -152 69q-108 0 -159 -71t-63 -204z" />
<glyph unicode="&#xeb;" horiz-adv-x="1134" d="M96 518q0 259 128 410q127 149 361 149q130 0 224 -47q96 -48 150 -136q36 -57 50 -122q14 -64 19 -138q4 -63 4 -179h-677q0 -137 78 -212t224 -75q137 0 298 57h16v-194q-151 -46 -333 -46q-264 0 -401 130q-141 135 -141 403zM262 1219v218h223v-218h-223zM355 627 h421q0 136 -47 206q-47 69 -152 69q-108 0 -159 -71t-63 -204zM657 1219v218h224v-218h-224z" />
<glyph unicode="&#xec;" horiz-adv-x="561" d="M-61 1490h275l164 -286h-195zM157 0v1051h248v-1051h-248z" />
<glyph unicode="&#xed;" horiz-adv-x="561" d="M157 0v1051h248v-1051h-248zM187 1204l165 286h275l-245 -286h-195z" />
<glyph unicode="&#xee;" horiz-adv-x="561" d="M-42 1204l222 286h206l222 -286h-203l-128 160l-128 -160h-191zM157 0v1051h248v-1051h-248z" />
<glyph unicode="&#xef;" horiz-adv-x="561" d="M-4 1219v218h210v-218h-210zM157 0v1051h248v-1051h-248zM359 1219v218h210v-218h-210z" />
<glyph unicode="&#xf0;" horiz-adv-x="1209" d="M96 441q0 207 129 339q130 133 323 133q205 0 289 -168q-34 178 -203 380l-294 -143v134l210 101q-160 155 -344 258v15h317q130 -77 234 -174l275 132v-130l-189 -91q257 -300 257 -663q0 -290 -156 -449q-139 -142 -363 -142q-216 0 -350 130q-135 131 -135 338z M359 447q0 -134 65 -214t176 -80t176 80t65 214t-65 214t-176 80t-176 -80t-65 -214z" />
<glyph unicode="&#xf1;" horiz-adv-x="1218" d="M159 0v1051h194l46 -180q57 203 312 203q210 0 303 -138q28 -42 42 -89q14 -49 17 -97q3 -51 3 -131v-619h-253v623q0 32 -2 70q-1 29 -9 54q-7 24 -23 48q-49 76 -166 76q-56 0 -95 -16q-42 -17 -62 -40t-34 -57q-12 -30 -17 -59q-4 -24 -4 -57v-642h-252zM308 1215v143 q30 31 80 56q49 25 105 25q53 0 137 -36q82 -35 125 -35q76 0 156 71h16v-144q-27 -27 -81 -55q-49 -25 -105 -25q-58 0 -138 35q-83 36 -122 36q-79 0 -158 -71h-15z" />
<glyph unicode="&#xf2;" horiz-adv-x="1218" d="M97 523q0 266 134 411q133 143 382 143q246 0 379 -140t133 -410q0 -267 -133 -410q-134 -144 -383 -144q-245 0 -378 141q-134 142 -134 409zM264 1490h275l164 -286h-195zM365 525q0 -181 61 -276q62 -96 185 -96q247 0 247 372q0 181 -61 276q-62 97 -186 97 q-246 0 -246 -373z" />
<glyph unicode="&#xf3;" horiz-adv-x="1218" d="M97 523q0 266 134 411q133 143 382 143q246 0 379 -140t133 -410q0 -267 -133 -410q-134 -144 -383 -144q-245 0 -378 141q-134 142 -134 409zM365 525q0 -181 61 -276q62 -96 185 -96q247 0 247 372q0 181 -61 276q-62 97 -186 97q-246 0 -246 -373zM512 1204l164 286 h275l-244 -286h-195z" />
<glyph unicode="&#xf4;" horiz-adv-x="1218" d="M97 523q0 266 134 411q133 143 382 143q246 0 379 -140t133 -410q0 -267 -133 -410q-134 -144 -383 -144q-245 0 -378 141q-134 142 -134 409zM283 1204l221 286h207l221 -286h-202l-128 160l-128 -160h-191zM365 525q0 -181 61 -276q62 -96 185 -96q247 0 247 372 q0 181 -61 276q-62 97 -186 97q-246 0 -246 -373z" />
<glyph unicode="&#xf5;" horiz-adv-x="1218" d="M97 523q0 266 134 411q133 143 382 143q246 0 379 -140t133 -410q0 -267 -133 -410q-134 -144 -383 -144q-245 0 -378 141q-134 142 -134 409zM308 1215v143q30 31 80 56q49 25 105 25q53 0 137 -36q82 -35 125 -35q76 0 156 71h16v-144q-27 -27 -81 -55 q-49 -25 -105 -25q-58 0 -138 35q-83 36 -122 36q-79 0 -158 -71h-15zM365 525q0 -181 61 -276q62 -96 185 -96q247 0 247 372q0 181 -61 276q-62 97 -186 97q-246 0 -246 -373z" />
<glyph unicode="&#xf6;" horiz-adv-x="1218" d="M97 523q0 266 134 411q133 143 382 143q246 0 379 -140t133 -410q0 -267 -133 -410q-134 -144 -383 -144q-245 0 -378 141q-134 142 -134 409zM298 1219v218h224v-218h-224zM365 525q0 -181 61 -276q62 -96 185 -96q247 0 247 372q0 181 -61 276q-62 97 -186 97 q-246 0 -246 -373zM693 1219v218h224v-218h-224z" />
<glyph unicode="&#xf8;" horiz-adv-x="1215" d="M96 525q0 267 135 410q135 142 377 142q124 0 215 -36l69 121h182l-126 -193q172 -141 172 -444q0 -265 -136 -409q-135 -143 -376 -143q-119 0 -218 37l-67 -121h-182l126 191q-171 140 -171 445zM348 522q0 -159 42 -249l342 606q-50 27 -121 27q-136 0 -200 -97 q-63 -96 -63 -287zM481 170q49 -25 123 -25q137 0 200 96t63 288q0 159 -42 249z" />
<glyph unicode="&#xf9;" horiz-adv-x="1215" d="M157 432v619h252v-623q0 -49 1 -63q2 -28 9 -54q9 -32 24 -55q54 -76 172 -76q191 0 191 229v642h252v-1051h-194l-46 180q-22 -93 -102 -148q-79 -55 -208 -55q-202 0 -290 130q-28 41 -43 99q-14 55 -16 101q-2 58 -2 125zM264 1490h275l164 -286h-195z" />
<glyph unicode="&#xfa;" horiz-adv-x="1215" d="M157 432v619h252v-623q0 -49 1 -63q2 -28 9 -54q9 -32 24 -55q54 -76 172 -76q191 0 191 229v642h252v-1051h-194l-46 180q-22 -93 -102 -148q-79 -55 -208 -55q-202 0 -290 130q-28 41 -43 99q-14 55 -16 101q-2 58 -2 125zM512 1204l164 286h275l-244 -286h-195z" />
<glyph unicode="&#xfb;" horiz-adv-x="1215" d="M157 432v619h252v-623q0 -49 1 -63q2 -28 9 -54q9 -32 24 -55q54 -76 172 -76q191 0 191 229v642h252v-1051h-194l-46 180q-22 -93 -102 -148q-79 -55 -208 -55q-202 0 -290 130q-28 41 -43 99q-14 55 -16 101q-2 58 -2 125zM283 1204l221 286h207l221 -286h-202 l-128 160l-128 -160h-191z" />
<glyph unicode="&#xfc;" horiz-adv-x="1215" d="M157 432v619h252v-623q0 -49 1 -63q2 -28 9 -54q9 -32 24 -55q54 -76 172 -76q191 0 191 229v642h252v-1051h-194l-46 180q-22 -93 -102 -148q-79 -55 -208 -55q-202 0 -290 130q-28 41 -43 99q-14 55 -16 101q-2 58 -2 125zM298 1219v218h224v-218h-224zM693 1219v218 h224v-218h-224z" />
<glyph unicode="&#xfd;" horiz-adv-x="1165" d="M63 1051h283l260 -745l267 745h229l-554 -1425h-252l172 393zM508 1204l164 286h276l-245 -286h-195z" />
<glyph unicode="&#xfe;" horiz-adv-x="1257" d="M157 -374v1864h248v-613q28 91 113 144t206 53q140 0 239 -69q100 -70 149 -190q50 -123 50 -282q0 -164 -50 -288q-49 -123 -155 -195q-106 -73 -250 -73q-112 0 -190 45t-112 133v-529h-248zM401 523q0 -359 249 -359q69 0 117 27q50 28 76 76q29 54 42 113 q13 61 13 143q0 166 -59 264t-189 98q-249 0 -249 -362z" />
<glyph unicode="&#xff;" horiz-adv-x="1165" d="M63 1051h283l260 -745l267 745h229l-554 -1425h-252l172 393zM294 1219v218h224v-218h-224zM690 1219v218h223v-218h-223z" />
<glyph unicode="&#x2dc;" horiz-adv-x="1146" d="M273 1215v143q31 31 80 56t106 25q53 0 137 -36q82 -35 124 -35q77 0 157 71h15v-144q-28 -28 -80 -55q-49 -25 -105 -25q-59 0 -139 35q-83 36 -121 36q-80 0 -159 -71h-15z" />
<glyph unicode="&#x2000;" horiz-adv-x="923" />
<glyph unicode="&#x2001;" horiz-adv-x="1847" />
<glyph unicode="&#x2002;" horiz-adv-x="923" />
<glyph unicode="&#x2003;" horiz-adv-x="1847" />
<glyph unicode="&#x2004;" horiz-adv-x="615" />
<glyph unicode="&#x2005;" horiz-adv-x="461" />
<glyph unicode="&#x2006;" horiz-adv-x="307" />
<glyph unicode="&#x2007;" horiz-adv-x="307" />
<glyph unicode="&#x2008;" horiz-adv-x="230" />
<glyph unicode="&#x2009;" horiz-adv-x="369" />
<glyph unicode="&#x200a;" horiz-adv-x="102" />
<glyph unicode="&#x2010;" horiz-adv-x="844" d="M115 501v194h615v-194h-615z" />
<glyph unicode="&#x2011;" horiz-adv-x="844" d="M115 501v194h615v-194h-615z" />
<glyph unicode="&#x2012;" horiz-adv-x="844" d="M115 501v194h615v-194h-615z" />
<glyph unicode="&#x2013;" horiz-adv-x="1283" d="M145 506v184h994v-184h-994z" />
<glyph unicode="&#x2014;" horiz-adv-x="2009" d="M145 506v184h1720v-184h-1720z" />
<glyph unicode="&#x2018;" horiz-adv-x="576" d="M111 976l137 514h178l-76 -514h-239z" />
<glyph unicode="&#x2019;" horiz-adv-x="582" d="M134 976l76 514h239l-138 -514h-177z" />
<glyph unicode="&#x201c;" horiz-adv-x="917" d="M115 976l133 514h168l-76 -514h-225zM462 976l134 514h168l-76 -514h-226z" />
<glyph unicode="&#x201d;" horiz-adv-x="917" d="M134 976l76 514h226l-134 -514h-168zM481 976l77 514h225l-133 -514h-169z" />
<glyph unicode="&#x201e;" horiz-adv-x="867" d="M103 -235l77 514h225l-134 -514h-168zM451 -235l76 514h226l-134 -514h-168z" />
<glyph unicode="&#x2022;" horiz-adv-x="584" d="M103 428v348h348v-348h-348z" />
<glyph unicode="&#x2026;" horiz-adv-x="1757" d="M210 0v237h241v-237h-241zM758 0v237h241v-237h-241zM1307 0v237h240v-237h-240z" />
<glyph unicode="&#x202f;" horiz-adv-x="369" />
<glyph unicode="&#x2039;" horiz-adv-x="691" d="M107 598l245 411h233l-260 -407l260 -415h-233z" />
<glyph unicode="&#x203a;" horiz-adv-x="691" d="M107 187l260 407l-260 415h233l245 -411l-245 -411h-233z" />
<glyph unicode="&#x205f;" horiz-adv-x="461" />
<glyph unicode="&#x20ac;" horiz-adv-x="1268" d="M73 416v171h154q-2 30 -2 70q0 41 2 71h-154v170h185q56 199 210 314q155 116 403 116q158 0 277 -40v-193h-15q-120 47 -248 47q-140 0 -231 -65q-90 -65 -134 -179h519l-38 -170h-518q-2 -28 -2 -65q0 -32 4 -76h482l-39 -171h-405q43 -113 135 -179q91 -65 228 -65 q127 0 247 48h15v-193q-119 -40 -277 -40q-249 0 -403 115t-210 314h-185z" />
<glyph unicode="&#x2122;" horiz-adv-x="1572" d="M42 1293v144h523v-144h-171v-479h-180v479h-172zM686 814v623h244l153 -394l153 394h241v-623h-172v447l-161 -407h-145l-160 407v-447h-153z" />
<glyph unicode="&#x25fc;" horiz-adv-x="1050" d="M0 0v1051h1051v-1051h-1051z" />
</font>
</defs>
</svg>
