<?xml version="1.0" standalone="no"?>
<!DOCTYPE svg PUBLIC "-//W3C//DTD SVG 1.1//EN" "http://www.w3.org/Graphics/SVG/1.1/DTD/svg11.dtd" >
<svg xmlns="http://www.w3.org/2000/svg">
<metadata></metadata>
<defs>
<font id="handwritten_crystal_v2regular" horiz-adv-x="569" >
<font-face units-per-em="2048" ascent="1638" descent="-410" />
<missing-glyph horiz-adv-x="500" />
<glyph horiz-adv-x="2048" />
<glyph horiz-adv-x="2048" />
<glyph unicode="&#xd;" />
<glyph unicode=" " />
<glyph unicode="!" horiz-adv-x="731" d="M94 160q0 88 160 88q104 -31 104 -128q0 -88 -152 -120h-16q-68 52 -96 160zM198 688v8l160 680l56 208q13 27 120 48q58 0 104 -72q-40 -142 -40 -192q-40 -103 -120 -480q-70 -376 -152 -376l-40 -16q-79 0 -88 192z" />
<glyph unicode="&#x22;" horiz-adv-x="727" d="M78 1299q48 266 64 464q29 24 56 24h16q80 0 80 -216q-26 -424 -96 -424h-16q-104 62 -104 152zM454 1403l8 240l-8 120q0 37 80 56q120 -16 120 -120v-376q0 -112 -96 -112h-8q-96 56 -96 192z" />
<glyph unicode="#" horiz-adv-x="1432" d="M42 663q0 113 120 136q303 61 328 96l40 112l-8 24h-8l-56 -16q-117 0 -144 160q0 100 256 120q58 0 80 176q46 248 96 248h16q144 -28 144 -144l8 -24l-56 -160v-16l32 -8q104 0 104 200q0 152 88 152q144 -76 144 -160l-40 -144q192 -96 192 -144q0 -69 -240 -104 q-32 -63 -48 -216v-8l16 -16l24 8q272 -29 272 -120q0 -63 -144 -88h-16q-248 0 -248 -48q-82 -286 -112 -336l-64 -16q-93 0 -120 152v16l48 144v40h-16v8q-103 0 -120 -184q-24 -78 -32 -208q-31 -24 -72 -24h-24q-94 0 -112 176q32 89 32 152v8h-16l-176 -48 q-129 0 -168 104zM730 919q128 0 128 48q32 95 32 152v8h-8q-133 0 -152 -176v-32z" />
<glyph unicode="$" horiz-adv-x="1139" d="M110 711l32 40h24q48 -12 72 -104q67 -144 192 -144h56l8 88q0 344 -56 344q-110 91 -144 200q0 157 136 264v8q0 215 -48 328q7 96 80 96q160 -29 160 -256q0 -104 80 -104q81 -28 120 -104q16 0 16 -40q-113 -60 -176 -64v-136q0 -132 40 -184q142 -68 312 -288l8 -48 v-72q0 -114 -200 -200q-125 -41 -128 -56l8 -48l-8 -112v-144q-16 -80 -80 -80h-8q-86 0 -136 128l8 136v144q-336 66 -336 248q-24 0 -32 160zM694 631l8 -96v-8h8q112 34 112 88l-104 104h-16v-8z" />
<glyph unicode="%" horiz-adv-x="1350" d="M51 1139q23 216 152 408q136 136 200 136q56 0 112 -96v-8h8q94 0 448 136q0 16 64 16q142 0 176 -128l-168 -256q-128 -249 -128 -328q-16 -2 -24 -56q0 -18 80 -24q38 -48 136 -72q192 -125 192 -256q-76 -280 -200 -280q0 -12 -80 -40q-160 0 -240 176h-24l-8 -32 l8 -152l-56 -48h-40q-86 0 -152 192v16q0 116 184 664q46 154 128 336l-8 8h-16q-203 -53 -248 -88q30 -54 48 -152q0 -187 -296 -304l-72 -8q-72 0 -144 104zM243 1139l16 -16q62 0 112 112v88q0 58 -56 72q-72 -88 -72 -256zM987 627l8 -64h32l24 88v48l-24 24h-8 q-32 0 -32 -96z" />
<glyph unicode="&#x26;" horiz-adv-x="849" d="M67 1090q0 41 96 168q0 52 344 224l64 8q42 0 80 -56v-8q-24 -152 -184 -152q-160 -136 -160 -176v-24q0 -20 80 -32l24 16l40 -8l88 24q160 0 160 -128l-72 -120q101 -54 112 -112q-25 -86 -120 -200q-88 -176 -88 -288v-56l40 -184q-15 -104 -80 -104q-142 0 -192 240 l-8 56v72q16 101 48 176q0 26 -168 64q-72 84 -72 168q16 74 128 208v16q-112 0 -160 208zM379 682h48q48 30 48 80l-24 8q-51 -25 -72 -64v-24zM523 1690q25 152 112 152h72q64 0 64 -56q0 -96 -112 -184l-32 -16q-104 24 -104 104z" />
<glyph unicode="'" horiz-adv-x="391" d="M83 1475v112l8 64l-8 8v8l8 48v32l-8 8q11 72 72 72v8q144 -16 144 -112l-8 -40v-72q0 -352 -72 -352h-16q-107 0 -120 216z" />
<glyph unicode="(" horiz-adv-x="682" d="M44 471l8 40l-8 8q40 288 200 608q130 216 256 216v8q104 -37 104 -104q0 -116 -104 -168q-81 0 -216 -424l-24 -208q0 -216 240 -216q48 -32 48 -72v-48q-38 -80 -184 -80q-172 0 -296 272z" />
<glyph unicode=")" horiz-adv-x="641" d="M88 1506q0 54 120 72q155 0 320 -528q48 -123 48 -336v-72q-14 -206 -192 -472q-136 -149 -168 -152q-74 0 -120 136q280 337 280 568v96q0 168 -136 440q-152 133 -152 248z" />
<glyph unicode="*" horiz-adv-x="797" d="M1 1271l144 136v32q-93 56 -120 200v16q0 24 56 56q84 0 136 -56h24v120q0 64 64 64q120 0 120 -176h24q138 96 168 96l16 -16q74 56 104 56h8q17 0 40 -56q0 -35 -224 -272l8 -8q160 -67 160 -112l16 -48q0 -58 -168 -72l-152 56h-8l-32 -232h8q0 -69 -64 -112 q-68 36 -112 168l-8 8q-70 -56 -128 -56q-80 57 -80 208z" />
<glyph unicode="+" horiz-adv-x="1196" d="M2 903q0 100 320 112q96 16 96 40l-48 400v16q0 48 48 64q103 0 120 -152q56 -304 80 -304l320 48l40 -8l88 16q102 0 136 -104q0 -74 -80 -168l-8 -8h-8l-136 24l-80 -16l-48 8q-184 -21 -184 -40v-32q64 -348 64 -472q0 -120 -72 -120q-128 0 -144 312l-40 280 q-216 -28 -216 -48l-40 8l-96 -8q-58 0 -112 152z" />
<glyph unicode="," d="M97 -218l136 280q0 128 120 128q112 -26 112 -104v-8q0 -61 -144 -296q-81 -72 -112 -72h-8q-96 0 -96 64z" />
<glyph unicode="-" horiz-adv-x="1276" d="M18 878v24q0 59 119 88l110 -8l10 8h9l9 -8h9q668 88 798 88q83 -30 83 -112q-35 -103 -101 -152l-147 8l-761 -88q-138 47 -138 152z" />
<glyph unicode="." d="M164 175q37 104 96 104h24q120 -46 120 -112v-24q0 -96 -144 -112q-96 20 -96 144z" />
<glyph unicode="/" horiz-adv-x="898" d="M-2 168q0 38 72 112q74 138 320 448l256 392q45 112 104 112h16q86 0 96 -80q0 -143 -376 -632q-184 -264 -288 -456q-48 -48 -112 -48q-58 0 -88 152z" />
<glyph unicode="0" horiz-adv-x="1022" d="M35 546q0 223 96 536v8l-8 24q0 94 152 120l16 16h16q79 -1 416 -160q240 -220 240 -544v-40q-56 -209 -176 -312q-217 -168 -376 -168h-8q-248 0 -360 400zM251 570q37 -344 112 -344h88q304 138 304 400q0 219 -224 400q-34 0 -128 40h-8q-72 -79 -128 -360z" />
<glyph unicode="1" horiz-adv-x="349" d="M18 127v8q40 234 72 728v8h-8l8 8v32l-8 152q0 64 80 72q137 0 160 -120l-16 -192l8 -8v-8l-16 -224v-96q-48 -432 -80 -464l-96 -32q-104 40 -104 136z" />
<glyph unicode="2" horiz-adv-x="786" d="M15 174v16q191 287 456 848v24h-40l-184 -144q-128 28 -128 112q0 134 304 280q18 16 144 32l136 -24q48 -48 48 -80v-56q0 -133 -288 -688q-88 -151 -88 -192l8 -8h8l200 32h56q104 0 104 -56q-80 -144 -200 -144q0 -24 -376 -112q-160 50 -160 160z" />
<glyph unicode="3" horiz-adv-x="908" d="M12 180q12 32 24 32h16l112 -16q347 0 464 232v56q0 22 -80 32l-224 -32q-112 19 -112 176q0 25 208 200l112 128v8h-48q-164 -16 -232 -56q-86 21 -136 120l-8 40q0 80 104 80q76 0 288 40h184q184 -37 184 -168q0 -81 -240 -304l-8 -8l-8 -24h8q248 -87 248 -272 q0 -109 -128 -264q-171 -168 -496 -168q-120 0 -208 112z" />
<glyph unicode="4" horiz-adv-x="946" d="M12 592l136 296q47 148 64 152l56 24q152 -18 152 -104v-88q-45 -31 -152 -280q8 -32 48 -32h88q52 25 160 352l40 88q119 272 152 272l8 8h8q160 -38 160 -112q0 -25 -240 -552v-40q160 -12 160 -88q0 -110 -232 -128q-56 0 -104 -176q-32 -160 -104 -160l-32 -8 q-70 0 -120 160l56 168q-216 29 -216 72q-60 0 -88 176z" />
<glyph unicode="5" horiz-adv-x="973" d="M0 589l40 104v128q0 234 304 272q139 0 456 112q152 -27 152 -120q-21 -120 -104 -120v-8l-120 8q-359 -76 -432 -112l-32 -48v-96h8l112 16q227 -21 424 -152q104 -124 104 -184h8q-20 -125 -64 -176q-231 -216 -520 -216q-256 22 -256 168q4 17 40 32l176 -16 q175 0 360 168l32 48q0 72 -208 112l-8 8h-64q-53 0 -256 -80l-8 -8h-8q-112 40 -112 112q-13 0 -24 48z" />
<glyph unicode="6" horiz-adv-x="1009" d="M12 435q64 398 144 608q86 229 128 256h40q120 0 120 -88l16 -24q-224 -522 -224 -752v-72q0 -104 56 -152h8l48 16l-8 56v56q53 252 176 360q82 80 152 96q304 0 304 -200q0 -306 -464 -568l-120 -24h-48q-268 0 -320 376zM572 347l8 -8h8q139 138 168 256l-8 8 q-76 0 -176 -256z" />
<glyph unicode="7" horiz-adv-x="1087" d="M37 1206q24 80 80 80q116 -48 256 -48l384 56q8 24 48 24q152 -54 152 -88l16 -80l-80 -312l168 -48l16 -32q0 -84 -280 -160l-136 -336q-61 -240 -152 -240q-112 37 -112 128l-8 32q49 152 128 312v40h-40l-72 -24l-32 8l-96 -16h-8q-112 68 -112 128q0 104 120 104 q334 36 368 96l64 232h-8l-320 -40q-312 32 -312 112z" />
<glyph unicode="8" horiz-adv-x="945" d="M16 339q0 49 104 304l-16 136l56 272q0 48 136 112q180 -32 368 -120q107 -80 136 -200q0 -82 -56 -144q0 -30 136 -160l48 -160q-6 -78 -120 -208q-145 -118 -352 -160q-40 -2 -40 -16q-339 0 -384 208q-16 44 -16 136zM240 267q0 -43 32 -56h72q368 100 368 216 q0 78 -88 144h-32q0 -37 -288 -96q-64 -95 -64 -200v-8zM336 723h40l72 72h72q27 0 64 80q0 49 -88 96h-32q-128 -115 -128 -176v-72z" />
<glyph unicode="9" horiz-adv-x="827" d="M12 1013q0 226 352 352h56q109 -13 232 -96l136 -168q-64 -329 -136 -600l-160 -464q-32 -32 -88 -32q-96 28 -96 144q120 361 184 664h-8q-143 -48 -184 -48h-80q-119 33 -176 136zM228 981l24 -8q112 21 256 136l8 32v8q-8 24 -48 24h-16q-93 0 -224 -160v-32z" />
<glyph unicode=":" d="M124 505v96q0 69 128 96q86 -6 152 -96q-60 -171 -120 -200h-8q-152 28 -152 104zM148 1009q51 64 96 64h48q91 -41 112 -96v-16q0 -76 -112 -160l-8 -8h-8q-96 0 -96 80q-16 0 -32 136z" />
<glyph unicode=";" d="M136 212q120 148 120 176v136l-32 168q0 27 104 56q86 0 120 -264l8 -48v-40q-28 -169 -112 -248q-59 -59 -104 -64q-62 27 -104 128zM176 1076q0 112 128 120h32q71 0 104 -120q-9 -69 -96 -160h-40q-71 0 -128 160z" />
<glyph unicode="&#x3c;" horiz-adv-x="927" d="M39 706v40q0 72 128 104q370 331 432 424l56 16q144 0 144 -96v-48q0 -62 -176 -184q-209 -185 -264 -256q12 -82 296 -288l200 -88l16 -48q-18 -152 -112 -152q-125 0 -424 248q-140 176 -208 176q-42 0 -88 152z" />
<glyph unicode="=" horiz-adv-x="1053" d="M49 998q0 59 240 104q448 112 624 112q54 -17 80 -56v-48q0 -68 -408 -120q-86 -32 -448 -104q-88 43 -88 112zM97 542q0 96 168 96q171 72 440 72h64q101 0 120 -88q-89 -120 -336 -120q-216 -40 -360 -96q-54 0 -96 136z" />
<glyph unicode="&#x3e;" horiz-adv-x="991" d="M20 1277v8q4 64 64 64q450 -48 704 -120l8 -8q120 -48 120 -128l-280 -520q-163 -252 -176 -368q-64 -80 -104 -80h-16q-48 0 -88 176q0 83 272 512q96 172 96 208q0 38 -528 96q0 16 -24 16q-27 0 -48 144z" />
<glyph unicode="?" horiz-adv-x="803" d="M28 1463v16q0 128 136 128q0 18 248 24q265 -29 304 -152q16 0 16 -48q0 -87 -136 -280q0 -26 -96 -208l-24 -112q0 -81 88 -216v-32q-31 -72 -120 -72h-24q-118 0 -192 280q0 181 216 576v24l-40 8h-56l-224 -32q-65 0 -96 96zM348 215q40 96 112 96q69 0 168 -104v-40 q0 -73 -128 -144h-56q-48 0 -96 192z" />
<glyph unicode="@" horiz-adv-x="1275" d="M25 783v32q0 252 320 464q255 149 416 160q320 -53 320 -112q168 -155 168 -264v-96q0 -53 -64 -136q-146 -128 -256 -128l-192 72q-98 -74 -200 -80q-208 67 -208 216v48h-8q-88 -85 -88 -232q0 -125 192 -208l160 -32l56 8l48 -8l368 32q28 -24 88 -24l32 -48 q0 -134 -400 -160l-56 -8q-496 0 -672 392zM569 951h16q80 55 80 72v16h-24l-72 -72v-16zM705 1215q0 -11 104 -32q160 -59 160 -224h24q56 55 56 120q-31 184 -176 184q-168 -24 -168 -40v-8z" />
<glyph unicode="A" horiz-adv-x="857" d="M27 120l48 344v48q38 28 112 368l64 160q140 256 216 256q0 16 64 32q94 0 176 -136q96 -154 96 -456q24 -164 24 -392v-232q-21 -104 -56 -104q-40 0 -40 -16q-88 10 -88 88q-13 0 -16 56v304q0 16 -24 16l-272 -88q-80 0 -80 -104q-18 -9 -32 -160q-29 -104 -112 -104 q-70 0 -80 120zM331 624l8 -8h16q264 78 264 104q-25 336 -104 336q-102 -105 -168 -344z" />
<glyph unicode="B" horiz-adv-x="1012" d="M20 1199q30 120 112 120q112 -11 112 -88v-56h24q114 120 208 120q248 -44 248 -232l8 -64l-24 -88q256 -67 256 -200v-96q0 -220 -376 -496l-200 -88l-96 -8l-88 8l-56 -24q-112 36 -112 120l16 336l-8 48l8 32l-8 64q16 0 24 176l-8 88l8 32zM276 279l8 -24h56 q184 0 400 272l24 72v16q0 56 -64 56h-88q-117 -36 -288 -232q-42 0 -48 -96l8 -48l-8 -8v-8zM300 775l8 -8h8q67 0 200 224q0 48 -48 48q-92 0 -168 -264z" />
<glyph unicode="C" horiz-adv-x="1020" d="M2 512q0 439 272 720q95 80 232 80h8q304 -79 304 -216q-28 -136 -88 -136h-24q-63 0 -136 80l-96 24h-24q-160 -108 -160 -232q-40 0 -80 -320q0 -213 96 -264l120 -8h48q116 0 424 192l40 8q30 -7 48 -56q0 -158 -408 -336q-148 -24 -288 -24q-216 84 -216 168 q-72 121 -72 320z" />
<glyph unicode="D" horiz-adv-x="1104" d="M-2 1013v72q0 51 176 144q44 48 96 48q348 -34 464 -96q336 -205 336 -480q0 -181 -240 -448q-114 -112 -328 -176l-8 8h-72l-128 -72h-16q-69 0 -88 112l8 32v24l-8 8l8 24l8 272h-8l8 24l-8 392q-8 48 -24 48h-32l-56 -24q-88 30 -88 88zM398 661l16 -88l-8 -48v-80 l8 -32l-8 -32v-24q5 -48 24 -48h88q174 46 320 288l16 72q0 247 -376 344l-72 8l-8 -8v-112l8 -184z" />
<glyph unicode="E" horiz-adv-x="922" d="M11 393q0 202 112 504v24l-24 96q0 145 352 216q11 20 248 120q0 12 104 32q37 0 80 -72q-60 -168 -144 -168l-336 -176q-106 -149 -112 -216v-16h24q264 104 312 104q96 0 96 -72q0 -114 -216 -184q-276 -125 -280 -144v-96q58 -112 160 -112h72q136 0 352 200 q88 -16 88 -88q0 -125 -280 -280q-102 -48 -256 -48q-279 0 -344 280z" />
<glyph unicode="F" horiz-adv-x="1163" d="M-6 444q0 54 88 144q46 237 168 376q137 123 408 168q301 76 352 128h24q120 -8 120 -120v-16q0 -122 -320 -160q-82 -40 -192 -48q0 -13 -120 -40q-172 -114 -176 -184l-16 -16v-16l272 56q112 -31 112 -80q-38 -100 -120 -128q-308 -103 -320 -120v-96l40 -136 q0 -104 -64 -144h-40q-144 0 -144 280z" />
<glyph unicode="G" horiz-adv-x="1130" d="M9 547q0 344 360 544q50 30 184 64l64 -16l56 8q65 0 96 -96q-42 -152 -112 -152l-128 24q-165 -64 -256 -216q-48 -92 -48 -128v-48q51 -208 120 -208q0 -36 224 -40l72 16h48q56 0 128 272v8h-56l-264 -40h-32q-138 0 -152 160q31 80 104 80l160 -8l400 64 q67 0 136 -80v-32l-80 -224v-24l32 -64q0 -80 -104 -192q-32 0 -32 -48v-56q-14 -42 -128 -120q-56 0 -104 104h-16l-160 -32h-48l-8 -8q-222 38 -320 136q-136 115 -136 352z" />
<glyph unicode="H" horiz-adv-x="1048" d="M10 109l120 592q24 54 56 392v64q0 27 -24 56l8 48h-8q38 128 104 128q168 -35 168 -120l-56 -440h-8l8 -24h40l320 64q26 0 56 312l-8 144q0 112 160 112q88 -48 88 -72q0 -363 -176 -960q-21 -26 -112 -296q-70 -72 -136 -72q-88 22 -88 112q75 121 168 480l-8 8h-48 l-272 -72q-57 0 -72 -160l-48 -184l8 -104q0 -90 -128 -120h-32q-56 0 -80 112z" />
<glyph unicode="I" horiz-adv-x="908" d="M15 116v32q0 75 96 112h144q64 0 64 184q40 329 56 704l-24 16l-40 -8l-104 8l-40 -16q-105 0 -136 96l-8 40q46 168 152 168q58 -38 160 -56h16l112 32h56q28 0 80 -40h128q152 0 152 -80q-61 -144 -192 -144h-72q-20 0 -48 -416l-48 -440l8 -8h16l32 8l8 -8h8 q84 0 208 40h40q67 0 80 -88q-26 -152 -264 -152q-200 -33 -200 -88q-29 -24 -104 -24l-56 40l-184 -16q-96 27 -96 104z" />
<glyph unicode="J" horiz-adv-x="903" d="M-11 1291q0 152 128 152l120 -16q471 64 576 64q51 -18 72 -64q0 -58 -144 -120q-208 -44 -208 -72v-88l80 -688v-80q0 -139 -136 -296q-138 -72 -240 -72q-224 36 -224 152v56q33 128 160 128q0 -112 128 -112q88 27 88 112v56q-66 800 -104 800h-144q-121 0 -152 88z " />
<glyph unicode="K" horiz-adv-x="942" d="M16 155q32 69 32 264l-24 56l32 152v440q-32 101 -40 184q51 112 152 112q112 -27 112 -144h8l-8 -56v-320h8q298 311 352 512q36 48 72 48h8q128 -28 128 -112q-18 -166 -520 -728v-24q195 -96 592 -208l32 -40q0 -83 -152 -136q-112 0 -512 128l-8 -8v-40 q-21 -216 -144 -216l-32 -16q-88 39 -88 152z" />
<glyph unicode="L" horiz-adv-x="919" d="M17 168q51 0 88 712q16 0 16 80v32l-8 192q0 76 112 112h32q128 -40 128 -112q-40 -175 -88 -936l8 -8h40l520 32l40 -56q-34 -168 -328 -168l-8 -8l-24 -8l-24 8q-65 -21 -328 -40q-168 0 -168 136z" />
<glyph unicode="M" horiz-adv-x="1253" d="M5 313q72 115 72 256q96 373 224 720q70 56 120 56h16q87 0 120 -152l40 -152q0 -97 64 -176q112 115 264 424q39 128 144 128q120 -28 120 -168l8 -8l-8 -88v-120l8 -8l-8 -8l-8 -240v-96l-8 -80l8 -72l-8 -72l24 -280v-40l8 -8q0 -66 -152 -136q-96 0 -96 304v600h-16 q-185 -336 -304 -352h-16q-88 0 -208 312h-16q-75 -98 -136 -496q-28 -200 -168 -200q-88 24 -88 152z" />
<glyph unicode="N" horiz-adv-x="1022" d="M-1 138q45 192 64 632l40 200q11 0 56 152q72 72 128 72q128 -10 128 -112l248 -560l56 -64h8q64 62 64 400l-8 112v40q0 192 104 192q111 0 120 -288v-304q-101 -464 -216 -464l-56 -24q-71 0 -208 184q-67 113 -184 408l-40 48h-8l-40 -400l8 -8v-8q-32 -210 -64 -304 l-120 -40q-80 26 -80 136z" />
<glyph unicode="O" horiz-adv-x="1034" d="M10 309q0 443 312 776q0 35 144 40l40 -40l8 8l-8 40v8q0 26 96 32q79 -15 264 -184q136 -175 136 -336q0 -289 -408 -536q-173 -112 -352 -112q-110 0 -192 136zM234 301q0 -80 104 -96q133 0 408 272q48 115 48 152v56q0 102 -216 288q-12 32 -24 32h-16l-8 -8 q-11 0 -24 -72q-120 -72 -120 -88q-152 -219 -152 -536z" />
<glyph unicode="P" horiz-adv-x="866" d="M-18 1148v48q0 107 392 160h8q367 0 448 -320l16 -64q0 -186 -280 -384q-225 -94 -264 -128q-22 -432 -120 -432q-56 -5 -56 -16q-72 0 -72 128l32 304l-40 80v40q0 25 56 96v400h-32q-88 8 -88 88zM310 708l24 -8q175 50 232 160q29 0 56 112v16q-68 160 -272 160h-16 l-16 -16v-48l-8 -88l8 -8v-8l-8 -40l8 -80z" />
<glyph unicode="Q" horiz-adv-x="1025" d="M2 410q14 179 144 400q162 184 256 184l40 24q78 0 168 -48q312 -104 312 -168q96 -114 96 -232v-40q0 -118 -112 -232v-24q68 -59 80 -128q-47 -88 -96 -88h-48l-144 64h-24q-159 -104 -328 -104q-174 0 -312 192zM218 314q0 -45 136 -96h88q112 29 112 48v8 q-112 147 -112 232q0 61 80 72h56q45 0 160 -160h24q48 59 48 88v56q0 116 -200 216h-64q-29 -24 -56 -24h-80q-106 0 -192 -304v-136z" />
<glyph unicode="R" horiz-adv-x="1151" d="M12 1109v16q0 82 240 160h96l8 8l8 -8h112q203 0 416 -328l24 -128v-16q-60 -179 -336 -328v-40q214 -208 408 -208h8l80 8q48 0 56 -88h8q-70 -120 -272 -120q-191 0 -464 232h-24l8 -144q-23 -120 -168 -120h-8q-18 0 -64 112l16 128q-32 597 -88 728q-64 45 -64 136z M300 1029q56 -346 56 -424h24q47 0 256 176q40 52 40 80v8q-126 208 -320 208q-56 -8 -56 -24v-24z" />
<glyph unicode="S" horiz-adv-x="790" d="M-2 952q0 200 352 288l152 16q84 0 128 -96q-61 -152 -192 -152l-56 8q-85 0 -144 -80v-40l480 -456q48 -93 48 -144q0 -97 -248 -224q-64 -32 -160 -40l-16 -16l-24 8l-136 -16q-92 0 -128 136q0 50 120 80l136 -8q208 62 208 120q-392 344 -456 416q-64 116 -64 200z " />
<glyph unicode="T" horiz-adv-x="1133" d="M11 1011q0 59 96 112l40 -8q30 0 376 136q179 83 504 176h24q51 -21 56 -40v-32q0 -123 -504 -304l-8 -8v-56q0 -107 24 -240l-8 -40l8 -56l-8 -96l8 -48q-34 -415 -64 -456q0 -26 -112 -32v-8q-88 43 -88 120l8 56l-8 24q13 0 40 312l-8 8l8 56v80l-8 8l8 8v8 q-26 248 -56 248h-16l-160 -72h-40q-94 0 -112 144z" />
<glyph unicode="U" horiz-adv-x="774" d="M7 982q0 73 136 88q120 -25 120 -152q-24 -39 -24 -160l8 -8v-8l-8 -24l8 -56l-8 -64l8 -200q48 -144 64 -144h24q110 92 152 240q40 138 80 440q54 120 120 120q80 -30 80 -120v-32q-40 -392 -144 -632q-168 -272 -400 -272q-175 54 -200 672l8 24l-8 40l8 48z" />
<glyph unicode="V" horiz-adv-x="950" d="M7 930q0 55 88 96q109 0 152 -104l232 -528l8 -8q0 -24 16 -24q35 17 160 504q95 328 120 328l56 16q78 0 96 -104q0 -77 -160 -640q0 -75 -128 -400q0 -34 -112 -64h-24q-85 0 -168 176q-34 42 -280 584q-56 101 -56 168z" />
<glyph unicode="W" horiz-adv-x="1159" d="M18 1298q40 80 128 80q120 -22 120 -160q88 -481 168 -712h16v24q57 480 104 480l80 16q66 0 104 -128v-64q0 -275 88 -384h8q120 516 120 776q23 64 72 64h64q64 -54 64 -192v-16q-40 -417 -104 -704l-80 -184q-78 -62 -168 -72q-29 0 -136 128h-16q-13 0 -40 -168 q-32 -64 -104 -64l-72 -16q-46 0 -80 120q-72 52 -192 512z" />
<glyph unicode="X" horiz-adv-x="1075" d="M3 1209q38 112 88 112h56q96 0 96 -168q91 -191 184 -288h24q401 528 448 528l56 8h24q80 0 80 -112q0 -20 -312 -392q-184 -221 -184 -240q166 -278 328 -448q20 0 40 -88q0 -120 -160 -120q-74 10 -208 248l-152 208h-16q-64 -28 -136 -272q-41 -24 -80 -24h-24 q-79 0 -96 104q0 154 200 384v24q-256 396 -256 536z" />
<glyph unicode="Y" horiz-adv-x="1021" d="M16 1160q27 96 112 96h48q48 0 88 -200q50 -232 120 -232q174 172 248 296l184 240q73 104 120 104h16q56 0 56 -72v-32q0 -138 -448 -680q-32 0 -40 -112q-30 0 -72 -368l8 -40q0 -101 -72 -144q-152 0 -152 120l-16 72q21 20 48 344q-186 231 -240 528z" />
<glyph unicode="Z" horiz-adv-x="916" d="M16 132v24l224 336l152 256l160 288l-8 8h-40q-190 -88 -272 -88q-72 0 -72 136q28 120 144 120l288 72h112l8 8q168 -30 168 -96l8 -8q0 -87 -152 -288l-360 -600l-16 -48h152l8 8l8 -8h24l80 8q192 -16 192 -80q0 -97 -240 -120l-40 8q-268 -28 -384 -64 q-144 24 -144 128z" />
<glyph unicode="[" horiz-adv-x="953" d="M5 196q96 207 96 480l-8 8l8 40v184q38 231 112 312q123 123 376 224l272 96q88 -38 88 -104q0 -140 -232 -184l-272 -136q-120 -131 -120 -208l-32 -504v-40l-24 -80q0 -16 24 -16q528 0 528 -104l8 -64q-21 -88 -64 -88l-248 8v-8l-112 16l-96 -8l-88 8l-64 -24 q-144 36 -144 160z" />
<glyph unicode="\" horiz-adv-x="1034" d="M0 1071q40 72 88 72q266 0 728 -752l168 -208l8 -24q-34 -160 -136 -160q-77 27 -152 176q-60 59 -176 272q-200 280 -384 440q-109 0 -128 144z" />
<glyph unicode="]" horiz-adv-x="801" d="M4 1493q0 48 104 48h32l112 -8l8 8h8l64 -8l240 16l40 -8l8 8h8q112 0 112 -136l8 -24l-16 -64v-48l-24 -432h8l-8 -8v-8l8 -240h8l-8 -8v-8q0 -43 56 -224q-47 -168 -192 -168q-110 -70 -280 -136q-61 -48 -96 -56q-128 61 -128 168q0 58 256 160q184 95 184 128 l-24 144v56q0 335 32 592q-14 64 -40 64l-168 -8q-280 0 -280 64q-21 0 -32 136z" />
<glyph unicode="^" horiz-adv-x="1046" d="M27 1252q12 44 200 304q124 148 176 272l48 24q195 0 296 -184q265 -390 288 -536q-14 -120 -120 -120q-91 114 -328 544l-48 16q-51 0 -288 -376q0 -76 -96 -128q-120 0 -120 176z" />
<glyph unicode="_" horiz-adv-x="1661" d="M17 167v56q66 64 124 72q111 -24 236 -24l646 8v8l12 -8h13l186 8l87 -8l149 16q174 0 174 -192q0 -57 -149 -80h-50q-37 0 -111 32h-25v-8l-261 16l-485 -32l-12 8v-8l-12 8h-112q-373 0 -373 104z" />
<glyph unicode="`" horiz-adv-x="498" d="M38 1746q14 88 80 88h8q136 0 344 -288l16 -56q0 -88 -56 -88q-72 0 -256 216q-105 46 -136 128z" />
<glyph unicode="a" horiz-adv-x="1008" d="M29 216q42 222 144 432q155 176 296 176q27 0 112 -64l56 -8l24 8q80 -55 80 -104v-8l-16 -160q0 -264 192 -264q80 0 80 -56v-16q-26 -72 -72 -72q-11 -32 -72 -32q-145 0 -272 160h-16q-199 -216 -280 -216h-72q-184 69 -184 224zM245 216l8 -32h24q216 191 216 296 l-64 120h-8q-97 0 -176 -368v-16z" />
<glyph unicode="b" horiz-adv-x="865" d="M12 219q38 0 56 328q0 492 -24 600q33 96 96 96h32q37 0 104 -64v-24l-8 -72l8 -64l-8 -104q6 -48 16 -48l-8 -8v-24l8 -64l-8 -64v-24l16 -16h8l200 48q352 -58 352 -336q-8 -135 -144 -272q-73 -56 -304 -120l-32 8l-64 -8q-38 0 -272 160q-10 72 -24 72zM284 211 q16 -32 48 -32q113 0 232 88q72 105 72 152q-38 104 -96 104h-80q-108 -49 -176 -200v-112z" />
<glyph unicode="c" horiz-adv-x="1024" d="M8 396q0 134 144 320l136 56l40 -8l48 8q120 -62 120 -136q0 -88 -64 -128q-68 0 -96 24h-16q-88 -82 -88 -224q28 -112 112 -112h72q76 0 496 152l32 8q48 -19 48 -32v-8q0 -155 -416 -272q-122 -40 -200 -40q-157 0 -288 128q-80 93 -80 264z" />
<glyph unicode="d" horiz-adv-x="943" d="M18 253q40 226 128 360q82 160 328 160v8l64 -16h8q138 496 248 496h48q64 -32 88 -112q-28 -91 -72 -152q-88 -280 -88 -472l-32 -104v-64l56 -224q0 -46 -64 -80q-77 13 -136 72h-16q-28 0 -176 -96l-112 -24h-72q-83 28 -152 128zM218 221l24 -24h24q120 0 248 184v8 q0 150 -80 192h-16q-137 0 -200 -344v-16z" />
<glyph unicode="e" horiz-adv-x="1083" d="M8 435v152q0 267 368 344h48q232 -40 232 -96q27 0 72 -128v-56q-29 -144 -128 -144q-83 -48 -288 -112l-56 -48v-16q83 -136 232 -136l24 -8q82 0 392 184l104 40q40 0 40 -96q0 -79 -240 -216q-180 -88 -256 -88h-96q-97 0 -272 96q-168 191 -168 296zM248 603h16 q224 61 224 104v32l-40 8q-111 0 -200 -120v-24z" />
<glyph unicode="f" horiz-adv-x="878" d="M12 549q8 38 88 72q6 494 312 632q116 48 192 48q248 -19 248 -96q19 0 24 -56q-22 -96 -88 -96h-16q-43 0 -136 56h-8q-312 -87 -312 -424v-8l16 -16q203 72 352 72q37 -15 40 -32q0 -120 -112 -160q-296 -93 -296 -136q14 -111 152 -296v-8q-26 -96 -88 -96 q-105 0 -216 216l-56 200q-56 0 -96 128z" />
<glyph unicode="g" horiz-adv-x="740" d="M24 -244q0 51 64 96q35 0 96 -72h24q177 0 288 280l24 104v64l-136 -72q-62 -24 -112 -24q-153 0 -208 216l-8 56v56q25 170 152 328q142 80 184 80l56 -8l64 8l176 -64l40 -112l-24 -168l32 -336q0 -300 -272 -536q-127 -80 -240 -80q-184 20 -184 128q-13 0 -16 56z M256 356l8 -8h24q75 0 184 216v80l-24 24h-16q-160 -66 -160 -216q-12 0 -16 -96z" />
<glyph unicode="h" horiz-adv-x="1020" d="M4 129l8 96v144l-8 200l24 560l-8 8v8q0 128 144 128q80 -50 80 -128v-8q-32 -86 -32 -528v-64h16q12 0 96 128q112 120 128 120h40q176 0 176 -280q89 -272 184 -272l88 8q64 -8 64 -56q-49 -136 -160 -136q-85 0 -216 96q-97 113 -160 328h-16q-45 -40 -136 -216 l-104 -248l-8 -8h-8q-125 0 -192 120z" />
<glyph unicode="i" horiz-adv-x="339" d="M28 806v80q0 64 144 64q82 0 96 -336l8 -480q-18 -128 -128 -128q-88 55 -88 128v280l-8 48l8 8v8q-16 266 -32 328zM68 1166q0 112 96 112v8q86 0 152 -80q-17 -176 -128 -176q-66 0 -120 136z" />
<glyph unicode="j" horiz-adv-x="734" d="M6 -98q19 96 72 96q19 0 96 -136l104 -80l48 -8h80q59 0 104 120v32l8 80l-160 744q34 104 128 104q112 -54 112 -112v-8l-8 -136l112 -496l16 -136v-56q0 -201 -152 -296q-45 -40 -120 -40h-56q-158 0 -312 152q-44 70 -72 176zM318 1142q0 45 136 64q80 -41 80 -104 q-19 -128 -40 -128h-24q-152 35 -152 168z" />
<glyph unicode="k" horiz-adv-x="778" d="M9 158v8l32 240h-8l8 8v48l8 64l-16 472l-24 96v96q0 42 64 64h56q100 0 120 -296l-8 -24l8 -152v-40l8 -40h16q130 118 168 264q36 56 80 56q152 -20 152 -152v-8q0 -37 -232 -320q-40 -20 -40 -64q83 -48 320 -144q48 -41 48 -80q0 -96 -144 -96l-344 144h-32v-56 l-8 -88l8 -24q-28 -120 -120 -120h-8q-98 0 -112 144z" />
<glyph unicode="l" horiz-adv-x="348" d="M10 1197q14 96 64 96l56 8q112 -24 112 -160q19 0 24 -616q40 -258 48 -416q0 -64 -80 -112h-16q-112 0 -112 104q-12 0 -24 32l8 56l-24 184v72q0 176 -16 176l8 8v8q-24 560 -48 560z" />
<glyph unicode="m" horiz-adv-x="1093" d="M13 949v8q0 67 56 104q113 -19 152 -64h8q60 48 96 48q152 -47 152 -160q0 -69 40 -216h16q205 296 304 296h16q160 -56 160 -120q56 -95 88 -632v-56q0 -110 -112 -168q-61 32 -96 104q-16 616 -64 616q-176 -165 -256 -504q0 -48 -88 -80q-136 34 -136 136l16 56 q-11 288 -48 288q-21 0 -40 -120v-176l8 -112q0 -46 -56 -88h-64q-95 0 -128 136l16 88l-16 232v144l-8 32l8 32q0 94 -24 176z" />
<glyph unicode="n" horiz-adv-x="834" d="M-5 779v24q0 88 136 88h16q80 -30 80 -104v-192h8q14 0 120 128q100 80 208 80q218 0 256 -608v-56q0 -94 -88 -144q-128 44 -128 248q-18 344 -64 344q-117 0 -280 -408q0 -169 -112 -184h-16q-93 0 -128 128q16 35 16 128h-8l8 8v8l8 376q-16 123 -32 136z" />
<glyph unicode="o" horiz-adv-x="762" d="M5 238v48q40 238 96 392q109 208 128 208l88 24l224 -24q208 -129 208 -392q-49 -202 -160 -312q-181 -176 -320 -176q-186 0 -264 232zM229 278q16 -72 32 -72q174 72 264 280v136q-44 176 -88 176q-112 -138 -112 -168q-33 0 -96 -344v-8z" />
<glyph unicode="p" horiz-adv-x="826" d="M18 776q80 112 304 112h112q206 -50 304 -160q40 -39 88 -176q-64 -216 -112 -216q-90 -118 -304 -208l-16 -32l8 -48q-36 -464 -88 -464q-48 -10 -48 -24q-112 37 -112 168l-8 56q16 32 16 88v64l8 160h-8l8 8l-8 120v216q-21 224 -112 224q-32 72 -32 112zM346 640 l40 -280h16q192 120 192 216q-24 57 -152 112h-72l-24 -24v-24z" />
<glyph unicode="q" horiz-adv-x="943" d="M2 235v64q63 292 192 392q185 96 312 96h56l8 8q192 -63 192 -120l-8 -8v-72q-64 -338 -160 -616l-32 -120l16 -16h40l96 8q200 0 200 -80q0 -107 -320 -136v-8l-8 8h-96q-168 53 -168 128l-8 8l-8 24l72 240v32h-8l-136 -56q-208 54 -208 160zM194 243l8 -8h24 q256 204 256 320v24h-24q-81 0 -176 -112q-40 0 -88 -224z" />
<glyph unicode="r" horiz-adv-x="875" d="M-10 648q0 70 64 104q80 0 176 -88q244 185 360 208h56q216 -16 216 -96h8q0 -85 -216 -104q-97 -5 -344 -240q-40 -93 -40 -128v-96l16 -88v-40q0 -42 -96 -80h-16q-53 0 -136 136v40l8 72q-14 13 -24 192q-8 128 -32 208z" />
<glyph unicode="s" horiz-adv-x="639" d="M15 245v24q32 64 88 64q82 -104 152 -104q128 8 128 40v80l-160 224q-55 29 -96 184q0 164 304 232h24q128 0 128 -96v-16q0 -80 -104 -80l-48 16q-88 -21 -88 -64q0 -19 192 -280q88 -161 88 -208q0 -140 -200 -224l-48 -16h-32q-256 0 -328 224z" />
<glyph unicode="t" horiz-adv-x="966" d="M6 600q0 73 248 112q97 43 112 72v48q0 48 -32 152q0 112 112 112q120 -21 120 -160q0 -88 32 -88l264 32q91 0 96 -64q0 -104 -360 -192q-32 -34 -32 -64v-40l-16 -344h8q-17 -160 -112 -160h-8q-82 0 -112 136q0 137 24 256v104l-208 -56h-16q-120 48 -120 144z" />
<glyph unicode="u" horiz-adv-x="1000" d="M3 843q14 0 24 40l104 16q112 -61 112 -112v-24l-16 -88v-32q8 -336 56 -336q108 117 216 552q0 160 88 160h16q136 -35 136 -88l16 -88q-29 -95 -40 -272q61 -248 184 -248q64 -35 64 -80v-16q-47 -96 -120 -96q-100 0 -248 168q0 18 -40 24q-153 -304 -304 -304 q-120 47 -152 136q-96 145 -96 688z" />
<glyph unicode="v" horiz-adv-x="854" d="M26 844q0 36 56 64l64 -16v8q65 0 120 -80l-8 -40q81 -382 136 -432q33 0 184 400q74 256 176 256h24q56 -51 56 -104v-16q0 -97 -224 -632q-113 -256 -176 -256h-32q-110 0 -240 320q-96 306 -96 368q-29 0 -40 160z" />
<glyph unicode="w" horiz-adv-x="1227" d="M10 827q7 35 72 64h8q90 0 160 -112l56 -240h8q21 0 120 312q26 48 56 48l72 -16l8 8q94 0 120 -160q50 -261 104 -432l24 -16q68 0 200 584q0 74 104 88q80 -18 80 -80v-24q0 -276 -200 -744q-59 -71 -160 -104q-96 14 -224 232l-72 224h-16l-56 -288l8 -8v-8 q-24 -144 -104 -144h-24q-70 27 -96 80q-120 243 -192 600q-52 65 -56 136z" />
<glyph unicode="x" horiz-adv-x="958" d="M11 649q0 61 80 72q125 0 320 -168h16q121 70 344 352l8 8h8q136 0 152 -96q0 -101 -328 -408v-24q200 -206 200 -240v-64q0 -62 -96 -80q-54 30 -152 160l-96 80h-16q-64 0 -160 -176q-59 -40 -88 -40q-96 48 -96 128q0 90 152 248q0 56 -192 136q-56 73 -56 112z" />
<glyph unicode="y" horiz-adv-x="921" d="M1 -170q0 65 80 96q22 0 40 -56q53 -53 104 -80h16q112 0 200 232v16q0 18 -120 24q-160 164 -160 296q-24 5 -24 64v232l-8 72q14 160 72 160q152 -33 152 -136l-8 -256q8 -192 64 -216q78 0 136 296q106 520 224 520v8q144 -38 144 -136q-16 -96 -120 -376 q-56 -150 -128 -608q-86 -284 -272 -384q-65 -24 -120 -24q-208 57 -208 128q-42 43 -64 128z" />
<glyph unicode="z" horiz-adv-x="909" d="M19 617q0 88 96 88q234 104 448 144l24 8q51 -40 120 -56q40 -24 40 -72h8q0 -142 -304 -432l-24 -32v-16l296 16q184 -16 184 -88q0 -68 -240 -128h-96q-40 -2 -40 -16l-8 8h-8l-216 -24h-8q-200 51 -200 120l-8 8v16q0 127 112 184l184 200v16h-8l-232 -96 q-112 26 -112 144z" />
<glyph unicode="{" horiz-adv-x="585" d="M24 891v8q0 44 168 192l8 24q-144 94 -144 264v48q58 160 272 312q48 64 136 64l96 -64v-40q0 -144 -128 -144q-168 -124 -168 -208q44 -56 208 -144q26 -18 48 -80q0 -49 -64 -136q0 -24 -40 -24l-32 -24l-8 -8v-8q130 -49 136 -80v-72q-57 -152 -136 -152 q-128 -75 -128 -232q3 -57 168 -208l8 -48q0 -104 -104 -104q-151 49 -224 184q-48 107 -48 176v104l64 200q-80 88 -80 168z" />
<glyph unicode="|" horiz-adv-x="492" d="M29 1638v48q0 95 96 104h32q116 0 152 -436l64 -1053q24 -34 24 -94q0 -124 -72 -171q0 -22 -72 -38q-120 37 -120 209l-8 47l32 85q-13 389 -32 389l8 38l-8 228v28l-8 9l8 10v66q-24 348 -80 465q-13 0 -16 66z" />
<glyph unicode="}" horiz-adv-x="684" d="M17 1735v16q0 96 152 96q206 -51 296 -144q136 -147 136 -280l-8 -8v-72q-32 -162 -120 -304v-16q144 -102 144 -168v-24l-40 -120v-32q96 -113 96 -304v-24q0 -236 -288 -504l-112 -56q-88 19 -88 80q-48 23 -48 64l192 160q128 158 128 232v144q-2 23 -120 72 q-82 76 -96 176l32 96q-112 35 -112 208q0 28 112 136q112 135 112 248q0 116 -184 192l-64 8v-8q-80 6 -80 40q-40 59 -40 96z" />
<glyph unicode="~" horiz-adv-x="1196" d="M49 843v40q18 38 56 64q29 74 184 152l64 8q122 0 256 -168q47 -96 112 -96q248 96 248 232v48l-8 8l16 48l-16 64l24 16h8q120 0 120 -128q16 0 16 -40v-72q-63 -232 -136 -232q-60 -86 -256 -128h-16q-124 0 -280 272l-80 32q-140 0 -240 -200h-56z" />
<glyph unicode="&#xa0;" />
<glyph unicode="&#xa2;" horiz-adv-x="735" d="M17 1044q0 72 320 264q61 34 168 56v160l-8 72q18 80 64 80q144 -22 144 -136v-64l-8 -152l24 -48q-24 0 -24 -48q-95 -64 -120 -64q-48 32 -72 32q-152 -64 -272 -184v-8l40 -8h88l96 32l128 -40v-32l24 -176v-24l-16 -72l8 -32l-16 -184v-136q0 -107 -56 -136h-40 q-82 0 -96 152l32 400v48l-40 32h-64q-197 0 -256 80q-48 95 -48 136z" />
<glyph unicode="&#xa3;" horiz-adv-x="1213" d="M24 111q5 61 56 112l24 -8l40 8l64 -8q128 0 128 200v56q-8 25 -80 56q-32 42 -32 88q0 92 80 104h32l8 48l-8 32q0 267 216 416q181 64 232 64q196 0 224 -160q0 -32 -32 -48l-168 16q-202 0 -288 -232q-14 0 -16 -112l16 -48q304 -15 304 -64l16 -56q0 -66 -216 -88 l-48 8q-64 0 -64 -56v-192l248 -16q76 -30 392 -72l32 -16v-16h8q0 -109 -200 -120h-8l-456 48q-145 0 -224 -56l-64 -16q-216 0 -216 128z" />
<glyph unicode="&#xa7;" horiz-adv-x="930" d="M11 1521q0 165 320 232q0 24 176 24q84 0 128 -120q0 -48 -88 -48q-320 -66 -320 -136q371 -154 416 -296l80 -176q0 -102 -120 -168v-24q296 -148 296 -328l16 -32q0 -221 -176 -312l-104 -16q-202 0 -424 120q-32 73 -32 136l24 8q210 -40 352 -40q95 0 128 96 q-42 152 -144 152q-93 54 -232 72q0 22 -112 32q-144 66 -144 152q-16 0 -32 136q42 180 80 208l88 80v8q-176 123 -176 240zM323 1041l16 -16h16q61 0 136 24v40l-16 16q-152 -40 -152 -64z" />
<glyph unicode="&#xa9;" horiz-adv-x="1459" d="M15 480v120q0 92 176 392q235 328 344 328l8 -8h80q0 104 112 104q234 0 592 -360q136 -252 136 -368q0 -473 -808 -680h-32l-56 8l-80 -8h-16q-175 22 -328 136q-117 145 -128 336zM215 432q0 -129 248 -208l32 -8q410 0 720 280q64 113 64 168v16q0 249 -320 480 l-144 56h-64l-48 -8l-40 8q-11 -80 -64 -80q-186 -153 -272 -304q-84 -155 -112 -280v-120zM359 592q0 119 184 296q141 112 176 112h64q64 -52 64 -72q-19 -144 -72 -144q-200 -142 -200 -200l16 -16h88q105 0 208 32l40 -56v-24q-35 -88 -136 -128q-45 -26 -168 -56 q-216 35 -216 112q-21 0 -48 144z" />
<glyph unicode="&#xad;" horiz-adv-x="1276" d="M18 878v24q0 59 119 88l110 -8l10 8h9l9 -8h9q668 88 798 88q83 -30 83 -112q-35 -103 -101 -152l-147 8l-761 -88q-138 47 -138 152z" />
<glyph unicode="&#xae;" horiz-adv-x="1415" d="M14 576q0 310 176 552q166 216 272 216q101 0 128 -112l-8 -32q0 -67 96 -128h24q0 28 216 208v8q-44 64 -112 64h-16q-88 -4 -104 -24l-32 24v16l24 32q0 18 -40 24v32q20 48 144 80q217 0 424 -336q184 -424 184 -528l-8 -40l8 -64q0 -143 -144 -304 q-162 -125 -408 -200l-280 -56q-381 0 -512 400zM222 616q0 -231 120 -320h24q82 184 120 816h-8q-125 -51 -216 -248q-40 -172 -40 -248zM590 232l8 -8h8q224 25 224 64q-52 65 -192 112h-24zM726 784l8 -8h8q165 147 184 240h-16q-121 -104 -184 -232zM838 560 q164 -129 240 -152h24q120 68 120 192q0 191 -88 328h-8q-24 -18 -96 -160l-176 -168q-14 0 -16 -40z" />
<glyph unicode="&#xb0;" horiz-adv-x="602" d="M70 1525q0 160 144 280l48 -8l152 32q144 -40 144 -112v-72q0 -42 -120 -192l-232 -88h-8q-75 0 -128 160zM190 1573q5 -48 24 -48h40q159 79 160 120l-24 32h-40q-45 -2 -88 -24l-40 24h-8q-24 -5 -24 -64v-40z" />
<glyph unicode="&#xb1;" horiz-adv-x="1368" d="M5 180v8q0 64 88 120q72 -8 96 -24l336 16l360 -24v8l128 -24h40l88 16q120 -22 120 -120v-40q-20 -128 -128 -128q-139 72 -592 72h-24l-64 -8l-56 8q-97 0 -264 -32q-128 36 -128 152zM181 1108q0 88 232 88q104 14 104 48l-40 184q37 88 96 88q94 0 136 -288l584 40 q72 -40 72 -96q0 -122 -424 -152q-210 0 -232 -24l16 -328q0 -136 -88 -136h-16q-38 0 -80 128v304l-16 16h-64l-128 -24q-152 19 -152 152z" />
<glyph unicode="&#xb4;" horiz-adv-x="476" d="M54 1290l16 56l-8 72q34 135 248 360l48 32h24q66 -71 72 -128q0 -45 -296 -384l-88 -56z" />
<glyph unicode="&#x2000;" horiz-adv-x="926" />
<glyph unicode="&#x2001;" horiz-adv-x="1852" />
<glyph unicode="&#x2002;" horiz-adv-x="926" />
<glyph unicode="&#x2003;" horiz-adv-x="1852" />
<glyph unicode="&#x2004;" horiz-adv-x="617" />
<glyph unicode="&#x2005;" horiz-adv-x="463" />
<glyph unicode="&#x2006;" horiz-adv-x="308" />
<glyph unicode="&#x2007;" horiz-adv-x="308" />
<glyph unicode="&#x2008;" horiz-adv-x="231" />
<glyph unicode="&#x2009;" horiz-adv-x="370" />
<glyph unicode="&#x200a;" horiz-adv-x="102" />
<glyph unicode="&#x2010;" horiz-adv-x="1276" d="M18 878v24q0 59 119 88l110 -8l10 8h9l9 -8h9q668 88 798 88q83 -30 83 -112q-35 -103 -101 -152l-147 8l-761 -88q-138 47 -138 152z" />
<glyph unicode="&#x2011;" horiz-adv-x="1276" d="M18 878v24q0 59 119 88l110 -8l10 8h9l9 -8h9q668 88 798 88q83 -30 83 -112q-35 -103 -101 -152l-147 8l-761 -88q-138 47 -138 152z" />
<glyph unicode="&#x2012;" horiz-adv-x="1276" d="M18 878v24q0 59 119 88l110 -8l10 8h9l9 -8h9q668 88 798 88q83 -30 83 -112q-35 -103 -101 -152l-147 8l-761 -88q-138 47 -138 152z" />
<glyph unicode="&#x2013;" horiz-adv-x="1153" d="M18 878v24q0 59 106 88l98 -8l9 8h8l8 -8h8q597 88 713 88q74 -30 74 -112q-31 -103 -90 -152l-131 8l-680 -88q-123 47 -123 152z" />
<glyph unicode="&#x2014;" horiz-adv-x="2177" d="M18 878v24q0 59 212 88l197 -8l18 8h16l16 -8h16q1193 88 1425 88q148 -30 148 -112q-62 -103 -180 -152l-263 8l-1359 -88q-246 47 -246 152z" />
<glyph unicode="&#x201c;" horiz-adv-x="961" d="M24 1767l40 24q84 0 272 -296q84 -89 144 -240q-16 -72 -72 -72q-87 0 -368 480zM368 1775q11 33 40 48h32q82 0 152 -152q125 -296 264 -296q80 -84 80 -112q-17 -72 -128 -72h-40q-95 0 -240 240l-144 264z" />
<glyph unicode="&#x201d;" horiz-adv-x="757" d="M18 1315l104 296q30 216 64 216h24q112 -36 112 -136q-44 -272 -96 -352q-76 -168 -176 -168q-32 43 -32 144zM426 1331q88 147 152 456q16 0 16 32h56q88 -67 88 -144q-84 -471 -256 -512h-24q-27 0 -32 168z" />
<glyph unicode="&#x2022;" horiz-adv-x="717" d="M-10 943q0 246 208 336q62 24 112 24q222 0 280 -288q0 -160 -128 -272q-53 -32 -208 -56q-115 0 -232 168z" />
<glyph unicode="&#x202f;" horiz-adv-x="370" />
<glyph unicode="&#x205f;" horiz-adv-x="463" />
<glyph unicode="&#x20ac;" horiz-adv-x="836" d="M33 501q24 88 88 88q80 0 80 72l16 48l-24 104q0 31 104 72q39 102 272 320q53 64 208 64q24 -29 24 -56q0 -80 -104 -80q-184 -151 -184 -200h200q65 0 112 -64v-8q0 -88 -112 -88h-168q-176 -27 -176 -88l-16 -56h8l224 8q256 0 256 -88q0 -72 -144 -72 q-310 -13 -360 -56v-8q0 -190 248 -256q144 -8 144 -40v-16q0 -88 -104 -96q-226 42 -328 136q-99 103 -120 256q-106 0 -144 104z" />
<glyph unicode="&#x2122;" horiz-adv-x="1294" d="M7 721q16 64 64 64q50 0 144 -40h176l240 32q128 -32 128 -80l-40 -72v-16q88 -73 88 -192l24 -24q65 49 216 312l64 8q104 -63 104 -128q16 0 16 -136v-208q0 -176 -56 -176q-120 29 -120 112q-10 0 -16 104h-16q-88 -104 -184 -104h-24q-30 0 -128 80h-8 q-20 0 -48 -232l-64 -40q-19 0 -160 104l-64 -8q-112 50 -112 152l24 184l-8 8v8l8 72q0 48 -112 48q-136 82 -136 168zM455 433l8 -144v-8q19 9 96 216l24 32v40q-120 -10 -120 -32z" />
<glyph unicode="&#xe000;" horiz-adv-x="915" d="M0 0v915h915v-915h-915z" />
</font>
</defs>
</svg>
